<?xml version="1.0" encoding="UTF-8" standalone="no"?>
<!-- Created with Inkscape (http://www.inkscape.org/) -->

<svg
   width="210mm"
   height="297mm"
   viewBox="0 0 210 297"
   version="1.1"
   id="svg5"
   inkscape:version="1.1.2 (b8e25be833, 2022-02-05)"
   sodipodi:docname="d.svg"
   xmlns:inkscape="http://www.inkscape.org/namespaces/inkscape"
   xmlns:sodipodi="http://sodipodi.sourceforge.net/DTD/sodipodi-0.dtd"
   xmlns="http://www.w3.org/2000/svg"
   xmlns:svg="http://www.w3.org/2000/svg">
  <sodipodi:namedview
     id="namedview7"
     pagecolor="#ffffff"
     bordercolor="#666666"
     borderopacity="1.0"
     inkscape:pageshadow="2"
     inkscape:pageopacity="0.0"
     inkscape:pagecheckerboard="0"
     inkscape:document-units="mm"
     showgrid="false"
     inkscape:zoom="0.76435185"
     inkscape:cx="390.52695"
     inkscape:cy="563.22229"
     inkscape:window-width="1920"
     inkscape:window-height="1051"
     inkscape:window-x="-9"
     inkscape:window-y="-9"
     inkscape:window-maximized="1"
     inkscape:current-layer="layer1" />
  <defs
     id="defs2" />
  <g
     inkscape:label="Layer 1"
     inkscape:groupmode="layer"
     id="layer1">
    <g
       id="g65"
       transform="matrix(0.26458333,0,0,0.26458333,58.880066,153.38007)"
       style="fill:#ffffff">
      <g
         id="g11"
         style="fill:#ffffff">
	<path
   d="m 33.938,25.626 v 8.25 c 0,1.383 -1.119,2.5 -2.5,2.5 h -26.5 c -1.381,0 -2.5,-1.117 -2.5,-2.5 v -8.25 c 0,-1.381 1.119,-2.5 2.5,-2.5 1.381,0 2.5,1.119 2.5,2.5 v 5.75 h 21.5 v -5.75 c 0,-1.381 1.119,-2.5 2.5,-2.5 1.381,0 2.5,1.119 2.5,2.5 z M 16.42,27.768 c 0.488,0.488 1.129,0.732 1.768,0.732 0.643,0 1.279,-0.244 1.77,-0.732 l 7.5,-7.498 c 0.978,-0.975 0.978,-2.558 0,-3.535 -0.977,-0.977 -2.561,-0.977 -3.535,0 l -3.231,3.232 V 2.5 c 0,-1.381 -1.119,-2.5 -2.5,-2.5 -1.381,0 -2.5,1.119 -2.5,2.5 V 19.967 L 12.46,16.735 c -0.977,-0.977 -2.561,-0.977 -3.535,0 -0.977,0.978 -0.977,2.56 0,3.535 z"
   id="path9"
   style="fill:#ffffff" />

</g>
      <g
         id="g13"
         style="fill:#ffffff">
</g>
      <g
         id="g15"
         style="fill:#ffffff">
</g>
      <g
         id="g17"
         style="fill:#ffffff">
</g>
      <g
         id="g19"
         style="fill:#ffffff">
</g>
      <g
         id="g21"
         style="fill:#ffffff">
</g>
      <g
         id="g23"
         style="fill:#ffffff">
</g>
      <g
         id="g25"
         style="fill:#ffffff">
</g>
      <g
         id="g27"
         style="fill:#ffffff">
</g>
      <g
         id="g29"
         style="fill:#ffffff">
</g>
      <g
         id="g31"
         style="fill:#ffffff">
</g>
      <g
         id="g33"
         style="fill:#ffffff">
</g>
      <g
         id="g35"
         style="fill:#ffffff">
</g>
      <g
         id="g37"
         style="fill:#ffffff">
</g>
      <g
         id="g39"
         style="fill:#ffffff">
</g>
      <g
         id="g41"
         style="fill:#ffffff">
</g>
    </g>
  </g>
</svg>
