<?xml version="1.0" standalone="no"?>
<!DOCTYPE svg PUBLIC "-//W3C//DTD SVG 20010904//EN"
 "http://www.w3.org/TR/2001/REC-SVG-20010904/DTD/svg10.dtd">
<svg version="1.0" xmlns="http://www.w3.org/2000/svg"
 width="1507.000000pt" height="1080.000000pt" viewBox="0 0 1507.000000 1080.000000"
 preserveAspectRatio="xMidYMid meet">
<metadata>
Created by potrace 1.16, written by Peter Selinger 2001-2019
</metadata>
<g transform="translate(0.000000,1080.000000) scale(0.100000,-0.100000)"
fill="#000000" stroke="none">
<path d="M2414 10768 c15 -18 56 -64 91 -103 35 -38 105 -117 156 -175 51 -58
102 -116 114 -130 12 -14 43 -47 69 -74 25 -27 61 -67 78 -89 18 -22 49 -56
68 -76 36 -39 126 -141 176 -201 43 -51 65 -76 109 -124 141 -155 171 -190
179 -204 5 -9 23 -30 40 -47 17 -17 54 -57 81 -89 28 -32 62 -70 78 -84 15
-14 27 -31 27 -38 0 -7 16 -26 35 -41 19 -15 35 -32 35 -36 0 -5 15 -24 33
-44 17 -19 48 -52 67 -73 19 -21 51 -56 70 -76 19 -21 42 -48 50 -60 14 -20
84 -100 170 -195 19 -21 49 -55 65 -75 17 -20 46 -53 65 -73 20 -21 45 -51 57
-67 l22 -29 20 22 c12 12 21 36 21 53 0 16 5 30 10 30 6 0 10 -9 10 -20 0 -23
10 -26 28 -8 9 9 12 -318 14 -1473 1 -816 5 -1432 8 -1369 6 112 6 113 9 35 4
-116 1 -157 -15 -179 -11 -16 -13 -185 -14 -992 0 -650 3 -975 10 -979 6 -3
10 4 10 18 0 14 6 24 15 24 10 0 15 -11 15 -33 0 -51 21 -138 30 -124 5 9 12
4 21 -16 22 -43 37 -41 42 8 3 24 3 -82 1 -234 -2 -152 -7 -284 -11 -294 -4
-11 -3 -15 5 -10 6 3 13 2 17 -4 11 -17 -84 -17 -300 1 -141 11 -184 19 -107
19 39 0 42 2 43 28 8 419 15 1338 25 3918 l7 1601 -22 22 c-24 24 -36 25 -115
9 -58 -11 -58 -11 -30 -24 26 -11 17 -12 -74 -12 -58 0 -123 5 -148 13 -24 7
-44 9 -44 4 0 -13 -77 -11 -85 2 -4 6 -26 8 -53 5 -27 -3 -41 -2 -33 3 9 6 -1
10 -29 13 -23 2 -44 0 -46 -4 -3 -4 -17 -8 -32 -9 l-27 -1 30 -13 c26 -12 -3
-14 -250 -17 -361 -4 -402 -2 -421 16 -8 9 -16 19 -17 23 -1 4 -27 20 -58 35
-31 15 -64 37 -74 48 -18 20 -17 20 16 20 22 0 41 7 52 20 13 16 14 20 2 20
-7 0 -17 -5 -21 -11 -9 -16 -95 -5 -109 14 -6 8 -27 22 -47 30 -20 8 -41 24
-47 34 -5 11 -28 28 -50 38 -23 10 -41 24 -41 31 0 8 -16 20 -35 28 -19 8 -38
22 -41 31 -3 8 -12 15 -20 15 -7 0 -17 6 -21 14 -4 7 -38 32 -75 56 -38 24
-68 46 -68 49 0 3 -13 12 -29 19 -16 7 -42 26 -58 41 -15 15 -45 40 -66 56
-21 16 -37 35 -35 44 2 11 -20 28 -72 55 -92 47 -116 66 -98 78 17 11 -5 25
-52 34 -19 4 -37 10 -40 13 -3 4 -38 30 -78 60 -39 29 -75 58 -80 65 -4 7 -24
22 -44 35 -21 12 -38 27 -38 32 0 5 -4 9 -10 9 -17 0 -89 54 -90 68 0 7 -12
17 -26 22 -14 6 -32 16 -39 24 -8 8 -31 25 -52 37 -29 18 -34 25 -20 27 37 7
9 32 -37 32 -13 0 -43 17 -67 38 -61 53 -193 153 -236 178 -20 12 -38 26 -42
31 -10 15 -222 179 -294 228 -21 14 -42 36 -47 49 -5 13 -20 26 -36 30 -37 10
-79 40 -136 98 -26 27 -53 48 -61 48 -8 0 -22 9 -32 20 -18 20 -17 20 8 20 60
0 5 41 -76 57 -18 4 -59 27 -92 53 -33 26 -70 52 -83 59 l-22 12 0 -120 0
-120 76 -53 c211 -147 324 -228 350 -252 7 -6 24 -20 40 -31 15 -11 56 -40 89
-65 75 -56 102 -71 108 -62 2 4 2 1 1 -5 -2 -7 9 -21 24 -30 15 -9 41 -29 59
-43 17 -14 48 -38 68 -55 21 -16 50 -37 65 -45 30 -17 179 -127 195 -144 16
-18 73 -56 84 -56 5 0 24 -15 43 -32 19 -18 52 -44 72 -58 20 -14 43 -31 51
-37 7 -7 17 -13 21 -13 6 0 74 -52 106 -83 8 -7 29 -21 48 -31 19 -11 40 -25
46 -30 9 -10 75 -59 231 -175 43 -32 45 -32 38 -10 -7 21 -6 22 9 10 9 -7 16
-24 16 -37 0 -22 -4 -24 -44 -24 -25 0 -48 5 -51 10 -8 13 -55 13 -55 0 0 -5
15 -13 32 -18 38 -10 52 -42 19 -42 -12 0 -21 -4 -21 -10 0 -5 9 -10 20 -10
19 0 20 -7 20 -110 l0 -111 43 -19 c42 -20 93 -25 135 -14 21 6 22 11 22 120
0 62 4 115 9 118 4 3 19 -6 31 -19 13 -14 29 -25 36 -25 7 0 17 -6 21 -13 4
-8 22 -22 38 -32 17 -11 53 -38 82 -62 28 -24 56 -43 62 -43 5 0 14 -6 18 -14
4 -7 24 -24 43 -37 61 -42 195 -144 198 -151 2 -5 8 -8 14 -8 5 0 22 -9 36
-20 74 -56 86 -66 103 -82 10 -10 35 -28 56 -42 21 -13 48 -33 60 -45 12 -12
29 -21 38 -21 9 0 15 -6 13 -12 -10 -29 -47 -16 -133 46 -95 69 -144 99 -184
111 -20 6 -23 4 -18 -9 5 -13 -1 -16 -32 -16 -22 0 -41 5 -43 11 -3 9 -9 9
-25 1 -22 -12 -829 -19 -841 -8 -3 4 34 6 83 6 49 0 86 2 83 5 -3 3 -45 8 -94
11 -49 2 -125 10 -169 15 -44 6 -118 15 -165 19 -47 5 -103 13 -124 17 l-40 8
30 14 29 14 -30 9 c-16 5 -44 7 -62 4 -18 -3 -39 1 -50 9 -17 14 -17 14 2 15
18 0 -74 44 -120 57 -11 3 -30 16 -42 28 -12 13 -37 26 -55 30 -35 8 -58 22
-58 36 0 5 9 5 20 1 24 -9 100 -3 100 8 0 12 -79 23 -148 22 -59 -2 -63 0 -57
18 6 18 2 20 -38 20 -30 0 -51 6 -68 20 -13 12 -51 34 -86 51 -34 16 -69 36
-77 44 -7 8 -38 26 -67 39 -88 42 -203 106 -224 126 -11 11 -38 27 -60 36 -22
9 -43 21 -47 28 -4 6 -8 -15 -8 -47 0 -39 4 -56 11 -52 6 4 8 13 5 21 -6 16
-2 17 22 5 9 -5 30 -14 46 -21 24 -9 27 -13 15 -21 -7 -5 -26 -9 -41 -9 -37 0
-35 -10 7 -39 35 -24 45 -41 23 -41 -9 0 -9 -3 0 -12 8 -8 15 -8 28 3 12 9 15
10 10 2 -4 -8 -2 -13 4 -13 6 0 8 -5 4 -12 -5 -8 -2 -9 9 -5 10 4 17 1 17 -6
0 -14 62 -50 85 -50 8 0 12 -4 9 -9 -3 -4 15 -18 40 -30 24 -13 95 -52 158
-87 108 -61 147 -83 286 -158 95 -51 135 -74 162 -92 14 -9 39 -23 55 -31 17
-8 44 -24 60 -36 17 -12 72 -42 124 -68 69 -34 89 -48 75 -53 -11 -4 -55 13
-128 52 -61 32 -127 67 -146 77 -19 10 -42 18 -51 18 -10 0 -19 4 -21 8 -6 15
-75 52 -98 52 -12 0 -36 10 -53 23 -51 36 -77 47 -111 47 -17 0 -38 5 -46 10
-13 8 -12 10 3 10 19 0 23 15 7 25 -6 4 -61 6 -123 6 -117 -1 -167 11 -106 24
l33 7 -30 13 c-16 8 -23 14 -16 14 7 1 11 5 7 10 -3 6 3 14 12 20 17 9 17 11
-2 25 -11 8 -31 18 -45 21 -14 4 -35 16 -48 28 -20 18 -37 22 -105 24 -45 1
-95 4 -112 5 l-30 3 -3 -1867 c-2 -1491 0 -1868 10 -1868 7 0 14 -11 14 -26 2
-23 1 -24 -12 -7 -12 16 -13 15 -14 -18 0 -41 27 -73 54 -63 9 3 16 2 16 -4 0
-6 3 -17 6 -26 3 -9 1 -16 -5 -16 -6 0 -11 7 -11 15 0 8 -6 15 -14 15 -8 0
-21 3 -30 6 -13 5 -16 -2 -16 -43 0 -46 12 -73 33 -73 4 0 5 5 2 10 -3 6 -1
10 4 10 6 0 11 -6 11 -14 0 -7 10 -16 21 -19 20 -5 20 -7 5 -22 -9 -9 -16 -22
-16 -28 0 -7 -4 -7 -12 1 -10 10 -10 15 2 23 11 7 8 9 -15 7 l-30 -3 -3 -1238
c-1 -725 1 -1237 7 -1237 5 0 22 7 37 15 25 13 220 15 1589 13 858 -2 1724 -5
1925 -8 337 -5 368 -4 399 13 29 15 94 68 180 144 14 12 38 27 53 34 15 6 28
17 29 23 0 6 45 47 100 91 113 91 143 117 215 185 l51 49 144 6 c79 3 179 11
223 17 76 10 78 11 50 24 l-29 12 30 1 c17 1 92 10 169 21 76 12 143 19 148
18 6 -2 -5 -19 -23 -38 -18 -19 -49 -53 -69 -76 -56 -66 -469 -524 -499 -555
-9 -9 -45 -49 -81 -90 -36 -41 -94 -106 -130 -144 -36 -39 -128 -141 -205
-228 -77 -86 -148 -160 -157 -163 -10 -3 -18 -10 -18 -16 0 -13 -27 -46 -98
-123 -31 -34 -97 -106 -147 -161 -49 -54 -104 -113 -122 -131 -18 -17 -33 -35
-33 -39 0 -4 -10 -16 -22 -28 -13 -12 -63 -67 -113 -121 -49 -55 -108 -120
-131 -145 -23 -25 -76 -83 -118 -130 -43 -47 -89 -90 -104 -97 -19 -8 -87 -10
-233 -6 -196 6 -259 2 -259 -15 0 -4 104 -8 230 -8 127 -1 234 -4 237 -8 4 -4
-20 -35 -54 -69 -52 -54 -142 -152 -328 -359 -137 -151 -213 -235 -238 -261
l-29 -28 -256 4 c-142 2 -266 7 -277 11 -20 7 -49 -13 -80 -56 -5 -7 -17 -22
-25 -33 -8 -11 2 -5 21 13 l35 32 277 0 c152 0 277 -3 277 -7 0 -4 -10 -17
-22 -30 -21 -22 -21 -23 -2 -23 11 0 33 13 49 30 l29 30 611 0 c337 0 680 -3
763 -7 l150 -6 -15 -24 c-15 -22 -14 -23 8 -23 13 0 32 11 44 25 l20 26 475
-1 c261 0 522 -2 580 -4 58 -2 185 -4 283 -5 174 -1 178 -2 172 -21 -5 -17 -2
-20 22 -20 18 0 33 8 41 21 12 19 22 20 145 19 199 -2 276 -10 270 -26 -4 -12
591 -14 3911 -14 2154 0 3916 4 3916 8 -1 4 -14 23 -30 41 -20 23 -26 37 -19
42 8 5 7 14 -5 30 -29 42 -17 41 37 -2 28 -24 54 -46 57 -50 3 -3 26 -19 51
-37 l46 -31 183 2 184 2 2 46 c2 29 -3 54 -11 65 -14 18 -15 18 -21 -3 -8 -28
-12 -28 -46 0 -15 12 -44 33 -64 47 -20 14 -45 33 -55 42 -21 20 -39 23 -39 7
0 -6 -5 -7 -12 -2 -7 4 -19 8 -27 10 -8 1 -18 8 -22 15 -5 7 -9 9 -9 5 0 -5
-14 5 -30 22 -40 39 -85 62 -99 48 -7 -7 -20 -1 -42 18 -35 28 -70 45 -105 49
-20 3 -114 62 -114 71 0 14 29 1 59 -25 19 -17 36 -28 39 -26 5 6 -49 55 -60
56 -16 0 -8 20 8 20 10 0 0 17 -30 52 -25 29 -46 56 -46 60 0 5 -9 8 -19 8
-23 0 -35 -28 -20 -46 9 -11 8 -14 -2 -14 -9 -1 -8 -5 5 -15 14 -11 16 -15 5
-15 -14 0 -193 122 -238 163 -15 13 -46 36 -71 52 -46 29 -405 289 -680 493
-85 63 -173 128 -195 144 -22 16 -134 101 -250 189 -115 88 -235 179 -265 201
-30 23 -89 67 -130 97 -138 104 -180 133 -180 124 0 -4 29 -28 63 -53 34 -25
73 -55 87 -68 14 -12 95 -75 180 -139 85 -64 204 -155 264 -202 61 -47 120
-93 132 -101 12 -8 91 -68 176 -132 160 -122 239 -188 224 -188 -5 0 -3 -7 4
-15 15 -18 35 -20 24 -3 -4 7 -3 8 4 4 6 -4 9 -13 5 -21 -3 -9 1 -15 10 -15
20 0 47 -38 40 -56 -3 -8 1 -14 10 -14 8 0 18 -12 21 -26 5 -20 10 -24 18 -16
9 9 8 19 -2 39 -8 16 -16 31 -18 36 -8 18 10 3 62 -50 53 -55 73 -92 42 -80
-29 11 -35 -17 -11 -47 l22 -28 17 32 c20 42 20 54 -1 76 -51 51 73 -29 152
-99 23 -20 45 -37 49 -37 16 0 114 -89 98 -90 -7 0 -10 -5 -7 -10 3 -6 17 -7
31 -4 20 5 26 2 31 -14 3 -13 10 -18 19 -15 9 3 14 -2 14 -13 1 -11 14 -35 30
-54 25 -29 28 -36 15 -43 -30 -16 -50 -3 -197 129 -14 13 -29 24 -32 24 -3 0
-17 11 -32 25 -15 14 -30 25 -33 25 -9 0 3 -107 12 -116 7 -7 13 5 20 41 3 17
6 16 16 -10 9 -22 10 -35 1 -48 -21 -34 9 -50 41 -21 13 12 21 13 31 5 7 -6
28 -21 47 -34 43 -27 51 -47 19 -47 -22 -1 -22 -1 -3 -12 11 -7 26 -18 33 -25
8 -7 23 -18 34 -24 11 -6 17 -17 14 -25 -8 -20 4 -44 21 -44 11 0 13 7 10 23
-8 29 6 52 28 43 11 -4 15 -12 10 -24 -4 -9 -9 -32 -12 -50 -5 -26 -9 -31 -24
-27 -17 6 -18 4 -8 -19 7 -14 15 -26 18 -26 13 0 39 39 43 62 l3 23 29 -29
c28 -27 29 -29 11 -42 -12 -9 -23 -10 -36 -3 -24 12 -25 -1 -3 -47 22 -47 12
-52 -28 -16 -75 69 -161 139 -201 165 -16 10 -36 26 -45 35 -10 9 -38 34 -64
55 -25 21 -49 49 -52 62 -7 29 -23 33 -28 8 -2 -13 -22 -1 -83 53 -44 39 -93
79 -110 89 -16 11 -50 36 -75 55 -25 20 -83 67 -130 103 -47 37 -96 78 -110
90 -14 12 -41 33 -60 47 -61 42 -130 105 -130 117 0 6 5 13 11 15 12 4 1 38
-13 38 -5 0 -12 -9 -15 -19 -4 -17 -14 -13 -81 36 -43 31 -101 77 -130 102
-29 25 -89 73 -132 106 -44 33 -148 116 -231 185 -84 69 -181 148 -215 175
-35 28 -68 60 -75 73 -7 12 -19 22 -27 22 -8 0 -37 19 -65 43 -29 23 -61 49
-72 58 -87 72 -211 175 -225 188 -19 18 -37 33 -135 112 -118 95 -148 129
-147 168 1 19 -5 42 -13 52 -14 14 -14 18 0 29 9 7 13 21 10 31 -5 14 -2 17 9
13 19 -7 21 -25 5 -41 -14 -14 -3 -49 17 -57 12 -4 15 -2 11 9 -4 8 0 25 6 39
l13 24 60 -41 c32 -22 61 -43 64 -46 6 -8 267 -205 325 -246 48 -34 63 -45
181 -133 46 -34 84 -58 84 -53 0 5 -15 20 -32 32 -18 13 -52 39 -75 58 -23 20
-59 49 -80 64 -253 187 -421 318 -427 333 -3 8 -10 13 -15 10 -8 -5 -61 31
-81 54 -3 4 -52 42 -110 85 -58 43 -113 87 -123 97 -10 10 -29 26 -43 35 -14
9 -23 22 -20 29 3 8 0 11 -8 8 -10 -4 -12 2 -9 20 3 15 1 26 -5 26 -6 0 -23
12 -37 28 -14 15 -33 35 -42 44 -9 10 -19 16 -21 13 -8 -8 -42 26 -42 42 0 7
7 13 15 13 8 0 15 5 15 10 0 6 -7 10 -15 10 -9 0 -12 6 -8 16 5 13 10 11 32
-10 15 -14 41 -31 59 -37 18 -6 32 -15 32 -20 0 -5 8 -9 19 -9 10 0 21 -9 24
-20 3 -12 14 -20 26 -20 12 0 21 -4 21 -9 0 -5 10 -11 23 -15 12 -3 34 -17 49
-31 15 -14 31 -25 37 -25 5 0 11 -3 13 -8 2 -4 30 -25 63 -47 33 -21 88 -61
122 -87 34 -26 65 -48 67 -48 3 0 34 -20 70 -45 37 -25 70 -45 75 -45 5 0 16
-12 26 -26 9 -14 19 -23 22 -20 3 3 42 -20 87 -51 136 -95 195 -133 205 -133
5 0 11 -4 13 -8 2 -5 68 -53 148 -107 80 -54 164 -113 187 -129 23 -17 89 -64
148 -105 58 -40 111 -79 118 -86 7 -6 23 -17 36 -24 21 -12 159 -109 171 -121
3 -3 12 -9 21 -15 47 -28 160 -109 170 -121 6 -8 16 -14 21 -14 5 0 44 -26 86
-57 80 -59 200 -142 287 -199 28 -18 55 -37 60 -41 6 -4 44 -30 85 -57 41 -27
77 -53 78 -58 2 -4 8 -8 14 -8 6 0 29 -15 52 -33 23 -17 74 -55 115 -82 40
-27 83 -59 96 -70 12 -12 27 -19 33 -17 7 2 12 -3 12 -11 0 -8 11 -18 24 -21
28 -7 86 -53 86 -68 0 -6 -7 -5 -16 3 -14 11 -15 8 -14 -37 2 -27 -1 -57 -5
-66 -7 -18 0 -38 15 -38 5 0 7 20 5 45 -3 52 12 71 21 26 4 -17 10 -31 15 -31
4 0 6 -14 4 -30 -2 -17 0 -30 5 -30 6 0 10 -9 10 -19 0 -11 5 -23 10 -26 12
-8 13 25 1 43 -5 8 -4 23 2 37 l11 22 18 -22 c10 -13 18 -29 19 -37 0 -7 5 1
10 17 11 38 4 61 -21 68 -12 3 -20 14 -20 27 0 22 1 22 38 -6 20 -15 39 -32
40 -36 2 -4 8 -8 14 -8 20 0 107 -75 103 -88 -6 -16 50 -72 71 -72 8 0 14 -5
14 -11 0 -5 8 -9 18 -7 23 4 72 -28 72 -47 0 -16 24 -29 70 -39 14 -3 48 -28
75 -55 28 -27 53 -47 57 -45 3 2 16 -12 28 -31 12 -19 28 -35 35 -35 8 0 20
-7 28 -15 8 -8 34 -22 57 -31 23 -9 39 -22 37 -28 -3 -7 8 -21 24 -32 16 -10
32 -27 35 -36 3 -10 10 -18 15 -18 5 0 8 -3 7 -7 -1 -5 4 -19 11 -31 10 -18
18 -22 37 -18 20 5 24 3 24 -17 0 -15 11 -28 34 -41 19 -10 39 -16 44 -12 5 3
33 -4 63 -16 34 -13 84 -23 137 -25 l82 -4 0 5401 0 5400 -6045 0 -6045 0 17
-27 c10 -16 23 -35 30 -43 6 -8 48 -60 91 -115 58 -73 77 -103 70 -112 -7 -9
-7 -13 2 -13 15 0 52 -38 100 -102 81 -110 322 -418 330 -423 6 -4 10 -10 10
-15 0 -9 -27 -7 -81 6 -21 5 -27 2 -32 -15 -7 -29 19 -42 95 -45 50 -3 64 -7
79 -27 10 -13 19 -29 19 -36 0 -7 6 -16 14 -20 8 -4 48 -53 90 -108 89 -119
140 -184 182 -234 17 -20 49 -63 72 -96 23 -33 59 -81 80 -107 103 -130 214
-280 210 -284 -3 -2 -18 0 -33 6 -33 12 -55 7 -55 -13 0 -15 41 -27 94 -27 27
0 38 -9 81 -67 57 -77 87 -123 81 -123 -3 0 -17 5 -32 10 -16 7 -31 7 -38 1
-12 -10 -86 -11 -86 -1 0 4 -12 12 -26 19 -15 6 -24 15 -20 18 3 3 1 13 -6 20
-10 12 -6 14 23 8 26 -5 36 -2 45 12 10 16 7 18 -33 21 -58 4 -96 19 -90 35 3
8 -8 19 -25 26 -16 7 -32 21 -35 30 -11 29 -77 91 -98 91 -29 0 -36 9 -23 30
15 23 -12 67 -46 76 -13 3 -28 16 -35 30 -7 15 -19 24 -34 24 -22 0 -47 16
-47 31 0 3 15 10 33 14 l32 7 -25 9 c-14 6 -34 18 -45 28 -11 10 -31 22 -45
26 l-25 8 29 10 c21 7 25 12 15 18 -8 5 -23 9 -34 9 -13 0 -26 11 -33 28 -33
72 -53 91 -90 83 -15 -3 -43 30 -36 41 3 5 -2 8 -10 8 -21 0 -20 16 1 24 15 6
15 8 3 16 -8 6 -25 10 -38 10 -14 0 -26 8 -31 24 -5 13 -16 26 -25 29 -9 4
-13 13 -10 22 4 11 -5 25 -25 43 l-33 26 37 11 c52 14 44 30 -18 31 -48 1 -52
3 -55 27 -4 33 -45 77 -72 77 -15 0 -20 6 -20 25 0 25 -11 39 -107 141 -26 27
-43 54 -43 69 0 13 -10 31 -22 39 -12 9 -17 16 -10 16 7 0 10 5 7 11 -4 6 -9
8 -12 5 -3 -3 -21 8 -40 24 -18 17 -38 30 -43 30 -5 0 -7 7 -4 15 8 20 -13 45
-37 45 -11 0 -19 7 -19 15 0 9 -9 15 -24 15 -13 0 -29 6 -35 14 -10 12 -6 18
18 32 41 24 39 39 -6 50 -28 7 -38 14 -38 29 0 14 -10 22 -35 29 -46 13 -55
27 -29 48 l21 18 -27 10 c-14 5 -24 14 -21 19 3 4 -10 16 -28 26 -20 11 -32
24 -29 32 3 7 -1 13 -8 13 -7 0 -23 10 -35 21 -18 17 -21 26 -14 40 11 20 11
20 -47 39 -23 7 -40 17 -37 22 16 25 -19 33 -162 36 l-147 4 27 -34z m2086
-5045 c0 -504 -2 -914 -5 -911 -3 3 -5 354 -5 781 0 459 -4 787 -10 801 -5 14
-11 58 -13 98 -2 40 -2 54 0 31 2 -24 9 -43 14 -43 7 0 9 29 7 80 -2 44 -1 80
4 80 4 0 8 -413 8 -917z m4010 -1232 c19 -10 46 -22 60 -26 l25 -7 -22 19
c-13 11 -23 23 -23 27 0 12 20 6 38 -11 9 -10 30 -26 46 -37 22 -14 26 -20 15
-27 -11 -7 0 -21 44 -63 31 -29 57 -59 57 -65 0 -15 -2 -14 -49 11 -53 28 -62
18 -22 -27 30 -35 39 -55 23 -55 -12 0 -104 65 -156 111 -45 40 -48 45 -42 80
4 25 2 41 -6 46 -19 12 -42 43 -32 43 5 0 25 -8 44 -19z m-1050 -180 c43 -13
90 -14 90 -2 0 13 212 23 294 14 68 -8 94 -24 59 -37 -9 -4 -94 -6 -188 -5
-93 1 -249 1 -346 0 -203 -4 -299 4 -299 24 0 9 17 15 48 18 76 7 304 -1 342
-12z m1694 -265 c38 -25 72 -46 77 -46 4 0 46 -29 93 -65 47 -35 94 -69 105
-74 11 -6 25 -17 33 -24 7 -7 33 -27 58 -44 25 -17 54 -40 64 -52 11 -11 25
-21 33 -21 7 0 13 -7 13 -15 0 -8 5 -15 10 -15 6 0 10 -7 10 -15 0 -8 7 -15
15 -15 21 0 19 -46 -2 -55 -10 -3 -19 -1 -21 4 -2 6 -10 11 -18 11 -8 0 -14 4
-14 8 0 5 -11 15 -25 22 -13 7 -22 17 -19 21 3 5 -1 6 -9 3 -9 -3 -22 4 -31
18 -9 12 -16 19 -16 15 0 -10 -57 21 -84 46 -26 22 -35 22 -29 -3 3 -11 13
-20 23 -20 26 0 84 -60 71 -73 -7 -7 -7 -16 0 -30 20 -37 -6 -42 -48 -10 -21
16 -46 34 -55 39 -19 10 -215 173 -267 222 -24 23 -34 41 -34 62 0 40 8 46 37
26 46 -30 41 -17 -9 27 -87 74 -105 94 -105 121 l0 26 38 -24 c20 -13 68 -44
106 -70z m-8219 -96 c-46 -12 -372 -80 -384 -80 -6 0 -11 15 -11 34 l0 34 103
5 c56 3 135 6 176 7 41 0 77 2 79 5 3 3 19 5 36 4 l31 -1 -30 -8z m6398 -156
c4 -4 41 -9 84 -11 79 -4 110 -16 83 -33 -13 -8 -13 -9 0 -14 37 -11 84 -15
125 -9 41 5 44 8 39 29 -7 26 -8 25 116 28 14 1 30 3 35 6 41 23 390 -5 406
-32 5 -8 3 -14 -6 -16 -25 -6 -17 -22 10 -22 14 0 25 -4 25 -10 0 -5 -3 -9 -7
-8 -5 1 -33 -4 -63 -12 -75 -19 -311 -20 -333 -1 -13 10 -20 11 -31 2 -7 -6
-20 -9 -27 -7 -45 16 -208 24 -282 15 -45 -6 -93 -12 -107 -14 -14 -2 -31 2
-38 8 -10 8 -16 7 -22 -4 -7 -11 -36 -14 -132 -14 -68 0 -145 4 -173 9 -27 5
-60 10 -72 10 -27 1 -31 26 -5 26 16 1 16 1 -1 11 -9 6 -27 7 -38 4 -16 -5
-20 -3 -17 6 3 8 15 14 27 13 11 0 21 3 21 7 0 9 87 27 155 32 97 7 222 7 228
1z m-1278 -604 c4 -6 -8 -34 -26 -63 -17 -28 -45 -77 -62 -107 -16 -30 -37
-66 -47 -80 -10 -14 -33 -53 -51 -85 -18 -33 -48 -85 -67 -115 -20 -30 -45
-73 -57 -95 -12 -22 -43 -73 -69 -112 l-47 -73 -352 -2 -352 -3 348 -2 c191
-2 347 -5 347 -7 0 -5 -91 -161 -134 -228 l-29 -48 -181 -2 -181 -2 178 -6
177 -5 -89 -150 c-49 -82 -95 -156 -101 -162 -8 -10 -67 -13 -227 -13 -119 0
-214 -2 -212 -4 2 -3 97 -8 209 -11 146 -4 204 -9 202 -18 -2 -6 -55 -97 -118
-201 -103 -171 -119 -192 -147 -198 -38 -9 -1107 -6 -1107 3 0 3 22 30 49 60
121 135 249 278 283 317 21 23 42 42 48 42 5 0 10 5 10 12 0 6 21 34 48 62 26
28 67 74 91 101 42 48 82 93 302 334 57 62 126 139 153 170 27 31 83 94 126
141 42 47 103 114 135 150 31 36 67 74 79 85 12 11 38 40 58 65 20 25 70 80
110 124 l73 78 120 14 c66 7 149 18 185 24 133 21 315 27 325 10z m110 -20 c5
0 3 5 -5 10 -13 8 -12 10 3 10 9 0 17 -4 17 -10 0 -5 11 -12 25 -16 14 -3 25
-10 25 -15 0 -5 7 -6 15 -3 9 4 15 0 15 -10 0 -9 6 -16 13 -16 6 -1 29 -9 51
-19 36 -17 37 -19 15 -24 -13 -4 -82 -7 -154 -8 -166 -2 -91 -17 91 -18 168
-1 209 -8 222 -36 6 -13 19 -22 28 -22 10 1 20 -7 23 -18 3 -11 15 -20 25 -20
13 0 20 -8 23 -26 l3 -27 -132 -2 c-73 -1 -200 -6 -283 -10 -146 -6 -142 -7
120 -10 149 -2 276 -3 283 -3 16 1 15 -16 -3 -51 -8 -15 -15 -35 -15 -44 0 -9
-5 -31 -12 -49 l-12 -33 -211 -1 c-115 -1 -241 -5 -280 -9 -45 -4 28 -7 208
-8 l278 -2 -6 -22 c-4 -13 -15 -51 -26 -85 -10 -34 -19 -69 -19 -77 0 -33 20
-31 -449 -34 -195 -1 -352 -4 -350 -6 6 -5 440 -16 627 -16 l153 0 -6 -22 c-3
-13 -10 -32 -15 -43 -5 -11 -13 -40 -19 -65 -15 -67 -29 -121 -33 -125 -1 -2
-178 -6 -392 -9 -214 -3 -392 -8 -394 -11 -3 -3 116 -5 264 -5 259 -1 504 -8
513 -16 3 -3 -1 -10 -7 -16 -7 -7 -12 -19 -12 -28 0 -9 -8 -43 -19 -76 -10
-32 -27 -89 -37 -126 -13 -46 -24 -68 -34 -68 -565 -5 -990 -5 -990 0 0 3 37
67 81 141 45 74 89 146 98 161 9 16 19 28 24 28 4 0 7 5 7 12 0 19 152 269
167 275 7 3 10 9 8 14 -3 4 5 25 18 46 52 84 87 145 87 153 0 5 3 10 8 12 4 2
34 48 66 103 33 55 62 102 65 105 3 3 17 25 30 50 13 25 38 68 56 95 17 28 49
78 70 112 37 57 41 60 59 47 11 -8 25 -14 31 -14z m-5437 -405 c105 -11 192
-22 192 -26 0 -4 -11 -21 -25 -37 -15 -18 -23 -36 -19 -46 8 -20 -22 -45 -53
-46 -33 0 -28 -20 5 -21 l27 -1 -28 -8 c-16 -5 -34 -13 -40 -18 -21 -16 -60
-22 -74 -10 -9 7 -17 7 -25 1 -18 -15 -86 -25 -101 -16 -6 4 -16 8 -22 8 -22
2 -65 29 -65 42 0 7 -4 13 -10 13 -5 0 -10 8 -11 18 0 10 -3 12 -6 5 -7 -20
-23 -15 -23 6 0 10 -7 21 -15 25 -8 3 -15 12 -15 19 0 8 -7 20 -15 27 -9 7
-14 19 -11 26 4 10 -3 12 -24 7 -19 -3 -30 -1 -30 6 0 6 5 11 10 11 6 0 10 5
10 10 0 6 -5 9 -11 8 -6 -2 -13 2 -16 9 -6 16 148 11 395 -12z m10522 -15 c0
-5 7 -10 15 -10 10 0 15 -7 13 -17 -2 -13 5 -19 22 -21 14 -2 33 -11 42 -19
10 -9 24 -13 32 -10 8 3 22 -3 32 -14 9 -10 23 -19 30 -19 17 0 34 -32 34 -61
0 -18 3 -20 12 -11 23 23 52 13 78 -26 13 -20 23 -41 22 -46 -2 -5 3 -13 10
-18 9 -7 6 -8 -11 -5 -20 5 -22 3 -18 -19 3 -16 0 -24 -9 -24 -8 0 -14 5 -14
10 0 6 -8 14 -17 17 -10 4 -29 14 -43 23 -20 14 -105 68 -118 76 -2 1 1 11 7
23 11 19 9 19 -19 10 -30 -11 -45 -2 -135 73 -9 8 -9 74 1 90 7 11 34 10 34
-2z m-9422 -75 c150 -12 198 -16 222 -19 14 -1 35 -4 47 -4 28 -2 51 -41 32
-53 -8 -5 -26 -9 -40 -9 -19 0 -28 -6 -32 -21 -4 -15 -11 -20 -23 -15 -9 3
-22 2 -29 -4 -17 -14 -52 -15 -154 -7 -94 8 -101 11 -101 36 0 21 -17 37 -44
42 -12 3 -21 14 -23 31 -3 23 1 27 24 31 16 2 34 2 41 0 8 -1 44 -5 80 -8z
m4928 -15 c1 -8 8 -31 16 -50 12 -25 14 -48 9 -82 -7 -44 -6 -48 13 -49 61 -4
-53 -17 -151 -18 -130 -1 -127 -4 -93 89 11 30 20 60 20 67 0 6 4 22 9 36 9
22 13 24 93 23 66 -1 83 -4 84 -16z m4067 -10 c7 -6 32 -24 56 -41 24 -17 46
-40 48 -50 4 -15 11 -18 27 -13 20 6 20 6 -2 -19 -15 -16 -22 -32 -18 -44 3
-10 5 -21 3 -24 -1 -3 3 -12 9 -20 6 -8 14 -22 17 -32 5 -14 3 -16 -12 -8 -21
12 -199 169 -221 196 -14 17 -14 17 17 2 17 -9 38 -26 46 -38 18 -25 50 -22
55 5 5 25 -17 64 -40 72 -19 6 -25 24 -8 24 6 0 16 -5 23 -10z m-4023 -221 c8
0 4 -4 -10 -8 -19 -5 -25 -14 -25 -36 0 -17 3 -35 8 -42 5 -7 7 -37 4 -68 -5
-61 6 -75 57 -75 14 0 26 -4 26 -10 0 -7 -404 -21 -418 -13 -4 1 67 242 76
257 4 7 169 4 282 -5z m4999 -45 c13 8 72 -24 66 -35 -4 -5 -2 -9 3 -9 4 0 24
-13 42 -30 18 -16 36 -30 39 -30 3 0 6 -29 7 -65 0 -36 -1 -65 -3 -65 -2 0
-46 29 -98 65 -52 36 -98 65 -104 65 -12 0 -20 24 -16 47 15 75 15 74 35 63
11 -6 24 -9 29 -6z m224 -154 c9 -11 17 -25 17 -30 0 -6 11 -10 25 -10 15 0
64 -23 110 -51 83 -50 125 -91 125 -124 0 -9 15 -22 34 -30 18 -8 36 -21 39
-30 9 -21 -5 -19 -36 5 -29 23 -57 26 -57 6 0 -15 62 -56 86 -56 8 0 14 -3 14
-7 0 -5 14 -17 31 -28 30 -20 65 -72 55 -82 -3 -3 -18 5 -33 17 -52 40 -174
125 -201 139 -15 7 -38 23 -52 36 -14 12 -56 43 -95 68 -90 60 -123 87 -110
93 6 2 10 27 9 54 -1 54 10 63 39 30z m-5158 -86 c60 -3 112 -7 114 -10 2 -2
-4 -4 -14 -4 -30 0 2 -28 46 -40 22 -6 39 -15 39 -20 0 -5 16 -7 35 -5 24 2
35 -1 35 -10 0 -16 14 -21 76 -31 64 -9 117 -36 131 -67 6 -13 14 -54 18 -90
4 -37 11 -67 15 -67 4 0 11 38 15 85 6 81 16 108 30 85 8 -13 76 -43 150 -65
33 -10 65 -21 70 -25 6 -4 38 -16 73 -25 65 -18 68 -33 7 -36 -27 -1 -26 -2
10 -10 57 -12 376 -12 389 1 7 7 0 10 -20 11 -16 0 -38 4 -48 8 -17 6 -16 9
10 19 33 12 92 25 96 20 2 -1 19 7 38 18 32 20 73 31 140 40 22 3 29 -5 59
-67 18 -39 35 -68 37 -66 2 2 -3 41 -11 86 -9 45 -13 86 -10 91 3 5 15 6 28 1
12 -4 37 -4 57 2 19 5 49 12 65 15 50 8 429 10 440 2 6 -5 26 -11 45 -14 87
-15 102 -19 107 -32 6 -17 35 -18 51 -2 9 9 12 9 12 1 0 -7 10 -15 23 -18 41
-12 77 -30 77 -38 0 -5 3 -6 8 -3 4 2 23 -3 42 -11 19 -9 38 -15 43 -15 4 1 7
-4 7 -12 0 -8 6 -17 13 -19 6 -3 -87 -6 -208 -7 -121 -1 -265 -6 -320 -10 -94
-6 -89 -7 85 -10 102 -1 250 -5 329 -9 131 -5 144 -8 147 -25 1 -10 7 -22 12
-25 5 -3 13 -17 17 -31 4 -14 16 -31 26 -38 11 -7 19 -20 19 -28 0 -8 3 -14 8
-14 4 0 16 -20 27 -45 11 -25 23 -45 28 -45 4 0 7 -6 7 -14 0 -8 7 -16 15 -20
9 -3 15 -19 15 -41 0 -19 4 -35 8 -35 5 0 19 -9 32 -20 l23 -20 -29 -1 c-101
-5 -205 -6 -591 -8 -281 -1 -433 -5 -433 -11 0 -6 104 -10 293 -10 402 0 761
-11 719 -22 -18 -5 -30 -13 -27 -18 5 -9 -28 -32 -52 -36 -7 -1 -31 -18 -53
-36 -26 -23 -59 -39 -97 -48 -32 -7 -62 -16 -68 -19 -18 -10 -57 -13 -210 -16
-82 -2 -154 0 -160 4 -5 4 -23 8 -40 10 -16 1 -49 9 -71 16 -23 8 -50 11 -62
9 -11 -3 -30 -1 -41 6 -12 6 -47 12 -79 14 l-57 3 -27 54 c-15 30 -26 62 -23
72 2 10 -3 21 -10 23 -8 3 -22 29 -31 57 -10 29 -19 46 -22 39 -2 -7 1 -26 7
-43 6 -17 8 -36 4 -42 -5 -8 -262 -4 -348 7 -80 10 -119 19 -100 26 16 5 11 8
-20 14 -22 4 -44 11 -50 16 -26 20 -90 19 -135 -2 -25 -12 -47 -24 -50 -28
-17 -20 -103 -31 -265 -33 l-180 -2 -5 50 -5 50 -6 -48 c-4 -26 -9 -51 -12
-54 -3 -3 -261 -2 -572 2 l-567 8 5 21 c11 51 110 382 117 391 4 6 10 24 13
40 2 17 24 94 47 173 l43 143 161 -6 c89 -3 210 -8 271 -11z m5674 -292 c-5
-68 27 -87 37 -22 6 35 9 38 25 29 11 -5 19 -16 19 -24 0 -8 8 -15 19 -15 10
0 24 -7 31 -16 11 -13 10 -16 -9 -21 -21 -5 -20 -7 15 -24 22 -10 47 -18 56
-19 10 0 23 -9 30 -20 7 -11 21 -20 31 -20 21 0 52 -17 86 -47 14 -13 30 -23
36 -23 13 0 45 -36 45 -52 0 -6 -11 1 -25 16 -25 27 -73 51 -84 41 -3 -4 3
-12 14 -18 11 -6 33 -26 49 -44 34 -38 52 -42 61 -13 9 28 24 25 30 -7 8 -37
30 -75 41 -73 5 1 8 6 7 11 -2 5 4 9 12 9 10 0 15 -7 13 -17 -2 -14 3 -17 28
-15 19 2 36 -3 44 -12 10 -14 9 -16 -7 -16 -10 0 -24 5 -31 12 -15 15 -26 4
-19 -17 4 -8 16 -15 27 -15 11 0 19 -3 18 -8 -6 -16 40 -60 76 -73 34 -12 39
-12 51 4 7 10 19 15 28 11 14 -5 14 -10 2 -44 -12 -35 -12 -39 8 -58 28 -26
75 -44 97 -37 10 3 34 -4 54 -16 39 -23 49 -44 15 -34 -15 5 -20 3 -17 -6 3
-8 16 -15 29 -17 23 -3 56 -38 46 -48 -13 -13 -376 223 -377 244 0 7 -4 11 -9
7 -6 -3 -15 4 -21 15 -6 12 -17 19 -24 17 -12 -5 -46 15 -167 98 -24 16 -107
71 -184 122 -77 52 -164 110 -193 129 l-52 36 4 62 c5 73 3 66 22 66 12 0 15
-9 13 -38z m-6423 -49 l170 -6 -17 -56 c-9 -31 -34 -110 -54 -176 -20 -66 -40
-131 -44 -145 l-8 -25 -554 -2 c-305 -1 -560 0 -567 3 -9 2 -1 23 26 66 21 35
72 119 112 188 41 69 80 133 89 143 13 16 42 17 345 17 182 0 408 -3 502 -7z
m-1146 -434 c0 -14 -309 -522 -324 -532 -16 -11 -1286 -5 -1286 6 0 6 231 268
280 317 9 9 175 195 185 207 13 16 1145 18 1145 2z m1175 -10 c6 -7 -18 -88
-62 -214 -14 -38 -33 -101 -43 -140 -10 -38 -26 -94 -35 -122 l-16 -53 -644 0
c-355 0 -645 2 -645 5 0 10 292 503 311 524 10 11 109 13 570 10 306 -2 560
-7 564 -10z m1194 2 c14 -9 -11 -126 -33 -150 -10 -10 -32 -24 -49 -31 -18 -6
-51 -21 -75 -32 -24 -11 -57 -22 -75 -25 -18 -3 -35 -10 -39 -16 -4 -7 -8 -7
-8 -2 0 6 -6 3 -13 -5 -7 -9 -31 -22 -55 -30 -24 -7 -47 -21 -52 -29 -5 -9
-10 -12 -10 -8 0 11 -83 -38 -153 -90 -32 -24 -63 -41 -69 -37 -6 4 -8 3 -5
-3 4 -6 -1 -19 -11 -30 -14 -17 -35 -21 -122 -27 -189 -12 -520 -18 -520 -9 0
5 25 96 56 203 31 107 63 223 72 257 l15 63 166 3 c307 5 970 4 980 -2z m330
-7 c11 -11 -20 -25 -71 -34 -31 -5 -70 -16 -87 -24 -16 -9 -39 -16 -51 -16
-11 0 -20 -6 -20 -13 0 -18 -36 -51 -44 -39 -3 5 -8 39 -12 77 l-7 68 144 -7
c79 -4 146 -9 148 -12z m-3606 -544 c348 0 567 -4 567 -9 0 -6 -26 -50 -57
-99 -32 -49 -128 -207 -213 -350 -124 -207 -160 -261 -179 -265 -27 -5 -1483
3 -1490 9 -2 2 54 67 125 146 71 79 143 159 160 178 243 273 338 377 353 385
9 6 51 9 92 8 41 -1 329 -2 642 -3z m1915 -15 c2 -2 -3 -18 -11 -37 -7 -18
-19 -51 -26 -73 -7 -22 -16 -49 -20 -60 -5 -11 -17 -48 -27 -83 -11 -34 -22
-62 -25 -62 -4 0 -7 -10 -7 -22 0 -13 -10 -50 -22 -83 -25 -70 -48 -152 -61
-215 -5 -24 -15 -51 -23 -58 -11 -11 -151 -15 -760 -19 -410 -3 -746 -3 -746
0 0 3 38 67 84 143 46 77 143 240 216 363 l133 223 646 -7 c355 -4 648 -9 649
-10z m547 -4 c80 -6 86 -8 52 -15 -21 -5 -36 -11 -33 -14 3 -2 -6 -14 -20 -24
-19 -16 -22 -23 -14 -34 9 -10 3 -24 -24 -60 -20 -26 -36 -51 -36 -55 0 -5 -6
-9 -14 -9 -9 0 -12 -8 -8 -25 3 -17 0 -25 -10 -25 -18 0 -41 -47 -31 -62 4 -7
0 -9 -9 -5 -14 5 -15 1 -7 -25 5 -18 7 -34 4 -36 -8 -9 -35 20 -28 30 3 6 0 9
-8 6 -8 -3 -15 -12 -17 -21 -2 -12 1 -15 12 -11 23 9 20 -10 -5 -32 -15 -13
-19 -26 -15 -46 4 -19 0 -30 -12 -37 -9 -6 -13 -11 -9 -11 4 0 -1 -10 -13 -22
-11 -12 -20 -31 -20 -42 0 -32 -39 -66 -77 -66 -26 0 -33 -4 -33 -20 0 -16 -7
-20 -27 -20 -61 0 -180 -12 -207 -21 -37 -12 -86 -12 -86 1 0 5 4 19 9 32 5
13 15 44 22 71 8 26 17 47 21 47 4 0 6 8 6 18 -1 20 10 61 47 187 29 99 44
150 76 273 l22 82 201 -1 c111 -1 242 -4 291 -8z"/>
<path d="M7808 1756 c-52 -19 -131 -100 -123 -126 25 -78 293 -117 413 -59 55
27 66 63 30 94 -14 12 -31 31 -37 43 -27 50 -196 79 -283 48z"/>
<path d="M2740 1475 c-12 -13 -41 -37 -64 -52 -22 -15 -50 -37 -61 -49 -11
-12 -114 -100 -230 -194 -115 -95 -224 -185 -242 -201 -17 -15 -40 -32 -50
-37 -10 -6 -15 -14 -11 -18 10 -9 68 31 149 103 62 55 359 301 401 333 34 25
143 123 146 132 7 17 -16 7 -38 -17z"/>
<path d="M1495 1408 c-11 -6 -25 -14 -31 -17 -7 -3 -43 -28 -80 -54 -38 -27
-141 -95 -229 -153 -88 -58 -225 -148 -303 -200 l-144 -94 -329 6 -329 6 0
-36 c0 -29 3 -34 17 -29 10 3 24 11 32 17 8 6 37 10 65 8 28 -2 63 1 79 7 20
8 27 8 27 -2 0 -7 9 -20 19 -29 16 -13 27 -14 61 -7 23 5 50 7 60 4 10 -3 21
-1 25 5 3 5 -1 10 -9 10 -9 0 -16 4 -16 9 0 10 118 27 126 18 5 -4 -5 -16 -39
-43 -29 -24 -74 -42 -122 -50 -28 -4 -69 -15 -92 -25 -22 -9 -62 -21 -87 -24
-46 -7 -47 -6 -50 28 -2 19 -18 27 -58 27 l-38 0 0 -191 c0 -149 3 -189 13
-183 8 6 8 3 -1 -9 -38 -46 8 -24 153 74 88 59 183 122 210 139 28 17 104 69
170 115 66 46 145 99 175 117 52 31 53 33 28 36 -16 2 -28 9 -28 15 0 7 160
118 356 247 338 223 405 270 394 269 -3 0 -14 -5 -25 -11z"/>
</g>
</svg>
