<?xml version="1.0" standalone="no"?>
<!DOCTYPE svg PUBLIC "-//W3C//DTD SVG 20010904//EN"
 "http://www.w3.org/TR/2001/REC-SVG-20010904/DTD/svg10.dtd">
<svg version="1.0" xmlns="http://www.w3.org/2000/svg"
 width="771.000000pt" height="1074.000000pt" viewBox="0 0 771.000000 1074.000000"
 preserveAspectRatio="xMidYMid meet">
<metadata>
Created by potrace 1.16, written by Peter Selinger 2001-2019
</metadata>
<g transform="translate(0.000000,1074.000000) scale(0.100000,-0.100000)"
fill="#000000" stroke="none">
<path d="M40 7724 c0 -1809 4 -3013 9 -3010 5 4 53 71 108 151 54 80 113 166
131 192 18 27 44 68 57 93 12 25 32 54 44 64 22 20 111 166 111 183 0 5 20 28
45 51 25 22 45 46 45 52 0 6 26 45 57 86 32 42 62 84 68 95 13 26 25 24 25 -3
-1 -38 -34 -100 -91 -168 -30 -36 -62 -81 -72 -100 -26 -51 -58 -101 -95 -147
-17 -23 -40 -59 -50 -81 -10 -22 -37 -59 -59 -81 -22 -23 -44 -52 -47 -66 -7
-26 -91 -161 -158 -252 -21 -29 -38 -58 -38 -65 0 -8 -13 -30 -29 -49 -17 -20
-31 -47 -33 -61 -2 -14 -9 -32 -16 -41 -9 -11 -12 -90 -10 -323 l3 -308 54 85
c30 46 61 95 69 109 9 13 19 29 24 35 5 5 30 46 55 90 25 44 56 96 68 115 37
58 171 282 189 318 10 19 15 41 11 49 -3 9 3 24 14 35 11 10 25 37 32 61 6 24
28 61 51 85 22 24 49 63 59 87 11 24 24 47 30 50 20 13 92 137 102 176 7 26
49 82 104 136 18 17 34 40 36 50 3 19 45 94 58 103 12 9 89 124 89 134 0 5 11
23 24 40 12 17 38 63 56 101 18 39 39 84 47 100 7 17 32 53 53 80 22 28 40 56
40 63 0 14 1 17 93 158 36 56 70 105 77 109 6 4 22 24 36 46 13 21 29 39 34
39 17 0 11 -46 -9 -69 -11 -13 -23 -35 -26 -51 -3 -15 -15 -36 -26 -46 -11
-10 -19 -30 -19 -50 0 -25 -6 -37 -27 -49 -32 -19 -103 -133 -103 -164 0 -12
-12 -32 -27 -45 -16 -14 -35 -40 -44 -58 -47 -96 -69 -144 -69 -151 0 -4 -19
-33 -41 -64 -23 -31 -46 -74 -51 -96 -5 -25 -24 -58 -48 -83 -21 -23 -43 -59
-49 -81 -6 -21 -20 -53 -31 -71 -33 -54 -2 -70 48 -24 25 22 52 29 52 14 0 -4
-9 -14 -20 -22 -23 -17 -27 -32 -5 -24 8 4 15 2 15 -4 0 -6 -5 -12 -10 -14 -6
-2 -13 -17 -15 -33 -5 -42 -5 -42 -15 -20 -8 18 -9 17 -9 -8 -1 -15 -8 -30
-16 -33 -8 -4 -15 -17 -15 -30 0 -18 -6 -24 -22 -24 -21 -1 -22 -2 -5 -14 9
-7 17 -16 17 -20 0 -10 -54 6 -62 18 -13 20 -20 -2 -7 -26 11 -21 11 -22 -5
-9 -16 13 -17 12 -11 -12 5 -20 3 -28 -9 -33 -13 -5 -14 -9 -5 -20 6 -8 9 -21
5 -29 -3 -8 -1 -15 5 -15 6 0 9 -6 6 -12 -2 -7 -9 -12 -14 -11 -4 1 -8 -20 -7
-45 1 -26 0 -39 -3 -29 -5 20 -25 18 -31 -4 -3 -11 -2 -11 7 1 10 13 11 13 11
0 0 -20 -39 -45 -64 -41 -18 3 -18 1 2 -34 21 -34 32 -66 13 -36 -6 9 -15 11
-27 6 -11 -5 -22 -8 -26 -7 -4 1 -5 -5 -2 -13 5 -11 2 -13 -10 -9 -12 5 -15 2
-10 -10 3 -9 1 -16 -5 -16 -6 0 -11 6 -11 13 0 8 -3 8 -9 -2 -5 -8 -7 -20 -5
-26 3 -7 -12 -19 -33 -28 -35 -14 -36 -16 -15 -22 12 -4 22 -14 22 -22 0 -8
-4 -12 -9 -8 -18 11 -23 -16 -6 -35 9 -10 14 -23 10 -29 -3 -6 -1 -19 4 -28 6
-10 11 -14 11 -9 0 16 40 -32 40 -49 0 -8 5 -15 12 -15 6 0 19 -7 29 -16 13
-12 28 -15 54 -10 29 6 37 12 42 37 3 19 12 29 23 29 13 0 17 6 13 20 -4 15 2
22 23 30 23 9 25 13 14 20 -8 6 -10 10 -4 10 7 0 15 16 18 35 4 21 13 35 21
35 17 0 19 -23 5 -51 -8 -15 -7 -19 4 -19 18 0 52 46 61 82 4 14 17 31 30 38
13 7 52 55 87 107 59 89 90 118 159 149 14 6 35 25 46 40 18 26 223 439 223
450 0 2 27 61 60 130 33 69 60 129 60 135 0 24 -33 4 -86 -54 -78 -83 -121
-117 -139 -111 -9 4 -15 0 -15 -7 -1 -19 -56 -90 -64 -82 -3 3 -6 21 -6 38 0
27 -5 35 -32 46 -18 8 -36 13 -40 11 -5 -1 -8 3 -8 8 0 20 -19 10 -23 -12 -4
-20 -4 -20 -6 4 0 15 -9 32 -19 38 -16 11 -16 11 1 6 20 -6 23 9 3 17 -7 3
-23 -6 -35 -21 -11 -14 -21 -21 -21 -14 0 6 -6 9 -13 6 -10 -3 -14 6 -15 32
-1 29 5 42 29 65 17 16 36 49 44 77 8 27 24 57 34 67 11 9 28 40 37 68 9 29
27 60 40 69 12 10 26 33 30 51 3 17 24 50 46 72 21 22 41 50 44 62 3 12 12 24
19 27 7 2 16 18 20 35 4 17 11 31 16 31 5 0 9 6 9 14 0 8 16 33 35 56 19 23
35 48 35 54 0 20 69 151 92 176 23 24 63 99 72 134 3 11 21 44 39 72 19 28 37
63 41 78 3 14 11 26 16 26 5 0 17 17 25 37 9 21 24 47 34 58 10 11 36 52 57
90 21 39 55 97 76 130 90 145 120 202 125 235 10 63 154 270 188 270 7 0 18 7
25 15 16 19 33 9 21 -12 -11 -20 5 -69 25 -77 8 -3 14 -10 14 -16 0 -21 -39
-96 -59 -114 -12 -11 -21 -31 -21 -45 0 -18 -11 -36 -35 -55 -23 -20 -35 -38
-35 -55 0 -30 -22 -97 -36 -111 -5 -5 -19 -1 -34 10 -14 11 -19 20 -11 20 10
0 11 3 2 14 -6 8 -10 20 -9 27 4 18 -33 24 -43 7 -14 -22 -10 -58 6 -58 8 0
15 -5 15 -11 0 -5 5 -7 10 -4 5 3 10 1 10 -5 0 -7 7 -9 18 -5 14 5 15 4 5 -6
-15 -15 -17 -33 -3 -24 17 10 11 -45 -7 -76 -10 -16 -23 -29 -30 -29 -7 0 -13
-6 -13 -13 0 -7 -12 -20 -26 -28 -18 -11 -28 -26 -29 -47 -1 -17 -12 -50 -24
-74 -11 -25 -21 -58 -21 -75 0 -20 -10 -41 -33 -64 -40 -41 -77 -101 -77 -123
0 -9 -5 -16 -11 -16 -5 0 -8 -4 -5 -9 4 -5 1 -11 -5 -13 -8 -3 -6 -10 5 -21
10 -9 13 -17 7 -17 -6 0 -11 -4 -11 -10 0 -5 -24 -54 -54 -108 -29 -54 -57
-109 -61 -122 -4 -14 -23 -47 -41 -73 -19 -27 -34 -54 -34 -59 0 -5 -13 -28
-29 -51 -31 -44 -48 -101 -34 -110 14 -9 29 6 52 51 31 61 94 127 145 151 48
22 64 45 121 172 21 46 46 94 55 106 9 12 25 43 35 70 10 26 23 55 30 63 7 8
16 25 19 38 12 37 -26 27 -61 -15 -36 -45 -103 -85 -122 -74 -9 6 2 26 43 74
31 36 56 69 56 74 0 4 11 16 24 26 16 13 22 25 18 42 -3 17 4 31 22 48 14 13
26 33 26 43 0 36 47 88 111 124 33 18 89 66 89 75 0 16 92 190 115 217 14 16
25 34 25 39 0 15 -47 10 -60 -7 -32 -38 -82 -41 -73 -4 3 11 21 31 40 46 32
24 35 30 29 63 -5 31 -2 38 19 48 23 10 24 9 19 -12 -4 -18 -1 -25 15 -30 21
-6 47 -42 38 -52 -3 -2 -1 -18 5 -34 9 -25 6 -35 -16 -69 -14 -21 -28 -51 -32
-67 -4 -15 -15 -45 -25 -65 -11 -21 -19 -48 -19 -62 0 -14 -5 -28 -10 -31 -6
-4 -9 -20 -6 -35 3 -20 -4 -42 -23 -72 -15 -24 -33 -59 -39 -78 -7 -19 -22
-44 -33 -56 -12 -12 -22 -38 -24 -58 -3 -34 2 -40 30 -37 6 0 16 -12 22 -28 9
-25 8 -33 -9 -51 -19 -20 -19 -29 -3 -75 5 -16 5 -17 -4 -5 -9 13 -11 13 -11
-2 0 -10 4 -18 9 -18 4 0 9 -27 9 -60 1 -55 -1 -60 -21 -60 -30 -1 -54 -21
-51 -42 1 -10 -5 -22 -14 -28 -10 -5 -12 -10 -4 -10 17 0 15 -20 -3 -20 -8 0
-15 -4 -15 -9 0 -5 -18 -28 -40 -50 -22 -22 -40 -49 -40 -59 0 -11 -7 -25 -16
-32 -19 -16 -34 -44 -40 -73 -2 -12 -8 -23 -14 -25 -5 -2 -10 -10 -10 -18 0
-9 4 -13 8 -10 4 2 7 -8 6 -22 -1 -18 -7 -27 -17 -26 -9 1 -13 -4 -10 -12 3
-8 9 -14 14 -14 5 0 8 -3 8 -7 -4 -22 3 -34 21 -41 l20 -7 -20 -18 c-19 -16
-20 -16 -20 3 0 11 -7 20 -16 20 -8 0 -12 -5 -9 -11 10 -15 -4 -61 -15 -54 -6
3 -10 -1 -10 -10 0 -9 4 -14 8 -11 5 3 9 -1 9 -9 0 -8 -4 -12 -9 -9 -4 3 -9
-1 -10 -8 0 -7 -2 -17 -3 -23 -2 -5 -3 -16 -4 -22 0 -7 -8 -13 -16 -13 -19 0
-21 -60 -3 -78 9 -9 8 -12 -4 -12 -9 0 -19 6 -21 13 -3 7 -6 5 -6 -5 -1 -10 4
-18 9 -18 6 0 10 -7 10 -15 0 -8 9 -15 20 -15 11 0 20 -6 20 -12 0 -24 -16
-38 -37 -34 -15 3 -20 -1 -20 -17 -1 -38 -15 -70 -24 -56 -6 10 -10 7 -17 -11
-7 -17 -6 -30 2 -39 9 -12 8 -13 -6 -8 -12 4 -18 1 -18 -9 0 -8 5 -12 10 -9 5
3 10 3 11 -2 0 -4 2 -15 4 -24 2 -13 -5 -16 -36 -14 -23 1 -36 -2 -33 -7 4 -6
3 -13 -2 -17 -5 -3 -15 -19 -22 -34 -11 -26 -10 -29 8 -34 11 -3 20 -10 20
-15 0 -6 -9 -8 -20 -5 -13 3 -18 1 -13 -6 4 -7 0 -8 -11 -4 -9 4 -15 3 -12 -2
3 -5 -1 -11 -9 -15 -8 -3 -15 -13 -15 -23 0 -15 2 -16 10 -3 7 10 10 11 10 2
0 -7 -6 -15 -14 -18 -22 -9 -14 -44 26 -114 4 -8 13 -28 19 -43 9 -22 14 -25
20 -15 6 9 9 7 9 -8 0 -12 6 -24 14 -27 16 -6 27 -55 14 -63 -5 -3 -7 -12 -4
-20 3 -8 0 -17 -8 -20 -14 -5 -10 -54 5 -54 5 0 19 18 31 40 13 21 33 44 46
49 12 6 25 19 29 28 4 10 17 34 29 53 12 19 25 53 29 75 3 22 21 70 40 107 18
36 31 69 28 72 -4 3 -1 6 6 6 7 0 9 5 6 10 -3 6 -1 10 5 10 7 0 10 7 6 15 -3
9 0 15 10 15 12 0 15 6 10 25 -8 30 10 105 24 105 6 0 10 7 10 16 0 10 6 14
14 11 10 -4 14 5 14 34 1 22 6 46 11 53 6 7 8 16 4 19 -3 4 -1 7 5 7 7 0 18
15 26 33 l14 32 1 -46 c1 -65 38 -77 56 -19 4 14 29 50 54 80 26 30 64 81 85
113 20 31 43 57 51 57 8 0 20 8 27 18 7 10 21 21 31 25 15 5 17 2 13 -28 -4
-31 -3 -33 17 -26 16 6 22 17 23 44 1 34 30 86 47 87 19 0 -20 -235 -56 -335
-8 -22 -17 -64 -21 -93 -3 -28 -13 -71 -22 -95 -22 -58 -28 -103 -15 -111 20
-13 51 5 57 32 12 54 49 132 61 127 25 -9 73 94 73 157 0 17 -7 27 -20 31 -32
8 -24 41 21 89 61 64 66 76 79 163 6 44 22 101 36 126 13 26 24 57 24 69 0 12
7 43 15 69 16 52 65 241 90 346 9 39 21 86 26 106 12 47 12 89 -1 89 -16 0
-12 19 8 40 10 11 26 57 36 102 10 46 24 103 31 128 7 25 16 61 19 81 4 19 17
51 31 69 14 19 25 47 25 63 0 28 50 230 70 283 6 14 10 39 10 55 0 16 9 38 20
49 11 11 20 33 20 50 0 34 15 101 40 180 10 30 28 90 41 133 25 83 38 93 77
57 l22 -21 11 25 c9 20 9 29 -1 41 -18 21 -6 41 27 48 36 7 53 -8 53 -44 0
-16 5 -29 12 -29 6 0 8 3 5 7 -4 3 -2 11 3 18 5 6 11 20 13 31 2 10 7 26 10
34 34 84 47 147 47 230 0 57 5 104 15 126 8 20 20 75 26 122 7 48 19 119 28
157 l16 70 40 0 c53 1 78 -24 70 -69 -4 -20 0 -53 11 -85 13 -42 15 -60 7 -85
-18 -50 -27 -108 -24 -147 1 -20 -2 -40 -8 -43 -5 -4 -8 -13 -5 -20 3 -8 1
-38 -4 -67 -6 -32 -7 -58 -1 -65 5 -6 6 -14 2 -17 -3 -4 -7 -55 -9 -114 -1
-60 -3 -112 -4 -118 -1 -5 -1 -12 0 -15 1 -3 4 -52 6 -109 2 -58 8 -109 14
-115 5 -5 10 -21 10 -35 0 -15 4 -30 8 -36 12 -16 43 -39 40 -29 -2 5 2 10 7
12 6 2 11 -4 13 -12 2 -8 -6 -16 -18 -18 -20 -3 -20 -4 5 -40 25 -37 32 -72
17 -82 -15 -9 -13 -69 4 -87 15 -17 15 -23 4 -47 -8 -16 -15 -72 -17 -136 -1
-60 -4 -111 -6 -113 -2 -1 -13 6 -25 17 -27 26 -27 26 -42 -10 -16 -39 -24
-33 -10 6 6 16 11 75 11 132 -1 84 2 102 14 102 22 0 18 17 -5 23 -17 4 -20
11 -15 36 3 17 0 33 -7 37 -7 5 -9 2 -6 -8 4 -8 -2 -22 -13 -31 -12 -11 -19
-30 -19 -53 0 -38 -26 -104 -41 -104 -8 0 -13 30 -12 68 1 6 -9 12 -21 12 -15
0 -17 -3 -8 -9 10 -6 7 -10 -12 -13 -18 -4 -26 -1 -26 8 0 8 -11 14 -25 14
-14 0 -28 7 -31 15 -12 31 -34 16 -34 -24 0 -28 -6 -42 -21 -52 -17 -12 -21
-24 -21 -74 0 -33 -6 -78 -13 -100 -8 -22 -19 -83 -24 -135 -5 -52 -13 -106
-16 -120 -13 -45 -18 -170 -7 -170 5 0 13 11 16 25 4 14 10 25 15 25 5 0 11
-11 13 -25 3 -14 1 -25 -4 -25 -6 0 -7 -14 -3 -31 4 -17 3 -29 -1 -26 -5 3
-10 -9 -11 -26 0 -18 1 -26 4 -19 2 6 9 12 14 12 6 0 7 -5 4 -10 -3 -6 1 -13
9 -16 20 -8 21 -24 1 -24 -19 0 -19 -18 0 -63 9 -23 11 -38 5 -42 -6 -3 -10
-11 -10 -16 0 -6 5 -7 10 -4 6 3 13 -1 16 -10 6 -13 9 -14 16 -3 6 9 8 3 6
-18 -4 -27 -1 -31 16 -30 19 2 21 -2 18 -36 -2 -21 -8 -38 -13 -38 -5 0 -7
-11 -3 -25 4 -16 2 -25 -6 -25 -8 0 -9 -10 -5 -30 5 -23 3 -30 -9 -30 -9 0
-16 -7 -16 -17 0 -14 2 -14 21 3 20 18 21 18 35 -1 14 -19 16 -19 25 -2 15 26
31 21 27 -10 -2 -14 -15 -39 -30 -54 -26 -26 -27 -29 -13 -56 19 -35 19 -72 1
-79 -13 -5 -14 -43 -2 -63 7 -11 -13 -61 -25 -61 -4 0 -11 5 -14 10 -12 19
-45 11 -45 -11 0 -23 25 -53 38 -45 12 7 52 -31 52 -49 0 -8 -4 -15 -8 -15 -5
0 -9 -33 -10 -72 -1 -40 -5 -133 -9 -206 -8 -126 -9 -134 -33 -152 -24 -18
-24 -18 -5 -40 17 -19 20 -35 18 -114 -2 -152 -12 -326 -18 -336 -7 -12 -27
-312 -29 -441 -1 -66 -5 -101 -15 -113 -12 -14 -12 -21 -1 -41 8 -15 10 -39 6
-63 -3 -21 -8 -115 -11 -208 -3 -93 -11 -203 -17 -244 -6 -41 -11 -91 -13
-110 -1 -19 -7 -50 -14 -68 -11 -26 -16 -30 -27 -21 -8 6 -14 18 -14 26 0 28
-18 2 -22 -32 -4 -33 -3 -34 23 -30 27 5 27 5 34 -68 5 -48 2 -97 -8 -148 -9
-49 -11 -83 -5 -100 6 -15 6 -37 -1 -59 -6 -19 -13 -82 -16 -140 -2 -58 -9
-134 -15 -170 -5 -36 -12 -174 -15 -308 -3 -134 -10 -255 -16 -269 -5 -15 -12
-119 -15 -232 -2 -113 -9 -249 -14 -301 -5 -52 -15 -189 -21 -305 -6 -115 -14
-214 -19 -220 -5 -5 -8 -46 -8 -90 0 -65 -4 -87 -22 -117 l-22 -38 22 -34 c18
-31 20 -40 10 -76 -6 -22 -8 -55 -5 -74 5 -22 1 -44 -9 -63 -10 -21 -13 -46
-9 -84 l5 -55 -41 -19 c-41 -20 -52 -39 -28 -49 18 -8 -21 -29 -63 -33 -24 -3
-38 1 -46 12 -11 15 -14 15 -34 -5 -12 -12 -19 -25 -15 -28 4 -4 11 1 16 11
16 29 26 19 32 -30 3 -26 10 -49 16 -51 6 -2 9 -8 6 -12 -10 -16 13 -20 25 -5
7 8 25 15 41 15 15 0 31 5 35 11 4 7 12 -1 20 -21 20 -46 18 -59 -11 -72 -27
-12 -60 -1 -99 34 -14 13 -21 14 -32 5 -40 -36 -46 -39 -53 -29 -10 17 -61 19
-61 3 0 -5 18 -12 40 -16 22 -4 40 -11 40 -15 0 -5 10 -18 21 -29 12 -11 19
-26 16 -34 -8 -20 -111 -12 -162 13 -21 11 -42 15 -45 11 -15 -26 -109 -20
-155 9 -5 3 -20 5 -32 4 -13 -1 -33 -2 -44 -3 -20 -1 -20 -2 -6 -24 8 -12 21
-20 29 -19 7 2 32 6 56 9 37 4 48 1 70 -20 25 -24 71 -39 116 -38 26 0 58 -18
51 -29 -3 -6 0 -7 8 -4 8 3 21 -2 30 -10 13 -13 43 -16 161 -16 l146 0 1 98
c0 53 2 106 4 117 3 11 9 114 15 230 5 116 14 266 20 335 6 69 12 193 15 275
5 149 11 252 19 310 5 31 10 107 27 410 5 99 11 209 13 245 3 36 7 148 11 250
4 102 11 195 16 207 5 12 11 69 14 125 3 57 10 150 15 208 5 58 14 209 20 335
6 127 18 284 25 350 7 66 14 161 14 210 1 99 11 277 16 285 2 3 6 59 10 125 8
156 35 507 39 514 2 3 7 80 10 171 4 91 11 192 16 225 10 68 18 202 25 449 4
110 10 175 18 184 8 10 12 70 13 191 1 177 6 210 48 306 10 22 13 78 11 205
-3 206 -2 200 -15 200 -5 0 -10 -13 -10 -30 0 -16 -4 -30 -9 -30 -5 0 -7 -9
-4 -20 3 -11 10 -20 16 -20 6 0 7 -3 3 -7 -8 -8 -13 -9 -41 -12 -8 0 -15 -9
-16 -18 0 -15 -2 -15 -8 2 -5 11 -4 25 1 32 5 7 5 14 -2 18 -5 3 -10 -1 -10
-9 0 -9 -4 -16 -9 -16 -5 0 -11 -8 -13 -17 -2 -11 -9 0 -18 26 -11 34 -12 45
-2 49 15 5 16 22 1 22 -6 0 -17 -7 -26 -15 -20 -21 -26 -14 -17 20 5 20 9 23
15 13 7 -10 9 -9 9 5 0 9 4 17 9 17 5 0 12 14 16 30 9 39 26 29 18 -10 -3 -19
-1 -30 6 -30 6 0 11 -7 11 -15 0 -8 8 -15 18 -15 10 0 24 -6 31 -12 8 -7 11
-8 8 -2 -3 6 0 23 8 38 8 14 12 33 8 41 -3 8 0 15 6 15 6 0 11 -11 11 -25 0
-14 5 -25 11 -25 8 0 9 11 5 32 -4 20 -1 39 9 55 19 28 10 77 -12 69 -8 -3
-12 -2 -8 3 3 5 -1 12 -7 15 -7 4 -4 5 7 3 18 -4 21 2 23 57 2 34 10 75 18 91
8 17 16 49 18 71 2 23 6 46 10 53 4 6 2 11 -3 11 -6 0 -11 7 -11 15 0 23 29 6
36 -21 3 -13 11 -24 17 -24 6 0 7 -3 4 -7 -4 -3 -2 -12 4 -20 6 -7 8 -13 4
-13 -4 0 -2 -7 5 -15 7 -9 10 -25 5 -42 l-7 -28 -17 22 c-12 15 -22 18 -32 12
-11 -7 -11 -9 3 -9 10 0 17 -3 17 -7 -4 -24 2 -35 18 -29 9 4 20 2 23 -5 10
-15 -8 -90 -26 -110 -19 -21 -18 -49 2 -49 10 0 14 6 11 14 -4 10 4 14 31 14
29 0 41 6 57 28 11 15 29 34 40 43 48 39 89 90 112 138 46 99 77 98 86 -3 4
-37 12 -72 18 -78 8 -8 10 14 7 84 -6 114 8 155 48 147 19 -3 29 2 41 20 17
26 111 79 121 68 15 -14 63 -335 67 -444 2 -69 5 -77 31 -98 16 -13 32 -23 35
-23 3 0 12 17 19 39 12 37 13 38 42 27 23 -9 31 -8 38 4 5 8 7 22 5 31 -5 13
4 17 46 21 31 3 57 12 64 21 10 14 33 21 62 18 7 0 17 -9 22 -19 11 -21 3 -65
-10 -56 -5 3 -9 -2 -9 -10 0 -9 -5 -16 -10 -16 -7 0 -7 -6 0 -19 11 -22 14
-82 2 -65 -4 6 -15 13 -25 17 -20 8 -14 27 9 27 11 0 10 5 -5 21 l-20 21 -33
-23 c-18 -13 -34 -27 -36 -31 -2 -4 -10 -8 -18 -8 -8 0 -14 -7 -14 -16 0 -11
-6 -15 -19 -11 -11 3 -29 -2 -41 -10 -13 -9 -31 -12 -50 -8 -25 6 -30 3 -36
-19 -6 -26 -2 -77 12 -129 6 -26 -3 -74 -27 -134 -5 -13 -17 -23 -26 -23 -10
0 -38 -14 -63 -30 -25 -16 -53 -30 -62 -30 -9 0 -20 -4 -23 -10 -3 -5 -14 -10
-24 -10 -10 0 -32 -15 -49 -34 -16 -18 -61 -49 -97 -67 -37 -19 -75 -45 -83
-59 -22 -34 -156 -179 -196 -212 -45 -37 -59 -24 -34 32 23 50 24 68 10 124
-13 48 -33 69 -56 60 -14 -6 -16 -14 -10 -48 4 -22 7 -50 6 -61 -9 -123 -35
-1130 -47 -1780 -3 -170 -8 -355 -11 -410 -10 -187 -15 -300 -18 -475 -2 -96
-7 -256 -11 -355 -4 -99 -9 -362 -10 -585 -4 -451 -9 -638 -20 -690 -4 -19 -7
-52 -8 -72 -2 -25 -11 -46 -31 -67 -28 -29 -29 -35 -37 -163 -4 -73 -8 -230
-8 -348 -1 -118 -6 -309 -11 -425 -6 -116 -11 -283 -13 -373 l-2 -162 1466 0
1467 0 4 25 c3 13 1 22 -4 19 -17 -11 -40 66 -32 110 4 22 8 46 9 51 2 17 -26
69 -46 85 -10 8 -23 35 -28 60 -5 25 -16 70 -25 100 -9 30 -26 98 -37 150 -11
52 -27 114 -35 138 -8 23 -14 56 -14 72 0 17 -4 38 -10 48 -9 16 -50 168 -91
337 -10 44 -28 114 -38 155 -11 41 -29 120 -41 175 -12 55 -42 183 -67 285
-70 288 -82 340 -97 421 -23 120 -107 233 -129 175 -8 -20 -115 -69 -150 -69
-38 0 -73 36 -81 84 -11 68 -26 44 -26 -41 0 -87 -13 -108 -49 -76 -16 15 -17
14 -13 -12 3 -25 -2 -30 -45 -52 -30 -16 -65 -25 -94 -25 -42 0 -48 -3 -57
-28 -14 -36 -36 -31 -40 9 -2 16 -10 44 -18 62 -8 18 -13 41 -9 51 3 10 -2 35
-11 56 -9 23 -14 53 -11 71 3 18 -1 53 -8 77 -7 25 -12 47 -9 49 2 3 -3 42
-11 89 -8 46 -15 112 -15 145 0 44 -5 65 -16 75 -12 10 -15 27 -12 76 2 35 0
63 -4 63 -4 0 -7 11 -6 25 3 34 22 26 26 -11 2 -16 11 -39 20 -52 l18 -23 57
18 c31 9 57 20 57 23 0 3 -21 14 -46 25 -47 21 -114 91 -145 151 -13 26 -15
43 -8 76 19 99 4 192 -38 234 -25 25 -29 54 -12 86 6 11 11 59 10 105 -1 78
-3 87 -26 105 -19 15 -25 29 -25 59 0 21 3 39 8 39 4 0 15 7 26 15 17 13 17
14 -3 36 -24 26 -26 35 -9 46 19 11 39 13 32 2 -7 -11 36 -12 54 0 20 12 19
16 -2 40 -19 21 -19 21 10 22 25 0 26 2 9 9 -19 8 -19 9 3 9 12 1 22 -4 22
-11 0 -6 3 -8 7 -4 4 3 12 -8 17 -26 9 -28 17 -34 45 -36 23 -2 43 3 63 18 17
13 48 23 71 24 23 2 43 8 43 14 1 7 2 17 3 22 0 6 14 10 30 10 33 0 51 31 32
54 -6 7 -12 35 -14 62 -4 46 -36 128 -37 94 0 -12 -2 -13 -9 -1 -5 8 -5 27 0
43 5 18 4 40 -2 56 -16 40 -32 140 -33 202 -1 32 -8 66 -18 80 -8 14 -18 54
-22 89 -3 35 -10 69 -15 75 -5 6 -14 38 -21 71 -17 83 -34 162 -64 286 -14 59
-26 115 -26 124 0 10 -7 38 -15 64 -16 51 -31 113 -70 276 -14 61 -33 135 -41
165 -8 30 -26 105 -39 165 -13 61 -31 132 -39 159 -9 27 -16 63 -16 80 0 17
-7 53 -15 80 -21 70 -20 94 6 92 23 -1 27 -6 57 -76 22 -50 37 -103 57 -200
18 -90 30 -125 55 -159 16 -23 19 -38 14 -70 -5 -28 -2 -46 10 -62 9 -13 16
-36 16 -51 0 -15 11 -56 24 -90 12 -35 31 -97 41 -138 10 -41 23 -84 30 -95 7
-11 15 -46 19 -78 3 -32 15 -75 25 -95 10 -20 33 -98 51 -172 18 -74 41 -162
51 -196 11 -33 19 -68 19 -78 0 -10 6 -30 14 -44 25 -48 46 -112 46 -143 0
-17 9 -42 20 -56 13 -16 20 -41 20 -67 0 -23 5 -57 11 -76 6 -19 12 -57 14
-83 1 -27 6 -52 12 -55 19 -13 30 -47 37 -116 5 -46 17 -90 36 -130 17 -33 30
-73 30 -87 0 -15 7 -46 15 -69 8 -23 15 -59 15 -79 0 -20 6 -48 13 -62 8 -14
17 -44 21 -68 3 -23 14 -54 23 -68 9 -14 18 -43 19 -64 1 -21 16 -96 33 -166
84 -344 111 -462 111 -478 0 -9 7 -29 15 -43 13 -24 37 -126 82 -337 8 -38 21
-90 29 -115 8 -25 14 -55 14 -68 0 -12 9 -40 20 -62 11 -22 20 -52 20 -68 0
-16 6 -47 14 -68 7 -22 17 -64 21 -94 4 -30 13 -69 20 -85 6 -17 15 -53 19
-80 4 -28 18 -97 31 -155 13 -58 34 -150 46 -205 12 -55 27 -113 34 -130 25
-59 54 -141 65 -185 7 -25 16 -52 20 -61 4 -9 11 -42 15 -75 5 -32 14 -76 21
-98 8 -21 14 -55 14 -76 0 -21 7 -55 16 -76 20 -47 103 -359 114 -429 4 -27
18 -86 30 -130 22 -81 48 -187 57 -237 l5 -28 87 0 87 0 -6 48 c-3 26 -14 61
-23 79 -32 60 -60 147 -67 208 -4 33 -17 85 -28 115 -25 67 -33 135 -18 151 8
9 7 10 -5 6 -14 -4 -18 3 -24 40 -3 25 -15 59 -26 77 -13 21 -19 49 -19 88 0
31 -4 59 -9 62 -10 6 -54 129 -72 201 -6 28 -18 57 -25 65 -6 8 -15 37 -19 65
-3 27 -10 54 -15 60 -5 6 -12 43 -16 81 -4 38 -11 72 -16 75 -5 3 -22 66 -38
140 -16 74 -35 154 -44 178 -9 24 -16 55 -16 70 0 14 -9 44 -19 66 -21 47 -44
136 -44 173 0 15 -5 36 -12 47 -7 11 -16 47 -19 80 -4 34 -14 67 -24 78 -11
13 -17 38 -18 76 -3 112 -34 236 -71 282 -7 8 -13 30 -13 48 0 17 -6 44 -14
59 -7 15 -16 43 -20 63 -4 21 -16 49 -27 64 -14 17 -24 49 -29 95 -4 37 -10
73 -14 78 -4 6 -9 34 -12 63 -3 29 -9 60 -14 70 -6 10 -10 27 -10 39 0 12 -11
45 -24 73 -35 73 -76 228 -86 324 -5 47 -17 97 -29 119 -12 22 -18 47 -15 60
3 13 -1 37 -10 55 -9 18 -16 46 -16 64 0 17 -4 35 -9 41 -14 13 -51 125 -51
151 0 12 -9 37 -19 55 -11 18 -23 58 -27 88 -6 55 -29 142 -43 170 -5 8 -6 30
-3 48 3 24 -2 42 -17 62 -11 16 -21 40 -21 52 0 13 -9 40 -20 61 -11 20 -20
46 -20 57 0 11 -13 59 -29 107 -16 49 -32 106 -36 128 -4 22 -14 52 -21 67 -8
14 -17 59 -20 98 -5 54 -11 73 -25 81 -10 5 -16 16 -13 23 3 8 1 17 -5 21 -6
3 -11 20 -11 36 0 16 -7 46 -16 67 -9 20 -20 55 -24 77 -13 69 -40 157 -66
219 -14 34 -30 79 -34 101 -5 22 -16 72 -25 110 -9 39 -18 78 -19 87 -1 10 -5
21 -9 24 -4 4 -7 25 -7 47 0 24 -7 48 -17 59 -10 11 -18 38 -18 64 -1 25 -6
49 -11 52 -11 8 -73 196 -77 231 -4 49 21 31 38 -26 17 -57 21 -70 44 -126 6
-15 11 -38 11 -50 0 -13 4 -27 9 -32 4 -6 14 -32 21 -60 7 -27 17 -55 21 -61
5 -5 11 -26 13 -45 8 -52 11 -60 33 -109 27 -59 49 -130 63 -205 7 -33 17 -71
24 -85 7 -14 18 -43 24 -65 6 -22 32 -106 57 -186 25 -80 45 -155 45 -167 0
-12 5 -22 10 -22 6 0 10 -7 10 -15 0 -8 11 -47 23 -87 13 -40 30 -98 37 -128
7 -30 21 -72 31 -92 11 -21 19 -48 19 -62 0 -14 4 -27 10 -31 5 -3 7 -12 3
-20 -3 -9 2 -26 11 -40 9 -13 16 -32 16 -42 1 -10 8 -36 16 -58 20 -53 50
-160 59 -210 4 -22 10 -44 15 -50 13 -16 50 -145 50 -174 0 -15 7 -36 15 -47
8 -10 15 -27 15 -37 0 -20 34 -131 56 -185 8 -18 14 -40 14 -48 0 -9 6 -30 14
-47 33 -79 56 -149 76 -242 22 -96 42 -170 74 -265 8 -25 22 -67 30 -95 8 -27
27 -84 41 -125 15 -41 33 -102 40 -135 8 -33 18 -73 24 -90 5 -16 14 -48 20
-70 22 -86 54 -213 66 -265 7 -30 19 -77 28 -105 39 -124 66 -224 71 -265 4
-25 13 -57 20 -72 8 -14 24 -61 36 -105 12 -43 28 -98 36 -123 7 -25 24 -90
37 -145 13 -55 41 -154 60 -220 20 -66 51 -169 68 -230 17 -60 42 -146 55
-190 28 -93 43 -200 33 -238 -9 -33 -2 -36 10 -4 l9 22 10 -25 c31 -72 86
-271 86 -311 1 -30 7 -54 19 -66 9 -11 17 -26 17 -34 0 -8 7 -33 15 -56 8 -23
16 -57 17 -75 1 -18 5 -35 8 -38 4 -3 14 -32 23 -65 18 -63 10 -83 -23 -63
-21 14 -43 64 -34 79 4 8 3 9 -4 5 -7 -4 -12 -2 -12 4 0 6 -5 8 -11 4 -6 -3
-3 8 6 25 16 31 15 33 -10 63 -23 27 -26 39 -24 90 2 51 -1 62 -24 86 -17 17
-27 39 -27 58 0 43 -10 72 -27 78 -7 3 -12 2 -9 -3 3 -5 0 -14 -8 -20 -10 -9
-12 -21 -5 -50 5 -21 8 -54 7 -72 -1 -22 9 -48 26 -73 18 -26 26 -52 26 -80 0
-27 11 -62 30 -99 16 -32 30 -71 30 -87 0 -16 4 -31 10 -35 5 -3 7 -12 3 -20
-4 -13 12 -15 106 -15 103 0 111 1 111 20 0 18 -59 216 -96 320 -9 25 -27 86
-39 135 -13 50 -43 151 -66 225 -79 256 -74 242 -174 575 -13 44 -32 109 -43
145 -34 112 -93 312 -113 380 -56 198 -71 251 -85 310 -19 74 -86 291 -114
365 -29 76 -155 477 -185 590 -42 153 -166 549 -175 555 -3 3 -14 43 -24 90
-18 92 -51 207 -71 255 -21 49 -79 230 -95 295 -4 19 -20 77 -34 128 -14 51
-26 100 -26 108 0 8 -16 55 -36 105 -19 50 -39 110 -44 133 -5 22 -21 82 -35
131 -14 50 -32 113 -40 140 -7 28 -21 73 -30 100 -9 28 -20 68 -24 90 -4 22
-12 49 -18 60 -10 17 -42 123 -144 460 -39 129 -80 260 -100 313 -10 30 -19
64 -19 76 0 12 -6 31 -14 42 -8 11 -18 38 -22 60 -4 21 -18 71 -31 109 -14 39
-38 115 -53 170 -16 55 -36 123 -45 150 -9 28 -32 100 -52 160 -19 61 -40 116
-46 124 -7 7 -17 32 -22 55 -13 49 -29 50 -33 2 -2 -27 1 -36 17 -41 35 -11
22 -75 -15 -75 -6 0 -17 20 -24 45 -7 25 -16 48 -21 51 -4 2 -6 11 -2 19 3 8
0 15 -7 15 -8 0 -11 9 -8 25 3 13 1 23 -4 22 -6 -1 -12 13 -14 31 -3 22 0 31
7 27 6 -4 10 -1 8 6 -4 36 2 69 14 66 18 -3 20 48 2 63 -14 11 -17 10 -22 -9
-4 -17 -8 -19 -19 -10 -8 6 -14 17 -14 24 0 15 28 28 42 19 5 -3 3 8 -6 24 -9
17 -16 41 -16 54 0 42 -12 68 -30 68 -10 0 -20 -5 -22 -11 -6 -19 -48 0 -48
22 0 18 14 24 53 21 21 -2 17 22 -12 73 -10 17 -16 38 -13 49 9 41 -59 132
-82 109 -12 -12 -6 -23 12 -23 14 0 19 -8 20 -30 0 -17 10 -43 22 -59 11 -16
16 -32 11 -35 -5 -3 -12 -29 -16 -57 -7 -50 -7 -50 -24 -27 -9 13 -21 48 -28
78 -21 100 -30 134 -59 223 -23 73 -26 93 -17 117 6 16 8 29 5 28 -4 -1 -17 1
-28 5 -19 7 -20 12 -14 47 4 22 4 40 0 40 -19 0 -55 156 -39 166 14 8 10 34
-5 34 -14 0 -21 14 -41 95 -7 28 -20 77 -29 110 -21 83 -20 94 6 65 15 -16 23
-19 26 -10 8 22 -20 119 -40 136 -10 10 -18 25 -18 34 0 10 -8 28 -18 41 -11
14 -19 45 -21 74 -1 28 -9 57 -16 65 -7 8 -16 31 -20 50 -4 19 -11 40 -15 45
-17 22 -52 145 -46 161 5 13 13 9 42 -22 19 -22 45 -60 57 -86 24 -52 43 -64
33 -20 -22 87 -17 99 45 104 30 3 34 0 31 -19 -3 -18 1 -21 25 -18 15 1 29 8
31 14 2 6 17 11 33 11 24 0 32 -7 53 -47 14 -27 25 -41 26 -32 0 8 -4 19 -9
25 -11 12 -23 94 -14 94 16 0 32 -16 43 -40 6 -14 24 -45 40 -70 16 -25 39
-63 50 -85 18 -34 86 -152 118 -205 6 -8 12 -12 16 -9 8 8 -17 67 -42 99 -10
14 -23 36 -27 50 -4 14 -23 46 -41 73 -19 26 -34 51 -34 57 0 14 -59 128 -70
135 -13 8 -13 55 0 55 6 0 10 -4 10 -10 0 -5 27 -39 60 -76 36 -40 64 -81 70
-104 5 -20 20 -50 32 -66 28 -36 80 -84 90 -84 5 0 8 -9 8 -20 0 -21 24 -27
50 -10 17 10 50 -14 50 -38 0 -8 6 -12 14 -9 17 7 46 -23 46 -47 0 -9 7 -19
15 -22 8 -3 26 -25 40 -49 13 -24 53 -72 88 -107 35 -35 67 -72 71 -84 3 -11
22 -38 41 -60 19 -21 35 -46 35 -54 0 -8 9 -21 20 -28 11 -7 20 -23 20 -37 0
-14 4 -25 9 -25 5 0 8 -8 6 -17 -1 -10 6 -30 17 -45 20 -29 14 -40 -6 -12 -10
13 -12 13 -12 -4 0 -10 11 -23 23 -29 17 -8 22 -8 17 0 -3 7 3 1 13 -12 33
-42 81 -90 87 -85 3 2 4 1 2 -2 -3 -3 11 -29 30 -57 19 -28 33 -56 30 -64 -5
-11 7 -18 17 -10 7 5 37 -33 37 -47 0 -9 4 -16 8 -16 10 0 42 -65 42 -85 0 -7
13 -23 29 -35 23 -15 31 -31 37 -65 4 -28 14 -52 28 -63 23 -19 76 -93 76
-107 0 -4 15 -27 34 -50 19 -23 44 -59 56 -81 25 -47 99 -157 134 -200 14 -18
26 -36 26 -42 0 -5 6 -12 14 -15 8 -3 36 -45 62 -94 39 -71 94 -153 124 -183
3 -3 10 -12 15 -21 37 -60 95 -140 123 -173 19 -21 48 -68 64 -104 33 -72 57
-109 105 -162 18 -19 33 -38 33 -42 0 -4 6 -13 12 -20 30 -31 119 -161 132
-191 7 -19 27 -49 43 -68 17 -19 41 -54 53 -79 13 -25 32 -54 42 -65 20 -20
68 -92 100 -147 9 -16 23 -37 31 -46 8 -9 31 -47 49 -84 19 -37 48 -80 64 -96
28 -28 63 -80 112 -166 13 -23 36 -57 51 -76 15 -19 38 -53 51 -75 13 -22 27
-42 30 -45 19 -15 19 -44 0 -62 -11 -11 -17 -24 -14 -30 4 -7 13 -3 23 11 15
20 18 20 39 6 l22 -16 0 216 c0 137 -4 214 -10 210 -11 -7 -70 71 -70 93 0 9
-11 27 -24 41 -13 15 -34 46 -47 70 -13 25 -34 55 -46 67 -13 13 -23 30 -23
39 0 8 -6 15 -13 15 -19 0 -43 30 -51 63 -4 19 -12 27 -24 25 -13 -2 -21 9
-31 45 -8 26 -20 47 -28 47 -7 0 -13 11 -13 25 0 18 -21 45 -70 94 -52 52 -75
84 -91 126 -11 31 -27 59 -35 62 -8 3 -14 10 -14 17 0 6 -13 20 -30 31 -32 21
-45 48 -56 107 -3 21 -12 42 -20 49 -8 6 -14 16 -14 21 0 6 -12 23 -27 38 -16
15 -44 47 -63 69 -19 23 -45 51 -57 63 -12 11 -24 32 -28 47 -3 14 -18 35 -32
47 -17 13 -26 31 -27 53 -1 24 -6 33 -23 37 -15 4 -26 18 -32 40 -10 35 -55
84 -77 84 -8 0 -20 15 -27 33 -8 18 -30 44 -50 57 -20 14 -42 38 -48 53 -7 15
-20 32 -30 38 -11 6 -19 21 -19 36 0 26 -41 90 -90 142 -13 14 -24 30 -22 34
1 4 -13 17 -32 28 -69 40 -104 162 -59 208 34 35 57 22 49 -29 -5 -33 -3 -40
10 -40 9 0 14 6 11 13 -10 25 40 7 54 -20 8 -14 24 -29 36 -34 13 -5 23 -16
23 -26 0 -19 2 -22 152 -203 53 -65 107 -135 121 -157 13 -21 31 -44 40 -51 9
-8 18 -26 22 -41 3 -16 16 -34 28 -41 26 -14 147 -160 162 -194 6 -13 37 -53
70 -90 33 -38 64 -76 69 -85 9 -16 52 -69 106 -131 17 -19 48 -56 68 -81 85
-105 198 -243 207 -253 6 -6 27 -36 48 -67 21 -31 64 -90 97 -130 33 -41 60
-79 60 -86 0 -6 5 -15 10 -18 7 -4 10 557 10 1675 l0 1681 -37 16 c-21 9 -54
19 -73 24 -38 8 -116 34 -168 55 -18 8 -44 14 -59 14 -14 0 -47 10 -72 21 -60
28 -76 34 -136 48 -27 7 -85 28 -129 47 -44 19 -89 34 -100 34 -12 0 -45 11
-74 25 -30 14 -63 25 -74 25 -11 0 -51 11 -89 25 -73 26 -111 25 -84 -1 8 -8
12 -20 9 -28 -3 -7 7 -18 21 -24 15 -7 23 -17 19 -23 -4 -8 0 -8 14 0 20 10
79 7 91 -5 11 -11 -25 -24 -51 -20 -33 6 -48 -12 -25 -29 10 -7 17 -19 17 -28
0 -9 5 -19 10 -22 19 -12 10 -25 -19 -25 -33 0 -48 15 -46 50 0 14 -5 31 -12
38 -7 7 -13 24 -13 37 0 27 -26 41 -34 18 -4 -9 -13 -13 -22 -9 -13 5 -15 1
-10 -19 8 -33 -3 -75 -20 -75 -8 0 -14 5 -14 11 0 6 -7 9 -15 5 -12 -4 -15 3
-15 34 0 29 -4 40 -15 40 -8 0 -15 6 -15 14 0 21 -27 27 -44 11 -21 -22 -42
-20 -25 2 13 15 11 16 -11 10 -21 -5 -23 -4 -9 6 15 11 15 14 1 27 -12 10 -17
11 -20 2 -5 -16 -22 -5 -22 14 0 8 8 14 18 14 13 1 12 4 -7 14 -18 10 -20 15
-10 19 10 4 9 6 -3 6 -12 1 -18 -7 -19 -21 -1 -19 -2 -20 -6 -5 -3 11 4 29 16
41 l21 22 -39 22 c-21 12 -44 22 -50 22 -6 0 -42 15 -79 33 -37 18 -94 39
-127 47 -33 7 -69 20 -80 27 -11 7 -33 13 -51 13 -22 0 -42 11 -73 40 -23 22
-38 40 -34 40 4 0 37 -9 72 -20 45 -15 68 -17 75 -10 8 8 4 12 -11 16 -31 8
-36 32 -14 62 31 45 1 71 -44 38 -29 -21 -45 -9 -45 33 0 20 -5 42 -11 48 -6
6 -9 26 -7 44 3 32 5 34 36 31 18 -2 32 1 32 7 0 6 -12 11 -26 11 -19 0 -25 5
-22 18 4 20 64 28 88 12 13 -9 12 -13 -5 -28 -24 -20 -48 -103 -35 -116 6 -6
15 4 24 25 17 40 80 104 94 95 5 -3 23 -1 40 5 39 13 114 -10 118 -36 3 -21
21 -41 29 -33 4 3 7 15 8 27 1 13 9 22 22 23 11 0 27 2 35 2 18 2 106 -10 180
-25 55 -10 78 -12 115 -10 31 2 212 -16 222 -22 5 -3 65 -11 133 -17 69 -6
177 -20 240 -30 63 -10 162 -24 220 -30 58 -6 154 -18 213 -26 59 -8 110 -14
112 -14 3 0 5 178 5 395 l0 395 -3835 0 -3835 0 0 -3016z m5820 1886 c49 -69
90 -135 90 -147 0 -14 -17 -40 -41 -64 -22 -22 -45 -54 -51 -70 -7 -19 -24
-37 -50 -50 -21 -11 -43 -31 -48 -44 -7 -18 -18 -24 -47 -27 -48 -4 -58 -36
-19 -62 41 -26 69 -25 76 4 5 20 13 26 42 28 22 2 41 -3 51 -12 9 -9 21 -16
28 -16 6 0 22 -11 35 -25 12 -13 34 -27 48 -31 18 -4 26 -13 26 -28 0 -21 3
-22 58 -19 52 4 153 35 177 55 17 15 26 8 15 -12 -6 -11 -33 -32 -61 -46 -78
-39 -182 -108 -243 -161 -30 -26 -76 -64 -101 -83 -26 -19 -70 -56 -99 -82
-29 -27 -57 -48 -63 -48 -23 0 1 47 38 73 54 39 52 65 -9 125 -26 26 -64 61
-84 78 -49 43 -54 63 -22 102 31 37 60 41 75 10 11 -24 70 -72 120 -98 16 -8
29 -21 29 -27 0 -7 7 -13 15 -13 8 0 15 4 15 9 0 14 -121 119 -152 133 -18 8
-30 23 -34 43 -11 50 -38 51 -86 3 -11 -11 -35 -26 -53 -34 -18 -7 -35 -17
-37 -22 -8 -19 -164 -112 -188 -112 -14 0 -129 122 -181 192 -62 83 -66 76
116 217 44 34 101 78 126 99 25 20 101 80 169 132 68 52 140 110 159 127 20
18 44 32 54 30 9 -1 58 -58 107 -127z m-1634 -755 c-3 -8 -9 -22 -12 -30 -5
-11 1 -15 25 -15 28 0 31 -3 31 -30 0 -25 -11 -37 -66 -80 -37 -27 -71 -50
-76 -50 -21 0 -18 33 8 77 16 27 27 59 25 71 -1 14 7 34 20 48 25 27 55 33 45
9z m3422 -122 c12 -10 24 -30 27 -44 6 -23 2 -28 -24 -37 -25 -9 -31 -17 -31
-39 0 -15 -7 -36 -15 -46 -17 -24 -51 -18 -47 7 2 10 -7 29 -20 43 l-23 25 28
22 c15 12 27 29 27 38 0 49 39 64 78 31z m-928 -123 c13 -16 28 -30 35 -30 20
0 45 -24 50 -49 2 -14 8 -27 12 -30 5 -3 13 -15 19 -26 6 -11 25 -29 42 -40
20 -13 29 -26 26 -35 -10 -29 -9 -33 17 -48 24 -14 31 -14 80 7 30 12 63 27
75 32 11 6 34 9 50 7 27 -3 29 -6 28 -41 -1 -24 3 -36 10 -34 15 6 46 -11 46
-25 0 -15 31 -37 53 -38 42 0 93 -60 52 -60 -8 0 -15 -4 -15 -8 0 -20 -173
-83 -248 -89 -46 -4 -52 -7 -47 -23 7 -22 -39 -97 -65 -105 -9 -3 -23 -17 -30
-30 -7 -14 -17 -25 -20 -25 -4 0 -32 -22 -61 -50 l-54 -50 -28 33 c-15 17 -42
37 -60 43 -18 6 -34 19 -36 30 -8 47 -54 53 -65 9 -3 -13 -20 -33 -36 -45 -29
-21 -41 -50 -19 -50 14 0 39 -25 39 -39 0 -14 -37 -14 -46 0 -3 6 0 16 7 21
11 8 10 8 -4 4 -10 -3 -30 -6 -44 -6 -20 0 -24 -4 -21 -22 2 -12 13 -28 25
-34 13 -6 20 -13 17 -16 -3 -4 -6 -12 -8 -20 -1 -7 -7 -22 -13 -33 -11 -18
-13 -16 -24 26 -12 46 -12 46 -45 36 -18 -5 -37 -20 -43 -33 -11 -25 -19 -28
-45 -18 -23 9 -20 51 3 59 10 3 46 34 79 68 33 34 78 78 101 97 25 21 46 51
55 77 16 47 69 111 104 124 22 8 31 43 14 53 -8 5 -82 -53 -128 -99 -9 -9 -26
-15 -38 -13 -17 2 -20 9 -18 35 3 25 -2 35 -22 48 -13 9 -28 30 -31 46 -4 16
-11 26 -16 23 -6 -3 -13 2 -15 13 -5 17 -68 53 -93 53 -5 0 -19 14 -31 30 -12
17 -28 30 -36 30 -8 0 -14 4 -14 9 0 5 -10 11 -22 13 -17 2 -24 11 -26 33 -2
25 6 39 44 78 26 26 54 47 62 47 16 0 73 -38 85 -57 4 -7 22 -20 40 -29 18 -9
64 -49 103 -88 39 -39 92 -88 118 -108 53 -42 68 -41 105 10 11 16 37 33 59
40 25 8 43 21 50 37 10 21 9 26 -11 36 -12 7 -24 15 -27 18 -6 7 -22 16 -137
77 -48 26 -100 60 -116 76 -16 16 -44 40 -63 55 -19 14 -34 31 -34 37 0 13 78
52 115 59 26 4 106 -45 135 -83z m-279 -32 c79 -48 118 -76 175 -127 29 -25
67 -59 85 -75 l34 -28 -24 -19 c-21 -17 -25 -17 -52 -3 -17 8 -47 31 -68 50
-21 19 -41 34 -44 34 -17 0 -197 155 -197 170 0 40 22 39 91 -2z m-941 3 c0
-5 10 -11 23 -13 16 -2 24 -13 31 -40 5 -21 14 -38 19 -38 11 0 107 -100 107
-112 0 -4 0 -11 -1 -14 0 -4 5 -11 13 -15 7 -5 8 -9 2 -9 -6 0 -21 9 -34 20
-26 22 -42 22 -48 -1 -3 -11 -2 -12 6 0 6 8 12 9 16 3 10 -17 -14 -25 -37 -13
-25 13 -67 73 -67 95 0 8 -8 20 -17 25 -10 6 -14 11 -8 11 5 0 0 6 -11 14 -26
18 -33 96 -9 96 8 0 15 -4 15 -9z m-1206 -66 c-9 -48 1 -69 41 -88 19 -9 35
-21 35 -27 0 -16 -80 -88 -122 -111 -21 -10 -52 -32 -70 -47 -47 -40 -89 -65
-96 -57 -4 3 -2 9 4 13 13 8 54 98 54 118 0 7 7 17 14 21 12 6 13 17 6 46 -6
30 -5 40 6 44 8 3 14 17 14 32 0 14 4 31 8 36 11 17 96 64 105 58 4 -2 5 -20
1 -38z m93 -481 c-3 -19 -1 -47 5 -62 5 -15 12 -45 14 -67 8 -73 9 -80 17 -92
12 -19 42 -16 79 7 35 21 68 26 68 11 0 -11 -71 -71 -83 -71 -5 0 -35 -19 -67
-42 -32 -24 -85 -58 -117 -76 -33 -18 -98 -71 -146 -118 -81 -79 -107 -97
-107 -75 0 5 -3 17 -6 25 -5 12 -2 15 10 10 11 -4 16 0 16 14 0 11 8 23 18 26
9 3 27 21 39 38 20 31 21 42 17 170 -5 148 6 200 43 212 11 3 29 20 41 36 13
17 29 30 36 30 7 0 20 7 27 17 15 17 65 42 88 43 10 0 12 -9 8 -36z m1857
-310 c37 -45 35 -71 -5 -68 -29 2 -31 0 -25 -24 12 -51 11 -57 -12 -60 -22 -3
-25 1 -36 51 -8 34 -51 39 -59 6 -4 -15 -12 -20 -29 -17 -30 4 -34 32 -9 60
12 12 21 30 21 39 0 39 9 45 69 45 53 -1 61 -4 85 -32z m-3284 -780 c0 -13
-13 -19 -34 -15 -4 1 -6 -10 -2 -23 8 -33 -7 -101 -28 -121 -9 -9 -16 -30 -16
-46 0 -17 -5 -39 -10 -50 -7 -12 -7 -26 -2 -35 8 -14 11 -13 28 8 10 13 30 31
42 40 22 15 26 15 53 0 35 -21 36 -30 5 -42 -13 -5 -27 -13 -30 -19 -4 -6 -22
-18 -41 -27 -37 -17 -102 -71 -167 -139 -38 -40 -38 -40 -38 -14 0 15 6 29 14
32 8 3 19 23 26 44 7 21 22 48 34 61 20 22 44 109 45 163 1 15 12 47 26 70 14
24 25 50 25 57 0 7 12 29 26 48 26 33 44 37 44 8z m2037 -68 c-2 -28 -7 -62
-11 -76 -5 -20 -5 -21 3 -5 8 19 10 18 21 -10 6 -16 21 -59 31 -95 11 -36 26
-85 34 -110 14 -44 13 -62 -3 -130 -8 -35 -8 -35 -14 -7 -3 15 -1 27 4 27 5 0
4 9 -2 19 -5 11 -10 31 -10 45 0 27 -32 52 -53 40 -6 -4 -9 -4 -5 1 4 4 3 14
-3 21 -7 8 -7 19 -1 31 11 20 4 111 -9 119 -5 3 -9 16 -9 30 0 17 -8 27 -25
34 -14 5 -26 15 -26 22 -3 28 3 55 18 90 15 36 16 37 40 21 22 -15 24 -22 20
-67z m-300 -2851 c1 -59 4 -70 27 -87 21 -15 25 -16 30 -2 3 8 2 12 -4 9 -15
-9 -30 4 -24 20 5 11 11 12 26 4 15 -8 24 -7 38 6 9 9 21 15 26 14 23 -4 43 3
64 21 46 40 79 5 40 -40 -16 -19 -23 -21 -29 -11 -11 18 -45 10 -49 -12 -2
-12 3 -17 17 -17 12 0 21 -6 21 -14 0 -7 9 -16 21 -19 12 -3 18 -10 14 -16 -4
-7 0 -8 11 -4 12 4 15 3 10 -5 -4 -7 -4 -17 0 -23 5 -8 9 -8 14 1 5 8 9 7 13
-4 4 -9 3 -15 -1 -15 -23 4 -20 -4 10 -31 31 -28 35 -37 37 -88 1 -33 9 -67
19 -82 9 -14 22 -63 29 -110 24 -171 33 -223 53 -323 6 -26 10 -72 10 -100 0
-30 6 -62 15 -74 8 -11 19 -63 25 -114 6 -52 15 -110 20 -129 5 -19 14 -69 19
-110 5 -41 14 -102 20 -135 5 -33 12 -80 15 -105 3 -25 10 -71 15 -103 13 -73
16 -170 7 -185 -4 -7 -22 -12 -39 -12 -20 0 -39 -8 -50 -20 -9 -11 -24 -20
-32 -20 -8 0 -39 -13 -68 -30 -30 -16 -64 -30 -76 -30 -13 0 -66 -23 -118 -50
-52 -28 -103 -50 -112 -50 -9 0 -36 -11 -60 -25 -55 -32 -75 -33 -65 -2 3 12
10 27 14 32 7 10 1 71 -19 190 -28 167 -40 330 -46 620 -1 66 -6 141 -10 167
-6 35 -4 52 8 68 11 16 13 29 7 46 -5 12 -6 39 -3 58 3 20 1 41 -4 48 -16 20
-25 132 -13 162 6 17 7 47 2 81 -5 31 -5 60 0 70 7 11 2 30 -13 62 -21 43 -21
48 -7 92 17 53 17 166 0 183 -19 19 -14 66 8 88 11 11 15 20 8 20 -6 0 -4 7 5
18 20 22 22 33 5 30 -7 -2 -12 2 -13 9 0 6 -3 15 -7 19 -13 12 -9 44 5 45 45
4 77 18 77 34 0 9 10 13 28 12 24 -2 28 -6 29 -32z m-344 -41 c9 -4 17 -11 17
-18 0 -6 5 -4 10 4 8 12 10 9 10 -12 0 -16 -4 -28 -10 -28 -5 0 -10 -7 -10
-16 0 -9 5 -12 13 -8 9 6 9 5 0 -7 -10 -13 -9 -19 7 -36 10 -12 16 -23 13 -27
-3 -3 0 -13 7 -21 10 -12 10 -19 2 -27 -9 -9 -9 -15 0 -26 7 -8 13 -42 15 -76
6 -147 11 -225 16 -233 3 -5 2 -15 -3 -23 -5 -8 -3 -24 6 -41 8 -17 15 -72 18
-146 3 -65 10 -172 16 -238 6 -66 10 -142 10 -170 0 -27 6 -75 14 -105 8 -32
15 -101 15 -163 0 -59 2 -111 5 -115 5 -8 8 -60 22 -347 3 -77 10 -162 14
-188 9 -59 -2 -74 -80 -106 -30 -13 -75 -33 -100 -46 -25 -12 -70 -28 -100
-35 -30 -6 -68 -19 -85 -27 -29 -14 -89 -45 -165 -82 -19 -10 -43 -16 -53 -13
-17 3 -18 12 -13 95 4 51 9 229 12 397 2 168 7 397 9 510 3 113 7 354 10 535
10 575 14 698 26 727 13 33 13 33 43 13 22 -15 24 -14 29 5 4 15 13 21 29 20
41 -4 54 0 76 20 12 11 25 19 29 18 4 -1 24 6 43 14 19 9 28 17 20 18 -11 1
-9 4 5 10 11 5 25 7 30 4 6 -2 18 -7 28 -10z m-459 -2019 l1 -390 -24 -3 -24
-4 8 174 c7 155 10 260 16 578 1 78 3 90 11 65 6 -18 11 -190 12 -420z m1390
53 l26 -33 -21 -18 c-12 -9 -33 -20 -48 -23 -23 -5 -166 -68 -213 -95 -10 -5
-27 -9 -39 -9 -18 0 -7 14 51 68 40 37 82 77 93 90 11 12 32 22 46 22 14 0 35
7 45 15 27 21 31 19 60 -17z m-361 -174 c30 -5 35 -9 26 -20 -6 -8 -15 -14
-19 -14 -5 0 -41 -15 -82 -34 -190 -87 -217 -92 -203 -38 24 97 122 135 278
106z"/>
<path d="M7030 9515 c0 -6 91 -45 105 -45 12 0 186 -54 260 -81 17 -6 50 -17
75 -24 25 -8 85 -28 133 -44 48 -17 92 -31 97 -31 15 0 12 30 -2 34 -156 43
-446 130 -484 146 -12 5 -52 16 -90 25 -38 9 -75 18 -81 20 -7 3 -13 2 -13 0z"/>
<path d="M5100 8555 c0 -8 129 -256 142 -271 8 -11 37 -64 78 -144 10 -20 34
-59 54 -89 20 -29 36 -58 36 -64 0 -6 18 -38 39 -71 46 -72 90 -150 127 -226
15 -30 42 -79 61 -108 18 -29 33 -56 33 -61 0 -4 12 -26 28 -47 15 -21 33 -52
40 -69 36 -79 192 -339 200 -331 7 8 -84 191 -136 271 -25 39 -79 133 -120
210 -41 77 -78 142 -83 145 -5 3 -33 54 -64 113 -30 59 -71 133 -91 165 -20
31 -70 120 -111 197 -41 77 -94 169 -118 205 -23 36 -55 89 -70 118 -25 47
-45 73 -45 57z"/>
<path d="M5950 7024 c6 -15 19 -39 30 -54 11 -16 20 -32 20 -37 0 -4 16 -35
36 -67 33 -56 74 -130 149 -271 17 -33 50 -91 72 -130 54 -94 216 -384 260
-465 20 -36 55 -97 79 -136 23 -39 62 -112 87 -161 24 -50 53 -104 65 -120 12
-17 26 -41 32 -54 6 -13 23 -44 39 -69 16 -25 30 -51 30 -58 1 -20 81 -152 91
-152 17 0 11 38 -8 52 -10 7 -27 40 -37 73 -11 33 -41 94 -67 135 -26 41 -63
109 -83 150 -20 41 -43 82 -51 91 -8 9 -32 51 -55 95 -22 43 -63 118 -90 165
-27 48 -49 90 -49 94 0 5 -7 16 -16 26 -16 18 -59 94 -95 169 -12 25 -27 52
-35 60 -7 9 -37 58 -65 110 -29 52 -86 156 -127 230 -41 74 -89 162 -107 195
-63 118 -133 204 -105 129z"/>
<path d="M2578 5213 c-9 -10 -18 -36 -21 -58 -13 -107 -60 -225 -101 -254 -11
-8 -52 -31 -90 -51 -80 -41 -128 -70 -138 -85 -4 -5 -8 -22 -8 -37 0 -20 -5
-28 -18 -28 -29 0 -56 -25 -107 -102 -27 -40 -56 -81 -65 -90 -16 -20 -45 -24
-55 -7 -11 16 -43 -19 -50 -55 -4 -17 -15 -49 -25 -71 -24 -52 -48 -126 -64
-195 -7 -30 -20 -71 -28 -90 -9 -19 -22 -53 -28 -75 -7 -22 -17 -51 -22 -65
-6 -14 -21 -58 -35 -97 -13 -40 -31 -85 -38 -100 -8 -16 -15 -36 -15 -46 0 -9
-11 -35 -25 -57 -14 -21 -29 -56 -33 -77 -5 -21 -18 -58 -29 -83 -12 -25 -31
-79 -43 -120 -13 -41 -30 -88 -39 -105 -8 -16 -15 -32 -16 -35 0 -3 -10 -19
-22 -35 -17 -23 -24 -27 -34 -18 -9 9 -9 19 1 43 10 23 15 28 22 18 11 -15 0
28 -12 52 -5 8 -1 29 9 50 10 19 26 64 35 100 10 36 29 82 42 102 18 29 24 49
22 86 -2 35 3 54 15 66 9 10 17 30 17 44 0 15 9 52 20 82 11 30 18 65 15 77
-5 19 -8 21 -28 12 -26 -12 -27 -16 -30 -99 -1 -38 -6 -54 -14 -52 -7 1 -13
-4 -13 -12 0 -8 -5 -18 -12 -22 -8 -5 -9 -2 -5 9 3 10 2 17 -3 17 -6 0 -10
-13 -10 -29 0 -17 -4 -33 -10 -36 -5 -3 -10 -15 -10 -26 0 -10 -7 -19 -15 -19
-8 0 -15 5 -15 10 0 6 4 10 8 10 4 0 8 9 8 20 0 13 -5 19 -14 15 -7 -3 -17 -5
-20 -5 -4 0 -1 -4 7 -9 12 -8 11 -12 -3 -27 -14 -13 -15 -19 -5 -25 7 -4 17
-5 21 -3 13 8 9 -9 -8 -31 -10 -14 -27 -20 -55 -20 l-40 0 26 23 c14 12 28 31
30 42 3 16 -2 20 -25 20 -23 0 -31 -5 -36 -24 -3 -14 -12 -27 -21 -30 -8 -3
-12 -10 -8 -15 7 -13 -16 -26 -24 -14 -10 17 -139 41 -151 29 -16 -16 -12 -33
10 -39 25 -7 26 -33 1 -47 -16 -8 -21 -6 -26 11 -6 18 -9 19 -20 8 -20 -21
-23 -54 -5 -55 8 -1 21 -2 29 -3 9 -1 12 -10 9 -30 -4 -24 -1 -28 10 -22 19
11 54 2 49 -13 -2 -6 -16 -12 -30 -14 -29 -4 -36 -16 -14 -25 7 -3 18 -21 24
-41 l11 -36 -24 22 c-13 13 -24 30 -25 38 0 10 -2 11 -6 3 -2 -7 5 -24 16 -39
20 -25 19 -60 -2 -47 -6 4 -8 0 -4 -9 4 -11 -2 -18 -19 -22 -13 -4 -24 -11
-24 -17 0 -6 4 -8 9 -4 5 3 12 1 15 -4 4 -5 -2 -8 -11 -7 -10 2 -29 -5 -42
-15 -14 -12 -28 -16 -35 -11 -24 19 -44 21 -42 5 3 -22 35 -43 64 -43 13 0 21
-4 17 -9 -3 -6 2 -14 12 -20 15 -8 16 -15 7 -50 -6 -22 -8 -38 -4 -36 4 3 8
-5 8 -18 0 -12 1 -26 2 -32 1 -5 2 -17 1 -25 -1 -13 -2 -13 -11 0 -8 13 -10
12 -10 -2 0 -10 -7 -18 -15 -18 -8 0 -15 -7 -15 -15 0 -8 -8 -15 -17 -16 -11
0 -13 -3 -5 -6 21 -8 13 -24 -10 -21 -16 2 -24 -3 -26 -16 -3 -14 0 -17 12
-13 13 5 15 1 12 -20 -3 -14 -11 -30 -18 -35 -9 -5 -8 -8 6 -8 17 0 16 -3 -7
-24 -32 -29 -114 -34 -169 -10 -31 14 -40 14 -53 4 -22 -18 -19 -24 25 -55 22
-15 40 -34 40 -43 0 -8 23 -36 51 -63 33 -32 46 -50 38 -53 -22 -7 -49 -3 -49
6 0 5 -7 2 -16 -6 -13 -14 -13 -21 -3 -51 12 -32 29 -48 29 -26 0 5 7 11 15
15 11 4 15 -2 15 -22 0 -21 -2 -24 -10 -12 -8 13 -10 12 -10 -3 0 -10 -4 -15
-10 -12 -6 3 -7 -1 -4 -9 3 -9 12 -16 19 -16 8 0 16 -16 19 -37 7 -42 3 -79
-7 -75 -4 1 -11 2 -17 2 -5 0 -10 7 -10 15 0 8 -7 15 -16 15 -12 0 -15 -7 -12
-30 3 -16 0 -30 -5 -30 -5 0 -7 -7 -3 -15 3 -8 1 -15 -4 -15 -5 0 -11 -8 -13
-17 -4 -17 -5 -17 -6 0 -1 24 -21 21 -21 -3 0 -17 -4 -19 -17 -11 -15 7 -21 2
-35 -25 -10 -19 -13 -34 -8 -34 18 0 10 -18 -10 -23 -13 -3 -20 0 -20 9 0 8
-4 14 -10 14 -19 0 -10 -29 12 -36 19 -6 19 -7 5 -16 -10 -5 -17 -17 -18 -26
0 -12 -3 -11 -9 6 -14 33 -20 27 -9 -10 11 -40 11 -41 0 -33 -16 9 -25 -17
-10 -29 20 -16 23 -52 4 -60 -9 -3 -14 -10 -10 -15 3 -6 0 -13 -7 -18 -7 -4
-13 -14 -14 -20 -1 -7 -2 -20 -2 -28 -1 -8 -12 -15 -24 -16 -22 0 -22 -1 -3
-8 19 -8 19 -8 -2 -15 -15 -5 -20 -12 -16 -23 4 -11 2 -14 -5 -9 -16 10 -33
-29 -27 -61 4 -23 4 -24 -4 -8 -9 20 -10 20 -10 -1 -1 -14 -7 -20 -22 -20 -17
1 -22 -5 -23 -27 -1 -15 4 -33 11 -39 18 -15 -21 -70 -44 -61 -11 4 -14 3 -9
-5 5 -8 0 -12 -13 -12 -25 0 -37 -18 -17 -26 9 -3 16 -14 15 -23 0 -10 -2 -11
-6 -3 -6 16 -24 16 -22 0 4 -31 -2 -47 -14 -42 -10 3 -13 -3 -9 -25 3 -22 -1
-32 -17 -40 -24 -13 -29 -36 -6 -27 16 6 16 -14 0 -26 -7 -5 -6 -8 0 -8 6 0
12 -13 13 -30 1 -16 -3 -30 -8 -30 -6 0 -9 -4 -5 -9 3 -5 -4 -13 -16 -16 -12
-4 -18 -12 -15 -21 3 -9 -1 -14 -14 -14 -11 0 -20 -7 -20 -16 0 -8 5 -12 11
-9 5 4 3 -10 -6 -31 -17 -42 -25 -53 -25 -37 0 6 -10 9 -22 6 -19 -4 -20 -3
-8 6 8 6 11 11 5 11 -19 -1 -44 -26 -50 -53 -4 -15 -14 -27 -22 -27 -10 0 -14
-7 -10 -20 3 -11 1 -23 -4 -26 -5 -3 -5 -13 1 -24 13 -24 13 -40 0 -40 -5 0
-7 7 -4 15 4 8 1 15 -5 15 -6 0 -11 -8 -11 -18 0 -10 -9 -24 -20 -32 -11 -8
-20 -22 -20 -32 0 -12 -6 -16 -21 -13 -14 3 -19 0 -16 -9 3 -8 -3 -16 -15 -19
-11 -3 -17 -10 -14 -15 3 -6 -1 -12 -9 -16 -13 -5 -15 -48 -15 -301 l0 -296
45 4 c25 2 45 0 45 -4 0 -4 11 -10 24 -13 14 -3 27 -14 30 -24 9 -29 10 -105
2 -139 l-8 -33 811 0 c446 0 811 1 811 3 0 1 7 34 15 72 9 39 22 104 30 145
13 70 20 103 58 272 15 65 44 128 59 128 4 0 8 -6 8 -14 0 -20 29 -48 41 -40
6 3 24 0 40 -6 38 -16 35 -40 -9 -59 -36 -17 -40 -33 -14 -59 10 -10 21 -26
25 -35 3 -9 16 -17 28 -17 16 0 19 4 14 18 -28 65 -12 88 49 71 41 -11 43 -17
16 -51 -16 -21 -18 -35 -13 -75 5 -48 4 -52 -26 -74 -30 -22 -31 -23 -11 -41
10 -10 23 -18 27 -18 18 0 45 65 48 114 5 84 15 127 50 201 42 90 70 178 62
199 -12 31 -39 31 -64 0 -13 -16 -29 -40 -35 -54 -10 -25 -10 -25 -22 12 -11
37 -11 37 -43 23 -25 -10 -34 -23 -43 -54 -7 -27 -16 -41 -27 -41 -9 0 -13 3
-10 6 13 13 -28 64 -63 79 -19 9 -48 22 -63 30 -40 21 -66 18 -112 -10 -44
-27 -70 -32 -78 -12 -8 20 12 59 33 64 11 3 29 21 41 39 11 19 25 34 30 34 5
0 19 10 31 22 13 13 35 22 53 23 29 0 31 2 52 84 16 60 19 89 12 103 -5 10 -6
18 -1 18 15 0 33 52 42 120 5 36 12 80 16 97 6 33 -9 47 -20 18 -12 -31 -79
-7 -96 35 -6 15 -22 32 -35 38 -13 6 -36 34 -52 63 l-28 53 -8 -60 c-4 -32
-14 -81 -22 -108 -8 -26 -15 -60 -15 -75 0 -14 -14 -78 -31 -141 -36 -131 -41
-157 -65 -295 -9 -55 -20 -109 -25 -120 -4 -11 -18 -54 -30 -95 -27 -93 -32
-100 -72 -93 -35 5 -59 -13 -71 -54 -9 -29 9 -38 36 -19 31 22 58 20 58 -2 0
-24 -31 -52 -57 -52 -11 0 -26 -7 -33 -14 -6 -8 -28 -20 -48 -27 -20 -6 -48
-18 -62 -25 -14 -8 -43 -20 -65 -28 -22 -8 -71 -26 -110 -40 -38 -15 -97 -33
-130 -42 -33 -9 -67 -22 -75 -30 -17 -15 -94 -44 -116 -44 -34 0 -9 32 44 56
86 40 87 40 90 56 5 24 -28 30 -56 11 -47 -34 -67 -43 -99 -43 -44 0 -47 11
-18 62 13 23 27 62 31 86 3 23 10 45 15 48 11 6 12 44 2 44 -9 -1 -53 -90 -53
-106 0 -6 -6 -17 -14 -23 -8 -7 -18 -26 -21 -42 -4 -16 -15 -34 -26 -40 -11
-5 -31 -28 -44 -49 -26 -41 -61 -53 -71 -25 -3 8 8 51 25 95 17 44 37 104 45
133 8 28 24 77 36 107 21 52 36 100 62 195 6 22 23 77 39 123 16 46 29 92 29
103 0 11 7 31 16 44 11 17 14 36 10 59 -5 24 -2 37 9 46 8 7 15 18 15 25 0 7
14 45 30 85 26 63 30 83 27 146 -2 40 -1 71 3 69 10 -6 22 24 14 36 -11 18 5
59 20 53 16 -6 31 34 42 109 3 26 10 47 15 47 4 0 12 15 18 33 12 41 80 209
90 222 5 5 11 30 15 54 4 24 10 49 14 55 3 6 7 18 9 26 1 8 7 16 12 18 6 2 11
10 11 17 0 7 9 32 19 56 11 24 17 47 15 51 -3 4 0 8 5 8 6 0 11 9 11 19 0 11
5 23 10 26 6 3 10 18 10 33 0 15 9 38 20 52 11 14 20 29 20 33 0 5 7 15 15 23
8 8 11 22 8 31 -4 11 -3 14 5 9 7 -4 12 -2 12 5 0 10 3 10 13 0 10 -11 9 -14
-1 -18 -6 -3 -10 -8 -7 -13 3 -5 0 -21 -6 -37 -6 -15 -13 -39 -15 -53 -8 -58
-17 -96 -25 -105 -14 -19 -39 -101 -41 -141 -2 -21 -7 -42 -13 -46 -6 -5 -6
-11 1 -18 13 -13 37 27 49 80 4 17 20 56 36 88 16 31 29 64 29 73 0 9 3 19 7
23 4 3 8 12 9 19 8 57 27 127 34 127 15 0 50 67 50 96 0 22 3 26 10 14 8 -12
10 -11 10 7 0 29 10 54 20 48 9 -6 6 30 -5 60 l-8 20 16 -20 c14 -17 16 -17
17 -4 0 30 50 32 50 3 0 -9 8 -14 18 -13 34 4 53 -12 52 -45 -1 -17 -1 -34 0
-38 1 -5 3 -16 4 -25 3 -45 46 -53 46 -9 0 12 6 30 14 41 7 11 14 22 14 25 3
24 16 39 26 31 15 -13 27 -4 47 34 15 30 15 60 0 50 -5 -2 -17 2 -27 10 -15
12 -16 16 -5 24 10 6 10 13 2 28 -5 11 -7 23 -4 27 4 4 -3 9 -15 13 -12 3 -22
9 -22 14 0 5 -8 9 -18 9 -22 0 -78 -88 -74 -118 2 -13 -4 -25 -13 -28 -8 -3
-15 -13 -15 -21 0 -12 -2 -12 -12 -1 -13 13 -58 92 -58 100 0 10 106 76 130
81 14 4 43 22 65 41 21 19 41 33 43 31 2 -2 32 16 65 39 86 60 172 106 197
106 11 0 31 11 44 25 13 14 31 25 39 25 15 0 15 -3 0 -36 -13 -26 -22 -34 -36
-30 -20 5 -72 -27 -81 -51 -7 -17 4 -44 14 -38 5 3 5 -9 -1 -27 -11 -41 -11
-41 1 -33 6 4 10 -19 10 -62 0 -38 4 -73 10 -79 6 -6 1 -22 -16 -45 -14 -20
-27 -51 -29 -70 -2 -19 -7 -53 -10 -76 -5 -34 -3 -43 8 -43 28 0 43 39 67 185
5 28 20 84 34 125 15 41 29 100 33 130 3 30 10 63 15 72 5 10 9 35 10 55 1 21
10 49 20 63 17 23 100 342 162 625 38 168 79 343 109 455 13 52 39 158 56 235
18 77 48 203 67 280 50 208 46 232 -31 179 -45 -30 -64 -21 -47 23 6 15 15 51
21 78 5 28 16 77 25 109 18 63 10 89 -16 59z m-1193 -2243 c9 -29 -3 -77 -36
-140 -16 -30 -29 -70 -29 -88 0 -33 -23 -80 -47 -95 -7 -4 -13 -15 -13 -22 0
-8 -6 -15 -13 -15 -9 0 -13 17 -14 56 -1 41 2 54 11 51 22 -8 34 6 40 48 3 22
5 41 6 42 0 1 6 8 13 15 20 21 40 70 44 108 2 19 6 41 8 48 7 19 23 14 30 -8z
m-194 -402 c-11 -11 -13 -10 -8 5 4 9 2 17 -3 17 -6 0 -10 -12 -10 -26 0 -20
4 -25 16 -20 12 5 14 1 9 -16 -6 -18 -4 -20 14 -15 42 11 36 -53 -21 -202 -16
-42 -34 -92 -40 -111 -23 -80 -111 -336 -118 -345 -4 -5 -20 -48 -35 -95 -15
-47 -36 -107 -46 -135 -9 -27 -25 -70 -33 -95 -28 -77 -60 -125 -82 -122 -10
2 -20 5 -22 7 -6 6 27 63 39 67 6 2 13 22 14 43 5 69 15 128 24 139 5 6 11 24
15 39 6 24 3 30 -14 34 -24 6 -24 9 -6 61 8 22 12 43 9 46 -4 3 3 6 15 6 19 0
22 6 22 40 0 21 4 49 10 62 5 13 14 49 21 82 8 44 16 60 30 63 16 5 19 12 14
40 -3 21 1 45 10 63 9 17 13 30 9 30 -4 0 -2 6 4 13 6 7 14 28 17 47 3 19 12
40 20 45 7 6 20 36 28 68 8 31 24 68 36 83 12 15 21 40 21 56 0 16 5 39 11 50
10 19 12 19 27 4 14 -13 14 -18 3 -28z"/>
<path d="M7086 4981 c-4 -5 -2 -12 4 -16 5 -3 10 -17 10 -30 0 -14 13 -46 29
-72 16 -27 33 -60 36 -76 4 -15 11 -30 17 -33 5 -3 13 -16 19 -27 5 -12 13
-29 17 -37 5 -8 37 -73 73 -145 65 -133 125 -243 165 -305 12 -19 25 -46 29
-60 5 -14 13 -29 20 -35 6 -5 20 -31 29 -57 10 -26 21 -50 25 -53 5 -2 27 -44
51 -92 23 -49 46 -95 51 -103 5 -8 18 -33 29 -55 l20 -40 0 77 c0 42 -4 79 -9
83 -13 7 -61 95 -61 109 0 7 -12 28 -26 47 -14 19 -44 70 -65 114 -21 44 -65
127 -99 185 -33 58 -74 130 -91 160 -17 30 -46 82 -65 115 -19 33 -41 74 -49
92 -8 17 -19 34 -25 38 -5 3 -10 15 -10 26 0 30 -51 121 -71 126 -11 3 -19 17
-21 36 -3 31 -21 46 -32 28z"/>
<path d="M6120 4305 c0 -3 15 -52 33 -108 19 -56 40 -129 49 -162 8 -33 34
-112 57 -175 43 -118 96 -286 127 -400 10 -36 26 -83 36 -105 10 -22 18 -50
18 -61 0 -12 7 -27 15 -34 8 -7 15 -27 15 -45 0 -18 9 -57 19 -87 10 -29 29
-87 41 -128 13 -41 33 -100 45 -130 13 -30 33 -89 46 -130 12 -41 33 -97 45
-123 15 -34 20 -60 17 -86 -3 -21 0 -48 6 -59 6 -12 13 -44 16 -71 3 -34 12
-58 26 -72 16 -16 20 -29 15 -50 -3 -16 -1 -29 4 -29 5 0 7 -7 4 -15 -4 -9 3
-19 20 -26 30 -14 44 -54 28 -79 -13 -21 -5 -60 13 -60 7 0 24 -22 37 -49 21
-39 25 -58 20 -96 -4 -35 -1 -51 10 -59 29 -22 47 -98 29 -120 -6 -7 -8 -27
-5 -44 5 -23 11 -30 25 -27 16 3 17 1 9 -16 -8 -14 -7 -19 2 -19 9 -1 8 -5 -4
-13 -13 -10 -15 -21 -8 -55 4 -24 16 -52 26 -63 13 -14 18 -36 18 -78 1 -50 5
-62 26 -79 13 -11 30 -17 37 -15 9 4 11 0 7 -11 -4 -10 -1 -16 9 -16 8 0 17 6
20 13 2 6 4 -5 4 -25 -1 -21 -7 -40 -14 -42 -8 -3 -13 -21 -13 -44 0 -30 7
-45 35 -72 29 -28 35 -41 35 -75 0 -23 -5 -46 -11 -52 -9 -9 -8 -18 5 -37 9
-15 20 -26 25 -26 5 0 12 -39 16 -87 6 -74 12 -95 37 -130 24 -35 29 -55 32
-112 3 -49 10 -78 24 -98 27 -38 54 -121 47 -144 -4 -11 3 -30 15 -47 25 -34
50 -122 50 -179 0 -23 10 -59 22 -82 l22 -41 89 0 c80 0 89 2 84 18 -3 9 -10
40 -17 67 -6 28 -23 73 -36 100 -13 28 -45 115 -70 195 -47 149 -81 248 -115
335 -10 28 -19 56 -19 63 0 7 -11 37 -23 65 -13 29 -34 90 -46 137 -12 46 -26
89 -30 95 -5 5 -15 30 -22 55 -7 25 -13 47 -14 50 -1 3 -5 23 -10 45 -4 22
-13 51 -20 65 -7 14 -19 54 -25 90 -7 36 -20 76 -28 90 -20 31 -68 164 -91
251 -10 36 -30 86 -45 111 -14 25 -26 54 -26 64 0 11 -8 36 -19 56 -10 20 -21
52 -25 70 -12 65 -98 263 -109 252 -3 -3 -4 12 -1 35 2 23 -3 52 -11 68 -8 15
-15 46 -15 68 -1 22 -7 51 -15 65 -8 14 -14 41 -15 60 0 20 -7 46 -16 58 -23
34 -118 298 -308 862 -68 201 -136 401 -151 445 -15 44 -48 140 -73 213 -24
72 -49 132 -53 132 -5 0 -9 -2 -9 -5z"/>
<path d="M800 4175 c0 -8 -4 -15 -8 -15 -5 0 -15 -11 -22 -25 -7 -14 -19 -25
-26 -25 -6 0 -14 -7 -18 -15 -10 -28 -28 -16 -24 15 5 31 3 32 -52 32 -35 0
-40 -2 -38 -14 2 -7 -4 -12 -12 -13 -8 0 -14 -6 -13 -12 1 -6 -11 -16 -27 -23
-16 -7 -35 -19 -42 -28 -12 -14 -10 -14 12 -2 l25 13 -24 -27 c-14 -14 -20
-26 -15 -26 5 0 1 -5 -8 -11 -20 -11 -24 -49 -7 -66 16 -16 1 -53 -21 -53 -10
0 -21 -9 -25 -20 -3 -11 -18 -29 -32 -40 -14 -11 -21 -20 -16 -20 6 0 8 -11 5
-25 -2 -14 -10 -25 -17 -25 -8 0 -17 -10 -21 -22 -4 -13 -13 -27 -20 -33 -8
-5 -14 -26 -16 -45 -1 -19 -6 -41 -12 -49 -6 -8 -10 -15 -8 -15 2 -1 -1 -14
-7 -29 -6 -16 -11 -33 -11 -39 0 -5 -7 -7 -16 -4 -9 4 -13 2 -8 -5 4 -6 3 -14
-2 -18 -5 -3 -14 -15 -21 -26 -6 -11 -16 -19 -22 -18 -6 2 -8 -4 -5 -12 4 -8
2 -15 -3 -15 -6 0 -15 -19 -22 -42 -10 -31 -15 -38 -22 -27 -7 10 -9 5 -5 -18
2 -17 -2 -40 -10 -51 -7 -11 -10 -22 -7 -26 3 -3 1 -6 -6 -6 -8 0 -10 -7 -6
-20 4 -13 0 -23 -14 -32 -12 -7 -21 -18 -21 -25 0 -16 -33 -34 -47 -25 -5 4
-12 14 -15 22 -3 8 -6 -64 -7 -160 -1 -173 4 -195 29 -117 6 20 20 42 31 47
10 6 19 17 19 25 0 8 5 15 10 15 12 0 13 -27 1 -34 -5 -3 -12 -18 -16 -33 -3
-15 -17 -40 -31 -56 -13 -16 -24 -37 -24 -47 0 -10 -4 -22 -10 -25 -6 -4 -10
-127 -9 -338 l0 -332 32 66 c18 36 43 90 56 120 13 30 53 113 88 186 34 73 63
135 63 138 0 3 42 92 94 198 51 105 110 228 131 272 59 125 125 267 142 305 8
19 28 62 43 95 15 33 37 85 50 115 13 30 29 69 36 87 19 42 17 63 -4 63 -21 0
-42 -18 -42 -37 0 -7 -14 -33 -32 -58 -24 -34 -38 -45 -58 -45 -27 0 -69 -30
-125 -89 -22 -23 -35 -30 -40 -21 -8 12 17 76 45 120 10 14 19 35 23 48 9 38
-30 28 -47 -12 -8 -18 -19 -37 -25 -40 -13 -9 -61 -111 -61 -131 0 -8 -11 -31
-25 -51 -14 -20 -25 -42 -25 -49 0 -15 -124 -255 -156 -302 -13 -20 -24 -41
-24 -48 0 -6 -10 -20 -21 -31 l-22 -19 7 45 c7 43 37 120 60 149 6 7 12 25 14
39 2 14 12 32 22 39 11 8 26 35 34 62 8 27 33 81 55 121 23 39 44 84 47 99 7
30 59 127 83 154 9 10 21 46 28 80 14 69 38 97 83 97 33 0 140 92 140 121 0 9
12 28 28 41 33 28 92 113 92 134 0 7 -7 14 -15 14 -8 0 -15 -7 -15 -15z"/>
<path d="M7230 4075 c0 -4 43 -93 96 -198 53 -106 102 -208 109 -227 32 -82
62 -148 88 -187 15 -24 27 -47 27 -53 0 -5 9 -27 20 -47 11 -21 20 -45 20 -53
0 -9 13 -36 28 -61 15 -24 36 -65 45 -90 10 -25 24 -54 32 -65 14 -18 14 -17
15 11 0 18 -32 95 -81 195 -45 91 -96 197 -114 235 -31 65 -205 428 -243 504
-15 31 -42 54 -42 36z"/>
<path d="M2921 3490 c-14 -109 -32 -233 -56 -365 -8 -49 -20 -130 -25 -179 -6
-49 -16 -114 -24 -145 -19 -76 -28 -171 -17 -171 5 0 14 33 21 73 6 39 17 108
25 152 8 44 16 100 19 125 3 25 9 74 15 110 6 36 15 99 21 140 6 41 15 106 21
143 6 37 8 82 6 100 -2 18 -5 25 -6 17z"/>
<path d="M5617 3283 c-4 -3 -7 -14 -7 -23 0 -10 -7 -23 -15 -30 -8 -6 -13 -17
-12 -22 1 -6 -4 -13 -12 -16 -9 -3 -11 0 -6 7 5 8 1 11 -11 9 -14 -2 -18 2
-16 15 2 9 -4 24 -12 32 -13 14 -16 13 -25 -3 -11 -20 -5 -58 12 -79 6 -9 6
-13 -1 -13 -6 0 -9 -6 -7 -12 3 -7 1 -19 -4 -27 -7 -12 -17 -11 -62 5 -30 10
-60 25 -67 31 -7 7 -19 13 -25 13 -9 0 20 -29 89 -89 7 -5 14 -15 15 -20 4 -9
60 -16 95 -12 6 0 17 15 24 31 7 17 16 30 19 30 4 0 17 9 29 20 15 14 22 16
23 8 1 -7 2 -19 3 -27 2 -26 24 -23 59 8 19 17 36 28 39 26 9 -10 29 23 33 54
2 18 -2 34 -12 42 -12 11 -18 9 -31 -8 -21 -26 -67 -35 -68 -13 -1 24 -23 70
-32 70 -5 0 -12 -3 -15 -7z"/>
<path d="M7164 3038 c-21 -11 -48 -29 -60 -39 -11 -10 -25 -19 -31 -19 -24 0
-103 -42 -103 -55 0 -8 21 -31 46 -52 25 -21 57 -59 70 -85 13 -27 30 -48 37
-48 7 -1 5 -6 -5 -14 -21 -16 -24 -30 -4 -23 7 3 18 1 24 -5 8 -8 11 -3 9 18
-1 17 3 29 10 29 16 0 42 35 43 57 0 31 90 79 90 48 0 -5 -16 -25 -37 -43
l-36 -34 19 -26 c17 -24 24 -26 61 -21 48 7 83 -2 83 -21 0 -11 -77 -55 -96
-55 -3 0 -12 -7 -21 -15 -16 -16 -14 -22 31 -79 26 -33 65 -12 139 74 15 17
27 21 55 17 46 -6 135 34 151 69 6 14 8 44 4 69 -6 44 -5 45 31 60 35 15 36
17 36 68 0 44 -5 57 -31 85 -16 17 -33 32 -37 32 -4 0 -25 -14 -46 -30 -22
-17 -43 -30 -47 -30 -5 0 -24 14 -43 30 -37 33 -52 27 -42 -15 6 -23 4 -24
-23 -19 -16 4 -31 1 -35 -5 -13 -21 -46 -11 -103 33 -89 67 -94 68 -139 44z"/>
<path d="M5589 2793 c-1 -5 -1 -12 0 -17 1 -5 -5 -16 -12 -25 -8 -9 -18 -26
-21 -38 -6 -18 -2 -22 23 -28 17 -4 35 -4 41 0 6 4 10 -9 10 -34 0 -35 3 -41
20 -41 19 0 120 90 120 106 0 4 11 22 25 40 28 37 30 44 13 44 -7 0 -36 -23
-64 -51 -60 -60 -84 -61 -84 -4 0 32 -2 35 -25 31 -17 -3 -25 0 -25 10 0 14
-19 20 -21 7z"/>
<path d="M2780 2585 c-7 -22 -14 -69 -14 -105 -1 -36 -5 -71 -10 -78 -13 -20
-36 -142 -36 -188 0 -22 -7 -63 -15 -90 -8 -27 -15 -71 -15 -98 0 -50 -15
-153 -30 -216 -15 -58 -22 -170 -11 -170 13 0 30 62 37 135 3 33 9 78 15 100
5 22 13 76 18 120 15 129 41 307 51 350 13 58 33 250 28 266 -3 8 -11 -4 -18
-26z"/>
<path d="M7581 1967 c11 -29 26 -74 34 -102 7 -27 25 -75 39 -105 14 -30 26
-64 26 -75 1 -11 7 -31 15 -45 13 -23 14 -19 15 59 0 69 -4 91 -24 130 -33 61
-63 131 -67 155 -2 11 -16 23 -31 27 l-27 7 20 -51z"/>
<path d="M7330 1586 c0 -12 -5 -37 -11 -55 -10 -28 -9 -34 11 -51 13 -11 27
-20 32 -20 4 0 8 -11 8 -25 0 -14 5 -25 10 -25 21 0 8 -56 -20 -89 -16 -19
-29 -36 -27 -37 1 -1 20 -4 42 -6 45 -4 67 -34 59 -77 -3 -14 1 -42 10 -62 15
-35 72 -99 89 -99 4 0 6 -8 3 -18 -3 -9 -8 -43 -11 -73 -4 -50 -1 -60 20 -83
13 -15 22 -33 19 -41 -4 -8 -2 -15 4 -15 6 0 13 6 15 13 3 7 6 6 6 -5 1 -9 -3
-20 -9 -23 -13 -8 -13 -57 1 -92 7 -15 25 -56 40 -89 16 -34 26 -69 23 -78 -3
-9 -2 -16 3 -16 5 0 10 -11 11 -25 2 -29 26 -80 42 -90 7 -4 10 60 10 187 0
178 -2 199 -25 271 -14 43 -25 86 -25 96 0 10 -7 24 -15 31 -12 10 -43 95 -35
95 2 0 -7 17 -18 39 -11 21 -18 44 -15 52 3 7 -5 26 -17 41 -44 58 -80 119
-80 138 0 21 -70 168 -82 173 -5 2 -8 10 -8 18 0 8 -6 14 -14 14 -8 0 -17 11
-20 25 -8 32 -26 33 -26 1z"/>
<path d="M2628 1583 c0 -10 -2 -31 -4 -48 -1 -16 -9 -52 -17 -80 -8 -27 -17
-90 -20 -138 -4 -48 -10 -93 -13 -99 -14 -22 -45 -198 -48 -262 0 -22 4 -41
11 -43 20 -7 46 96 49 194 2 51 7 101 12 110 5 10 13 58 17 108 4 49 11 99 15
111 15 39 24 164 11 164 -6 0 -12 -8 -13 -17z"/>
<path d="M2354 785 c-3 -14 0 -39 7 -57 13 -32 9 -39 -40 -67 -11 -7 -11 -15
-1 -46 11 -33 10 -40 -10 -67 -20 -27 -21 -33 -9 -79 13 -48 12 -50 -16 -79
-28 -30 -29 -30 -12 -65 16 -34 16 -35 -9 -62 -21 -23 -25 -35 -20 -63 3 -22
0 -45 -9 -60 -32 -55 -35 -70 -22 -91 16 -27 68 -23 74 6 16 76 26 149 27 206
1 36 6 72 13 80 6 8 14 39 17 69 14 139 19 166 29 179 7 7 12 50 13 95 0 44 4
91 8 104 6 18 4 22 -13 22 -14 0 -23 -9 -27 -25z"/>
<path d="M2450 465 c-22 -23 -23 -29 -12 -58 17 -48 15 -60 -17 -88 -28 -24
-29 -27 -18 -68 10 -37 9 -47 -11 -84 -14 -26 -22 -60 -22 -89 l0 -48 35 0
c33 0 35 2 25 21 -9 16 -6 30 14 70 24 45 25 52 12 77 -14 28 -12 41 16 82 9
14 17 47 17 75 1 28 3 68 4 89 2 48 -11 55 -43 21z"/>
</g>
</svg>
