<?xml version="1.0" standalone="no"?>
<!DOCTYPE svg PUBLIC "-//W3C//DTD SVG 20010904//EN"
 "http://www.w3.org/TR/2001/REC-SVG-20010904/DTD/svg10.dtd">
<svg version="1.0" xmlns="http://www.w3.org/2000/svg"
 width="1509.000000pt" height="1073.000000pt" viewBox="0 0 1509.000000 1073.000000"
 preserveAspectRatio="xMidYMid meet">
<metadata>
Created by potrace 1.16, written by Peter Selinger 2001-2019
</metadata>
<g transform="translate(0.000000,1073.000000) scale(0.100000,-0.100000)"
fill="#000000" stroke="none">
<path d="M20 10206 l0 -524 33 -10 c17 -6 61 -16 97 -22 36 -6 108 -19 160
-29 l95 -18 -3 -3024 c-2 -1663 -5 -3543 -5 -4178 l-2 -1154 -45 -12 c-25 -7
-76 -18 -115 -24 -38 -7 -101 -18 -140 -25 l-70 -12 -3 -98 c-3 -98 -3 -98 20
-94 13 3 75 15 138 27 63 13 129 27 145 31 17 5 57 12 90 16 33 3 83 12 110
19 28 7 86 18 130 25 44 6 96 15 115 20 19 5 60 13 90 19 30 6 114 23 185 37
72 15 157 30 190 35 33 4 85 13 115 19 30 7 89 18 130 26 74 14 141 27 295 59
44 9 103 21 130 26 28 6 69 14 93 20 57 12 109 11 118 -2 5 -8 31 -10 81 -6
81 6 93 11 75 29 -9 9 -17 9 -35 -1 -20 -11 -117 -23 -117 -15 0 10 47 25 116
38 155 28 249 47 280 56 17 6 47 10 67 10 19 0 48 5 62 10 15 6 43 12 63 15
21 2 53 7 72 10 26 5 31 4 20 -4 -8 -6 -22 -11 -31 -11 -9 0 -22 -7 -29 -15
-16 -19 -11 -19 109 0 58 10 105 23 122 36 18 12 37 18 49 14 24 -8 90 4 90
16 0 5 -3 8 -7 8 -5 -1 -28 0 -53 1 l-45 2 55 13 c72 18 77 18 82 -3 4 -14 14
-17 49 -16 45 2 124 34 84 34 -11 0 -35 -4 -54 -10 -20 -5 -40 -6 -50 0 -13 7
-10 10 14 14 17 4 48 10 69 15 30 7 43 6 53 -5 8 -8 22 -14 31 -15 9 0 28 -2
41 -5 13 -2 34 2 47 11 13 8 34 15 48 15 13 0 52 9 87 19 35 11 107 25 159 32
52 7 106 18 120 25 15 7 46 10 77 7 43 -5 54 -2 59 11 4 11 -1 23 -12 32 -18
14 -17 15 13 10 18 -3 47 1 65 8 36 15 130 38 223 55 33 6 141 27 240 47 99
20 205 40 235 45 60 10 291 55 355 69 22 5 78 15 125 24 135 24 241 45 450 88
107 22 245 48 305 58 61 10 135 24 165 29 30 6 80 16 110 21 148 27 278 52
310 60 51 14 238 41 284 42 21 0 50 7 65 14 14 8 39 14 54 14 37 0 291 48 432
81 49 12 199 38 280 49 33 4 87 15 120 25 96 28 191 42 245 37 45 -4 54 -9 90
-52 31 -37 48 -49 77 -53 21 -3 49 -9 63 -12 24 -6 24 -6 6 9 -17 14 -17 16
-3 16 24 0 67 -22 67 -34 -1 -6 -13 -35 -28 -64 -32 -61 -84 -95 -130 -86 -30
6 -47 -11 -34 -33 17 -26 111 -62 200 -78 53 -9 144 -35 202 -57 104 -40 129
-52 264 -122 37 -20 78 -36 91 -36 26 0 78 25 95 45 7 8 18 15 25 15 6 0 32
13 56 30 47 31 95 38 131 19 12 -7 48 -18 80 -25 32 -8 84 -28 115 -46 61 -35
95 -49 178 -74 120 -37 153 -49 207 -76 63 -31 113 -36 122 -13 3 8 18 15 34
15 27 0 80 29 55 30 -26 0 -12 27 22 43 30 14 34 21 29 42 -8 30 12 36 113 32
55 -1 73 -6 76 -17 2 -9 43 -29 103 -48 54 -18 111 -40 126 -48 14 -7 42 -14
61 -14 20 0 39 -5 42 -10 3 -6 15 -10 26 -10 22 0 43 -43 35 -73 -8 -31 22
-90 57 -115 18 -12 37 -22 43 -22 5 0 3 4 -5 9 -21 13 -4 30 30 29 35 -1 49
-17 25 -30 -9 -5 -16 -18 -16 -28 0 -44 -53 -45 -103 -2 -27 23 -29 10 -6 -38
18 -37 19 -46 8 -67 -11 -20 -11 -28 0 -45 12 -19 11 -23 -5 -35 -27 -20 -37
-16 -30 12 4 14 2 25 -3 25 -16 0 -23 32 -30 125 -5 80 -8 91 -28 100 -19 8
-22 15 -17 46 6 34 -8 60 -23 45 -9 -9 17 -229 29 -243 12 -15 1 -70 -12 -57
-9 9 -23 60 -44 159 -14 71 -21 85 -43 85 -13 0 -15 -8 -10 -47 l6 -48 -18 45
c-17 42 -41 65 -41 39 0 -20 -51 -61 -63 -51 -7 5 -23 6 -37 3 -30 -8 -43 -51
-41 -130 2 -54 1 -54 -18 -36 -18 16 -21 16 -27 2 -8 -22 3 -37 27 -37 10 0
19 -4 19 -9 0 -4 11 -25 26 -46 30 -44 29 -82 -1 -77 -11 2 -29 4 -40 5 -12 1
-24 13 -30 31 -11 31 -35 47 -35 23 0 -11 -38 -37 -55 -37 -3 0 -5 15 -5 33 0
18 -9 50 -20 72 -11 22 -20 54 -20 72 0 23 -5 33 -15 33 -13 0 -14 -11 -9 -69
4 -45 3 -71 -4 -75 -7 -4 -13 8 -17 31 -8 48 -32 103 -45 103 -5 0 -10 -5 -10
-11 0 -6 -7 -17 -15 -25 -21 -21 -19 -60 4 -83 28 -28 34 -71 16 -114 -10 -24
-13 -50 -9 -77 4 -27 3 -40 -5 -40 -6 0 -11 5 -11 10 0 6 -20 33 -45 59 -25
26 -45 53 -45 59 0 6 12 17 28 24 24 12 27 19 30 68 3 77 -18 104 -73 92 -38
-7 -40 -9 -43 -51 -2 -32 1 -46 14 -55 14 -11 16 -23 10 -79 -6 -64 -6 -66 24
-87 16 -12 30 -27 30 -33 0 -17 -49 -35 -85 -32 -45 4 -45 4 -45 20 0 8 -5 15
-11 15 -6 0 -8 -8 -4 -19 4 -13 -2 -23 -19 -35 -43 -28 -57 -22 -50 23 4 22 1
61 -5 88 -6 26 -12 67 -14 91 -2 27 -11 51 -25 64 -25 26 -33 21 -33 -18 1
-28 2 -46 15 -139 15 -107 18 -192 7 -199 -8 -5 -11 11 -11 53 0 34 -7 102
-16 151 -8 50 -13 94 -10 98 3 5 -3 15 -12 23 -41 35 -42 33 -35 -45 5 -69 4
-76 -12 -76 -15 0 -17 -6 -10 -42 3 -24 8 -56 9 -73 2 -16 4 -34 6 -40 5 -20
0 -36 -10 -30 -5 3 -10 19 -10 34 0 15 -3 31 -7 35 -10 10 -32 96 -33 128 0
34 -19 47 -27 19 -4 -15 -13 -21 -34 -21 -33 0 -32 4 -28 -125 4 -131 0 -176
-16 -172 -5 1 -9 5 -8 9 3 8 -25 78 -32 78 -2 0 -3 -12 -2 -27 1 -18 -3 -28
-12 -28 -13 0 -27 36 -45 118 -11 49 -26 18 -27 -56 -1 -54 -3 -65 -9 -42 -4
17 -8 47 -9 68 0 21 -5 36 -10 33 -5 -3 -7 -23 -4 -45 3 -21 0 -48 -6 -60 -13
-23 0 -59 25 -74 8 -4 14 -12 14 -17 0 -16 -46 -11 -61 6 -7 9 -21 13 -34 10
-15 -4 -28 1 -40 14 -10 12 -28 19 -39 18 -15 -2 -21 3 -21 16 0 29 -22 30
-27 2 -6 -28 5 -51 19 -43 12 7 36 -40 28 -54 -10 -14 -61 -10 -75 6 -7 8 -22
15 -34 15 -12 0 -26 4 -31 9 -15 14 -75 24 -75 13 0 -16 66 -53 82 -47 8 3 22
-3 32 -14 10 -11 24 -17 31 -15 7 3 24 0 36 -6 18 -10 20 -14 7 -21 -8 -4 -30
-10 -49 -12 -19 -3 -48 -12 -66 -21 -36 -19 -157 -34 -308 -37 -55 -2 -106 -7
-113 -13 -10 -7 -19 -4 -32 14 -15 20 -21 22 -33 12 -8 -7 -26 -10 -39 -7 -41
10 -57 -19 -55 -100 l2 -70 -49 -25 c-62 -30 -159 -39 -184 -18 -26 23 -51 29
-72 18 -13 -7 -21 -5 -31 6 -9 11 -22 14 -43 10 -20 -4 -35 -1 -49 11 -18 17
-19 17 -16 -7 3 -17 10 -24 21 -22 11 2 22 -12 34 -44 l17 -46 14 26 c16 31
39 34 48 6 8 -27 -1 -40 -30 -40 -12 0 -43 -11 -66 -25 -24 -14 -51 -25 -59
-25 -8 0 -37 -9 -65 -20 -195 -75 -223 -83 -289 -76 -42 4 -67 3 -71 -4 -5 -7
-26 -9 -61 -4 -38 4 -59 2 -69 -6 -13 -10 -19 -10 -34 4 -24 22 -96 19 -96 -4
0 -9 11 -16 27 -18 14 -2 32 -10 38 -18 7 -8 27 -14 46 -14 18 0 35 -4 38 -9
11 -17 -19 -28 -104 -41 -47 -7 -98 -17 -115 -22 -16 -6 -109 -12 -205 -14
-187 -4 -271 -13 -270 -29 0 -5 12 -11 28 -12 55 -5 107 -16 119 -25 7 -6 19
-5 33 2 12 7 33 9 47 5 14 -3 31 -1 38 5 15 12 47 2 42 -14 -2 -6 -23 -11 -46
-11 -28 0 -47 -6 -54 -16 -7 -9 -33 -20 -57 -24 -25 -4 -52 -11 -60 -16 -8 -5
747 -9 1710 -9 l1726 0 66 28 c36 15 72 33 80 39 8 7 33 15 56 19 36 6 42 4
42 -11 0 -14 6 -16 34 -11 39 8 59 -10 26 -22 -20 -7 -20 -9 -6 -22 14 -11 21
-11 41 0 20 11 28 10 49 -4 23 -15 187 -16 2040 -16 l2014 0 29 23 c15 12 38
29 49 37 12 8 78 53 145 99 68 46 138 98 154 116 17 17 45 40 63 51 31 18 33
22 30 69 -3 42 -6 50 -24 53 -11 2 -26 -4 -33 -11 -9 -12 -6 -17 19 -25 48
-17 37 -37 -27 -52 -44 -9 -53 -14 -40 -22 9 -5 17 -16 17 -23 0 -25 -52 -17
-172 26 -62 23 -142 52 -178 65 -36 12 -101 36 -145 52 -44 16 -132 48 -195
71 -63 23 -149 55 -190 71 -41 16 -127 48 -190 71 -63 23 -152 57 -198 77 -45
19 -84 33 -87 30 -3 -2 -8 -19 -11 -36 -6 -28 -4 -32 14 -32 12 0 26 -9 32
-20 6 -12 21 -20 35 -20 19 0 25 -5 25 -21 0 -18 -4 -20 -27 -15 -16 4 -40 16
-55 27 l-28 20 -30 -23 -30 -22 57 -15 c32 -9 67 -21 77 -27 19 -11 19 -13 -5
-42 -26 -33 -49 -41 -49 -17 0 14 -18 27 -64 45 -24 9 -25 8 -19 -20 7 -36
-10 -60 -42 -60 -34 0 -59 34 -52 69 4 17 2 33 -3 36 -16 10 -50 -14 -50 -35
0 -12 -7 -20 -17 -20 -9 0 -31 -5 -50 -12 -38 -14 -38 -13 -48 29 -4 21 -3 33
4 33 6 0 11 -9 11 -20 0 -30 18 -24 62 21 31 32 37 43 27 50 -8 5 -17 9 -21 9
-5 0 -17 8 -28 17 -11 10 -29 26 -41 36 -30 27 -14 34 21 9 31 -24 55 -28 65
-12 13 21 54 10 75 -20 26 -37 38 -38 50 -5 6 17 20 27 40 31 23 5 30 12 32
30 0 13 1 29 2 35 1 6 -28 21 -64 33 -236 82 -383 137 -508 189 -52 22 -53 23
-46 57 3 19 10 43 16 53 11 22 34 17 32 -7 -2 -17 25 -23 27 -6 1 6 2 14 3 19
0 5 5 13 9 18 5 4 8 -3 6 -17 -5 -39 8 -50 62 -50 27 0 57 -4 67 -9 44 -21 89
-40 112 -46 14 -4 33 -14 42 -22 13 -12 21 -12 38 -3 28 15 21 34 -15 37 -16
1 -35 8 -42 16 -12 12 -9 13 19 9 18 -2 47 -10 65 -18 17 -8 36 -14 42 -14 6
0 11 -7 11 -16 0 -11 -6 -14 -22 -10 -13 3 -17 3 -10 0 6 -3 12 -12 12 -20 0
-11 9 -14 33 -12 24 2 31 7 29 20 -3 17 8 22 37 18 10 -1 12 6 7 24 -4 18 -1
28 11 35 10 6 14 11 9 11 -5 0 -3 7 4 15 7 8 10 15 6 15 -3 0 -1 11 4 24 5 15
5 27 -2 34 -6 6 -5 16 3 30 10 17 10 23 0 36 -8 9 -21 16 -31 16 -10 0 -20 7
-24 15 -7 20 17 19 90 -4 293 -94 831 -270 919 -300 156 -55 515 -171 526
-171 5 0 9 8 9 19 0 15 -24 27 -122 61 -68 23 -138 48 -156 56 -18 8 -39 14
-46 14 -8 0 -157 47 -333 105 -175 58 -424 139 -553 181 -129 42 -244 80 -255
85 -11 5 -32 13 -47 18 -26 10 -26 11 -26 111 l-1 101 37 -7 c20 -4 44 -10 53
-15 9 -4 63 -21 120 -38 57 -16 178 -53 269 -81 91 -28 217 -66 280 -85 140
-42 233 -71 703 -217 37 -11 70 -18 74 -15 17 18 -17 36 -128 71 -68 21 -144
44 -169 52 -98 31 -378 117 -420 129 -25 8 -106 32 -180 55 -127 40 -207 64
-410 126 -47 15 -116 37 -155 49 l-69 23 -1 56 c-1 31 -3 58 -6 60 -2 3 -27
10 -54 17 -28 6 -61 17 -75 24 -14 7 -43 16 -65 20 -22 4 -76 20 -120 35 -44
16 -114 38 -155 50 -41 12 -93 28 -116 36 -23 8 -79 25 -125 38 -46 13 -117
36 -156 50 -40 14 -77 26 -82 26 -6 0 -13 -23 -17 -50 -7 -56 -15 -65 -41 -52
-27 13 -143 50 -183 57 -19 4 -66 17 -105 30 -78 26 -229 73 -320 99 -33 10
-78 24 -100 31 -22 8 -94 30 -160 50 -66 20 -187 58 -270 85 -251 81 -314 100
-327 100 -7 0 -19 4 -27 9 -12 8 -6 17 28 48 24 21 53 46 64 57 19 18 23 18
81 3 182 -47 411 -110 566 -156 96 -29 220 -65 275 -81 55 -16 163 -47 240
-70 77 -22 172 -50 210 -62 100 -30 230 -66 305 -85 36 -8 74 -19 85 -23 11
-4 63 -20 115 -35 52 -15 122 -35 155 -45 33 -10 111 -32 173 -49 l113 -32 57
39 c31 21 92 62 135 91 l78 53 117 -31 c64 -17 194 -51 287 -75 220 -57 295
-77 435 -116 63 -17 156 -42 205 -55 50 -13 124 -33 165 -44 112 -32 150 -37
150 -18 0 8 -10 18 -22 21 -13 4 -72 20 -133 36 -60 16 -137 36 -170 45 -114
31 -290 77 -315 82 -14 3 -56 14 -95 25 -38 12 -171 47 -295 80 -124 32 -256
67 -295 78 -38 10 -140 36 -225 58 -185 47 -413 109 -605 162 -77 22 -178 49
-225 60 -47 12 -101 26 -120 31 -19 6 -53 14 -75 19 -22 4 -69 17 -105 28 -36
12 -164 46 -285 78 -256 65 -373 96 -470 123 -38 10 -113 31 -165 45 -101 27
-160 51 -160 67 0 13 18 11 23 -3 4 -10 7 -10 18 -1 11 11 9 18 -9 43 -13 17
-22 36 -21 43 1 6 -1 20 -6 30 -10 25 -4 28 36 17 18 -5 97 -23 174 -41 189
-43 503 -118 540 -129 17 -5 77 -21 135 -34 108 -25 522 -126 990 -240 525
-128 677 -165 805 -196 72 -17 193 -46 270 -65 77 -19 219 -53 315 -76 96 -23
244 -59 329 -81 84 -21 156 -37 159 -34 12 12 -10 35 -40 41 -133 27 -499 119
-523 131 -17 8 -82 74 -145 146 -63 72 -129 147 -145 166 -32 35 -47 41 -240
81 -198 43 -503 109 -555 121 -60 14 -233 52 -275 61 -112 23 -143 30 -180 39
-57 14 -191 44 -325 73 -156 34 -342 76 -415 94 -142 33 -133 35 -231 -55 -48
-44 -94 -82 -103 -84 -9 -3 -92 14 -186 37 -93 23 -197 47 -230 54 -33 7 -75
19 -93 27 -18 8 -41 14 -51 14 -10 0 -29 9 -42 19 -24 20 -24 20 -4 35 20 14
20 15 -9 45 -34 35 -61 41 -53 12 4 -18 3 -18 -31 -4 -19 8 -45 12 -57 9 -18
-5 -46 18 -151 122 -143 141 -222 192 -298 192 -69 0 -203 -49 -276 -100 -14
-10 -46 -21 -71 -25 -39 -5 -47 -3 -52 12 -6 17 -27 53 -37 63 -3 3 -18 24
-33 46 -27 40 -30 42 -95 48 -37 4 -87 13 -112 20 -25 7 -67 18 -95 24 -27 6
-102 23 -165 37 -158 37 -215 49 -360 80 -69 15 -138 30 -155 35 -16 5 -77 18
-135 30 -137 29 -130 26 -130 49 0 17 5 19 33 14 28 -4 34 -2 33 13 -1 11 4
19 9 19 6 0 10 -11 10 -25 0 -18 6 -25 20 -26 11 -1 25 -2 30 -4 6 -1 28 -4
50 -6 22 -1 57 -6 78 -9 30 -6 37 -4 37 9 0 18 25 22 35 5 4 -6 -2 -13 -14
-16 -12 -3 -21 -12 -21 -19 0 -13 51 -20 132 -17 15 0 26 -4 25 -10 -2 -12 78
-29 136 -29 20 0 37 -3 37 -7 0 -4 26 -13 58 -20 31 -7 67 -17 80 -22 25 -10
127 -2 152 12 12 6 8 11 -17 21 -45 17 -42 32 5 24 20 -4 64 -10 97 -14 l60
-7 -34 -13 c-19 -6 -42 -12 -51 -12 -10 0 -28 -9 -41 -20 l-24 -19 27 -1 c15
0 53 7 85 16 32 9 74 19 93 22 l35 5 -19 -22 c-19 -21 -19 -21 2 -21 11 0 24
5 27 10 12 19 35 -10 29 -35 -7 -28 11 -65 31 -65 12 0 15 14 15 61 0 59 1 61
23 54 22 -7 57 -13 90 -14 10 -1 17 -7 16 -13 -3 -27 2 -38 16 -38 18 0 20 16
3 23 -27 11 50 6 122 -8 41 -8 111 -21 155 -29 127 -23 257 -50 345 -72 30 -7
87 -19 125 -25 39 -7 76 -17 84 -23 8 -6 35 -11 60 -12 42 -1 209 -29 321 -54
25 -6 74 -15 110 -21 36 -6 74 -15 85 -19 20 -8 51 -13 244 -45 51 -9 97 -17
100 -20 4 -2 108 -24 232 -48 123 -25 238 -48 254 -52 17 -3 53 -10 80 -15 28
-5 109 -20 180 -35 72 -15 157 -31 190 -36 33 -5 78 -13 100 -18 22 -5 78 -17
125 -26 47 -10 123 -26 170 -38 47 -11 95 -20 107 -19 12 1 34 -3 49 -8 14 -6
54 -15 88 -20 98 -15 422 -80 656 -131 25 -6 70 -14 100 -19 30 -5 82 -14 115
-19 33 -6 116 -22 185 -37 69 -14 145 -30 170 -34 25 -5 65 -13 90 -19 73 -17
70 -21 70 87 l0 98 -112 22 c-146 28 -305 57 -393 72 -38 7 -151 28 -250 46
-99 19 -216 41 -260 49 -44 8 -152 28 -240 45 -88 16 -189 34 -225 40 -36 6
-108 20 -160 30 -52 10 -140 25 -195 35 -55 9 -129 22 -165 30 -105 22 -165
33 -355 70 -274 52 -602 115 -680 130 -38 8 -133 26 -210 40 -77 14 -185 34
-240 45 -55 10 -118 21 -140 25 -22 3 -119 21 -215 40 -96 18 -263 50 -370 70
-107 20 -283 54 -390 75 -180 36 -343 66 -595 110 -287 50 -345 61 -400 75
-84 21 -323 65 -365 68 -19 1 -77 -2 -127 -7 l-93 -9 0 -460 0 -460 -35 6
c-41 7 -73 29 -100 70 -31 46 -50 55 -74 33 l-21 -19 -1 1271 c-1 700 -2 1278
-3 1285 -1 8 19 12 69 12 l70 0 3 -42 c3 -35 7 -43 23 -43 19 0 22 7 23 60 1
25 3 25 100 30 54 3 103 2 108 -1 7 -4 8 -27 4 -60 -4 -30 -9 -105 -12 -168
-5 -92 -3 -112 8 -109 7 3 14 21 16 41 4 41 16 47 32 17 8 -15 17 -18 43 -14
27 5 30 3 17 -8 -8 -7 -16 -18 -17 -24 -3 -18 53 -37 84 -30 27 7 133 9 293 8
62 -1 154 2 241 7 12 1 16 9 14 34 -3 41 3 57 24 57 11 0 12 -3 4 -8 -8 -5 -9
-12 -2 -22 8 -13 10 -13 19 0 5 8 10 11 10 7 0 -4 -7 -19 -16 -32 -9 -13 -13
-28 -10 -34 4 -5 58 -9 129 -7 67 1 140 -1 162 -5 48 -9 50 -7 35 21 -11 21
-17 22 -71 16 -37 -3 -59 -2 -59 5 0 6 -6 6 -19 -1 -27 -14 -44 -13 -38 3 2 6
10 12 18 12 8 0 14 5 14 12 0 19 14 27 27 16 21 -17 48 -11 48 9 0 33 38 21
56 -18 17 -35 39 -53 51 -41 6 7 -21 52 -44 75 -7 7 -13 22 -13 32 0 10 -9 20
-20 23 -19 5 -29 37 -12 37 10 0 110 -132 129 -171 8 -16 18 -29 23 -29 5 0
11 -8 14 -18 3 -9 19 -32 35 -50 l30 -32 295 0 c191 0 296 -4 296 -10 0 -11
-17 -12 -151 -10 -55 1 -100 -3 -103 -8 -3 -6 8 -25 24 -44 17 -18 39 -42 49
-53 9 -11 20 -28 24 -38 4 -9 17 -21 31 -27 13 -5 26 -12 28 -17 3 -4 4 -3 2
3 -4 17 36 4 58 -18 13 -13 23 -16 31 -10 7 6 30 8 52 5 22 -2 51 -4 65 -4 14
-1 40 -10 59 -20 27 -16 36 -17 48 -7 33 27 57 34 90 23 18 -5 33 -13 33 -17
0 -5 5 -8 10 -8 6 0 9 5 8 12 -2 7 3 13 10 14 6 1 13 3 15 4 1 1 14 3 29 4 15
1 30 5 34 9 4 4 14 7 22 7 8 0 47 20 86 45 40 25 78 45 84 45 14 0 108 91 105
101 -1 3 16 14 37 24 36 16 60 48 46 62 -3 3 -96 6 -208 8 -112 1 -213 6 -225
10 -32 10 -19 25 22 25 36 0 52 14 38 33 -5 7 -8 23 -7 37 2 14 -7 52 -18 85
-11 33 -22 87 -24 120 -4 63 -22 131 -55 205 -20 44 -63 80 -96 80 -13 0 -13
3 -2 16 12 14 14 14 25 0 10 -14 13 -14 23 -2 14 16 8 21 -36 30 -28 7 -34 4
-47 -22 -8 -16 -26 -37 -40 -46 -14 -9 -28 -27 -32 -41 -8 -33 -24 -32 -25 3
0 15 -2 60 -3 100 -3 62 0 74 16 83 22 12 215 -6 234 -21 10 -9 49 -82 68
-130 4 -8 17 -33 31 -55 13 -22 44 -79 69 -127 25 -47 49 -89 54 -92 5 -3 44
0 87 7 60 9 79 16 81 29 1 9 -5 19 -13 23 -14 5 -13 8 3 24 10 10 22 16 27 14
11 -6 34 20 29 35 -2 6 1 12 8 12 6 0 8 4 5 10 -3 5 0 7 8 4 8 -3 21 1 29 8 8
7 28 21 45 30 27 14 34 14 44 2 6 -8 17 -14 23 -14 6 0 3 7 -7 14 -10 8 -15
20 -11 30 8 20 18 20 34 2 7 -9 27 -14 51 -13 28 1 43 -4 54 -18 14 -19 17
-18 70 40 31 33 104 110 163 170 59 61 120 128 136 150 16 22 34 45 40 50 7 6
38 44 71 85 33 41 72 88 88 104 16 16 48 54 70 84 23 30 43 49 45 43 2 -7 -2
-20 -10 -29 -8 -9 -18 -25 -21 -34 -4 -10 -11 -18 -16 -18 -5 0 -12 -12 -16
-27 -3 -15 -23 -41 -42 -57 -40 -34 -41 -35 -84 -90 -25 -33 -27 -41 -15 -48
22 -13 49 8 68 53 11 27 21 37 31 33 9 -3 22 4 31 17 12 17 19 20 27 12 16
-16 3 -45 -18 -42 -22 4 -63 -21 -63 -38 0 -17 40 -16 83 2 22 9 38 11 42 5 3
-5 8 -152 10 -326 5 -324 14 -438 16 -188 0 76 6 222 12 324 l12 185 32 -3
c17 -2 46 3 65 11 19 8 69 14 115 15 45 0 88 4 95 8 7 5 16 9 20 9 12 0 22 15
10 15 -6 0 -9 6 -6 14 4 11 -4 16 -28 18 -18 2 -28 6 -23 9 20 12 74 -11 77
-33 4 -28 21 -33 42 -12 14 13 14 19 4 32 -10 12 -10 14 0 8 6 -4 12 -3 12 3
0 5 -6 12 -12 14 -10 4 -10 6 -1 6 6 1 15 -3 18 -9 3 -5 13 -10 22 -10 13 0
13 3 3 15 -14 17 0 21 17 4 13 -13 36 -3 27 12 -3 5 -10 7 -15 4 -5 -4 -14 -3
-20 1 -17 10 11 24 50 24 25 0 32 4 27 15 -3 8 0 15 6 15 6 0 16 7 22 16 11
14 14 14 36 -4 20 -16 22 -22 12 -35 -14 -16 0 -33 17 -23 5 4 11 1 13 -6 3
-9 10 -8 26 4 12 8 19 19 14 23 -4 5 4 2 18 -6 14 -9 53 -19 87 -22 53 -6 64
-4 71 11 5 9 7 23 5 30 -5 14 23 17 32 2 3 -5 11 -10 16 -10 6 0 7 5 3 11 -4
8 0 8 15 0 23 -13 25 -19 11 -41 -8 -13 -10 -12 -10 3 0 10 -5 15 -11 12 -6
-4 -8 -14 -5 -22 5 -12 1 -14 -19 -11 -26 6 -51 -14 -40 -32 9 -14 41 -13 57
3 14 15 18 15 173 18 65 1 113 7 118 13 5 7 9 8 15 1 7 -11 114 -12 192 -2 93
12 190 17 345 18 88 0 176 5 195 9 19 5 103 12 185 16 83 3 168 9 190 13 l40
7 3 393 2 394 -47 -7 c-103 -15 -344 -47 -458 -61 -66 -8 -147 -19 -180 -25
-33 -5 -103 -14 -155 -21 -52 -6 -140 -17 -195 -24 -55 -8 -149 -19 -210 -25
-60 -5 -132 -14 -160 -20 -105 -19 -425 -64 -535 -74 -25 -2 -94 -11 -155 -20
-103 -15 -162 -23 -340 -47 -38 -5 -119 -15 -180 -24 -60 -8 -141 -17 -178
-21 l-68 -7 -70 -93 c-38 -51 -78 -104 -89 -116 -10 -13 -49 -63 -86 -113 -87
-117 -80 -111 -102 -92 -10 9 -23 17 -29 17 -6 0 -18 10 -26 23 -9 12 -16 17
-16 11 -1 -6 6 -17 14 -24 29 -24 15 -44 -53 -77 -37 -17 -75 -34 -84 -37 -10
-3 -18 -15 -18 -26 0 -15 -7 -20 -25 -20 -34 0 -32 20 10 74 19 26 35 49 35
52 0 3 -12 4 -27 2 -22 -2 -28 -8 -26 -26 2 -16 -5 -26 -22 -34 -36 -16 -43
-2 -20 40 19 34 24 37 79 44 50 7 61 5 72 -10 11 -14 13 -15 14 -1 0 8 -16 31
-36 50 -44 42 -56 69 -59 139 -2 30 -3 61 -4 68 -1 6 -7 12 -14 12 -16 0 -18
-96 -3 -119 12 -18 -37 -63 -60 -54 -13 5 -13 7 1 23 19 21 19 36 0 44 -13 4
-13 9 -3 25 9 15 9 23 -1 35 -24 29 -31 6 -31 -102 0 -59 -5 -123 -10 -142 -7
-25 -7 -41 2 -57 14 -27 4 -41 -16 -23 -13 10 -18 9 -30 -3 -11 -10 -26 -12
-60 -7 -55 8 -64 3 -76 -40 -8 -27 -6 -40 8 -64 15 -27 25 -31 65 -34 49 -3
60 -15 30 -31 -17 -8 -171 -21 -446 -36 -94 -6 -111 -4 -128 11 -16 15 -32 16
-111 10 -53 -3 -97 -11 -104 -19 -21 -22 -72 -161 -84 -227 -7 -36 -15 -103
-18 -150 l-7 -85 -38 56 -37 56 -303 8 c-166 5 -318 9 -337 9 l-35 1 -2 100
c-1 116 8 152 40 151 18 -1 23 6 28 43 3 24 13 49 22 56 15 11 16 14 2 25 -30
25 -12 50 36 50 11 0 27 4 37 9 18 9 104 44 162 67 19 7 30 13 23 14 -17 0 -9
33 12 44 10 6 37 28 59 48 22 21 46 38 53 38 7 0 19 11 25 25 6 14 17 25 24
25 7 0 21 11 32 25 20 25 47 39 92 49 14 3 39 23 55 45 33 45 45 51 45 21 0
-13 7 -20 20 -20 11 0 20 7 20 15 0 18 12 19 27 4 15 -15 47 -3 37 12 -5 8 -3
9 6 4 8 -5 18 -2 26 9 11 16 14 16 36 2 31 -20 50 -7 51 38 1 22 5 32 10 27
12 -12 37 -3 37 14 0 7 7 18 15 25 8 7 15 19 15 27 0 22 51 73 89 90 41 18 50
8 52 -52 0 -22 4 -49 8 -60 6 -15 10 -5 15 40 4 33 8 67 9 75 2 11 34 20 118
35 76 13 122 26 133 38 10 9 21 17 26 17 5 0 29 19 52 43 24 23 58 53 77 66
18 13 48 38 66 55 38 36 79 71 124 105 17 13 37 35 44 50 7 14 21 27 33 29 24
3 62 68 48 82 -5 5 -34 15 -64 21 -30 6 -73 15 -95 20 -146 32 -182 39 -235
45 -69 8 -91 25 -71 57 14 22 8 30 -63 80 -35 24 -34 47 2 47 32 0 52 16 52
42 0 25 -37 43 -56 28 -11 -10 -19 -9 -39 4 -15 10 -29 24 -32 32 -7 18 -47
18 -63 -1 -7 -8 -10 -26 -8 -40 6 -30 4 -31 -33 -5 -30 22 -30 45 2 53 24 6
25 27 2 26 -47 -3 -74 -17 -102 -53 -24 -30 -28 -42 -20 -57 7 -14 6 -19 -3
-19 -6 0 -26 -14 -43 -30 -20 -19 -47 -33 -71 -37 -21 -3 -58 -19 -81 -34 -45
-30 -56 -22 -32 22 7 15 7 24 -2 35 -16 19 -38 18 -45 -3 -3 -10 -9 -27 -14
-38 -5 -11 -11 -28 -14 -37 -3 -12 -16 -18 -35 -18 -36 0 -44 -19 -44 -112 0
-59 -2 -67 -21 -71 -12 -2 -79 -17 -151 -32 -71 -15 -137 -31 -146 -36 -15 -7
-75 -110 -182 -309 -118 -220 -138 -249 -170 -254 -18 -2 -62 -9 -98 -15 -98
-16 -156 -14 -167 5 -10 17 -10 17 -102 -6 -34 -9 -59 -9 -100 0 -37 8 -63 8
-81 2 -14 -6 -57 -18 -95 -27 -105 -25 -105 -25 -114 -49 -7 -19 -18 -24 -67
-29 -32 -3 -76 -9 -98 -12 -38 -5 -38 -4 -10 5 17 6 48 14 69 18 22 4 41 13
44 21 4 11 -7 12 -54 6 -77 -9 -107 -22 -100 -40 3 -10 -6 -17 -32 -25 -42
-12 -193 -33 -198 -27 -9 9 -4 1121 5 1130 7 7 15 7 23 0 7 -6 33 -13 58 -16
25 -3 102 -14 172 -24 147 -22 175 -37 153 -81 -29 -58 -30 -154 -2 -125 10 9
90 16 176 14 55 -1 80 -6 93 -18 17 -15 20 -15 28 -3 6 10 4 17 -5 23 -8 4
-15 12 -15 16 0 9 68 31 97 31 11 0 26 6 32 13 17 21 119 43 133 29 17 -17 38
-15 38 3 0 8 -4 15 -10 15 -5 0 -10 5 -10 11 0 8 15 10 45 7 34 -4 51 -1 68
12 12 9 36 19 52 22 17 3 37 8 46 12 9 4 25 -2 39 -14 25 -22 35 -26 25 -10
-9 14 13 40 33 40 8 0 23 7 32 15 9 8 44 18 78 21 34 4 62 10 62 14 0 15 82
39 159 46 24 2 49 8 55 13 6 5 34 17 61 26 28 10 59 25 70 35 11 10 39 26 61
35 23 9 54 30 68 46 14 16 33 29 41 29 9 0 20 11 27 25 12 26 63 55 97 55 14
0 19 5 15 15 -4 11 3 19 26 26 22 8 28 15 21 22 -15 15 -14 28 3 25 29 -6 92
83 185 260 8 15 17 29 21 32 4 3 32 49 64 102 31 54 61 100 67 104 20 12 21
-5 1 -33 -41 -61 -79 -131 -86 -159 l-7 -29 26 33 c15 18 30 30 35 27 9 -6 2
-44 -13 -63 -5 -7 -7 -15 -3 -19 3 -3 6 -1 6 6 0 9 8 11 25 7 23 -6 24 -5 13
19 -9 21 -8 28 8 46 10 11 26 18 36 16 10 -3 24 0 31 6 6 7 25 17 41 22 16 6
28 12 26 15 -7 10 21 51 30 45 13 -8 50 13 50 28 1 16 75 78 130 108 25 13 48
28 51 32 3 5 22 6 40 2 28 -5 39 -2 53 14 11 12 28 21 39 21 11 0 29 8 39 17
11 10 31 18 46 18 17 1 31 9 37 23 10 23 30 29 40 12 4 -6 22 -8 43 -4 44 8
69 27 32 24 -39 -3 -50 -1 -50 10 0 15 47 31 97 35 26 2 50 11 65 25 13 12 19
21 13 20 -23 -5 -35 1 -35 17 0 13 3 14 12 5 7 -7 17 -12 22 -12 6 0 4 5 -4
10 -13 9 -13 10 0 11 8 1 22 2 30 3 8 0 18 -3 21 -7 3 -5 13 -2 21 7 9 8 18
12 22 9 3 -4 6 -2 6 4 0 6 -17 15 -37 20 -42 10 -90 1 -165 -28 -26 -11 -54
-19 -62 -19 -8 0 -32 -9 -52 -21 -21 -11 -50 -19 -68 -17 -26 3 -16 9 67 40
53 21 105 38 115 38 10 0 22 4 28 9 5 5 54 23 109 40 55 18 109 36 120 41 59
25 163 60 177 60 10 0 28 -11 42 -25 24 -24 76 -35 76 -16 0 5 18 12 40 16 22
4 58 15 79 26 48 23 61 24 61 5 0 -8 -19 -21 -42 -30 -90 -33 -165 -58 -213
-73 -60 -19 -127 -44 -138 -53 -27 -23 44 -64 188 -110 39 -12 142 -51 230
-86 106 -41 169 -61 185 -58 65 14 118 28 145 39 45 18 276 92 310 99 32 7
246 73 280 86 11 5 43 14 70 20 28 7 68 18 90 25 44 15 194 59 320 95 44 13
121 36 170 51 50 15 115 35 145 43 58 16 111 31 225 66 39 11 99 29 135 39 36
10 92 28 125 40 60 21 135 28 135 12 0 -12 -26 -21 -61 -21 -16 0 -48 -8 -72
-19 -23 -10 -76 -26 -117 -36 -41 -11 -86 -25 -100 -32 -14 -7 -39 -13 -56
-13 -16 0 -49 -9 -72 -20 -22 -11 -54 -20 -69 -20 -15 0 -41 -7 -57 -15 -15
-8 -39 -15 -53 -15 -14 0 -47 -11 -75 -25 -27 -14 -63 -25 -78 -25 -16 0 -32
-4 -35 -10 -3 -5 -16 -10 -28 -10 -29 0 -107 -30 -107 -42 0 -4 11 -13 25 -18
13 -5 43 -21 67 -36 26 -17 43 -23 46 -15 2 6 12 11 23 11 33 0 21 16 -21 29
-22 6 -40 16 -40 21 0 14 27 12 63 -5 40 -18 117 -35 117 -26 0 4 -21 18 -47
32 l-48 24 33 3 c21 2 41 -3 52 -13 9 -9 33 -18 52 -21 33 -6 35 -4 42 26 9
48 8 60 -9 60 -8 0 -15 5 -15 10 0 14 13 13 28 -2 16 -16 72 -20 72 -5 0 8 3
8 9 -1 6 -10 10 -10 21 3 7 8 29 16 49 16 20 1 28 3 18 6 -16 4 -15 7 7 24 26
21 67 25 96 9 13 -7 27 -5 49 6 26 13 37 14 61 4 29 -12 70 -6 70 10 0 5 15
12 34 15 27 5 35 13 42 37 9 30 11 31 69 32 l60 1 3 38 c3 32 0 37 -17 37 -27
0 -27 17 -1 25 16 5 20 15 20 51 0 24 -4 44 -10 44 -6 0 -10 79 -10 216 0 187
-2 218 -16 228 -23 18 -25 107 -3 201 24 102 24 126 -1 155 -24 28 -24 22 0
50 15 18 20 37 20 87 0 60 -1 64 -27 74 -47 18 -136 6 -180 -23 -21 -15 -49
-29 -63 -33 -14 -3 -33 -18 -42 -33 -10 -15 -23 -35 -30 -44 -10 -14 -10 -27
0 -63 7 -25 12 -67 12 -94 0 -53 -35 -144 -53 -138 -6 2 -23 24 -37 49 -47 84
-66 92 -115 47 -16 -14 -30 -17 -57 -13 -21 4 -38 2 -42 -5 -13 -20 -89 0
-118 31 -31 34 -58 35 -133 7 -39 -15 -65 -33 -91 -65 -20 -24 -48 -50 -63
-57 -29 -14 -37 -41 -22 -80 8 -21 17 -27 40 -27 50 0 81 -17 81 -44 0 -31
-26 -54 -42 -38 -17 17 -50 14 -73 -6 -26 -22 -55 -85 -55 -121 0 -16 -10 -37
-25 -51 -30 -29 -32 -53 -4 -91 11 -16 19 -34 17 -40 -4 -13 -165 -69 -173
-61 -3 3 -5 19 -5 37 0 17 -7 40 -15 51 -22 28 -18 34 19 34 26 0 40 7 56 28
19 23 21 35 15 82 -13 113 -13 115 18 118 19 2 35 15 52 42 13 21 29 41 35 45
15 9 12 25 -4 25 -30 0 -144 -59 -164 -85 -17 -21 -22 -41 -22 -85 0 -31 -3
-60 -6 -63 -4 -4 -19 0 -33 7 -14 8 -34 17 -43 20 -26 8 -22 33 8 53 33 21 46
56 34 88 -13 34 -36 41 -60 20 -17 -15 -24 -16 -46 -7 -60 28 -139 -4 -187
-76 -16 -23 -36 -42 -46 -42 -29 0 -44 -26 -37 -64 5 -27 2 -39 -16 -60 l-23
-25 -192 97 -193 96 -47 -18 c-27 -10 -82 -30 -123 -46 -41 -15 -118 -44 -170
-64 -52 -20 -104 -36 -114 -36 -17 0 -15 5 12 31 18 17 32 35 32 39 0 5 10 6
23 3 20 -5 20 -4 5 8 -30 25 -23 99 9 99 12 0 13 3 3 15 -6 8 -8 20 -4 27 10
16 11 18 20 163 10 167 9 498 -1 515 -14 23 -17 8 -105 -500 -77 -441 -75
-432 -95 -446 -10 -7 -41 -21 -69 -29 -28 -9 -63 -23 -78 -31 -14 -8 -32 -14
-40 -14 -7 0 -25 -6 -39 -14 -15 -7 -50 -22 -79 -31 l-53 -18 -18 24 c-10 13
-21 21 -25 17 -4 -4 -1 -14 6 -23 10 -12 10 -18 0 -30 -14 -17 -198 -90 -206
-82 -4 3 -1 21 5 39 35 108 2 286 -67 353 -44 43 -67 44 -111 4 -32 -29 -35
-39 -57 -163 -19 -113 -37 -199 -61 -293 -6 -27 12 -31 38 -7 19 17 39 12 39
-11 0 -7 -15 -17 -32 -20 -18 -4 -37 -11 -43 -15 -10 -8 -129 -57 -305 -125
-52 -20 -144 -56 -205 -80 -60 -23 -141 -54 -180 -69 -38 -14 -75 -30 -81 -34
-11 -7 -87 -135 -224 -372 -45 -80 -102 -178 -125 -219 l-43 -74 -88 -28 c-49
-16 -101 -29 -116 -29 l-27 0 15 37 c12 29 14 60 10 152 -12 211 -26 365 -35
374 -6 6 -14 -8 -21 -34 -16 -59 -72 -233 -132 -409 -28 -80 -52 -157 -55
-172 -3 -15 -10 -31 -17 -36 -23 -19 -404 -142 -437 -142 -11 0 -19 4 -19 8 0
4 -15 25 -33 45 -24 25 -37 33 -44 26 -7 -7 -17 -7 -32 3 -32 20 -25 29 22 28
71 -2 130 12 148 34 22 27 15 37 -20 30 -23 -5 -29 -2 -34 17 -7 26 -1 39 17
39 7 0 21 9 31 20 21 24 7 27 -43 9 -22 -8 -36 -7 -52 1 -19 10 -27 8 -51 -9
-51 -38 -106 -17 -58 22 13 11 23 25 21 32 -1 8 2 16 8 20 5 3 10 1 10 -4 0
-6 7 -11 15 -11 17 0 21 35 5 45 -19 12 -10 44 20 65 17 12 30 28 30 36 0 8
13 17 30 21 16 3 30 9 30 13 0 4 21 15 48 25 26 10 54 23 62 30 22 18 78 35
115 35 21 0 40 9 55 25 13 14 34 25 46 25 13 0 26 5 29 10 7 12 45 14 45 2 0
-4 -5 -13 -11 -19 -7 -7 -9 -19 -5 -29 8 -21 23 -8 28 25 4 31 24 38 31 11 3
-11 12 -20 21 -20 20 0 20 -10 1 -36 -20 -29 -8 -92 14 -68 9 10 88 209 93
234 2 9 -3 14 -12 12 -16 -4 -665 -259 -690 -271 -8 -5 -18 -21 -21 -37 -17
-70 -50 -170 -69 -206 -11 -21 -20 -46 -20 -56 0 -9 -12 -42 -26 -72 -14 -30
-23 -62 -21 -72 3 -9 -4 -35 -15 -58 -16 -31 -18 -43 -9 -54 9 -11 5 -18 -22
-35 -19 -12 -39 -21 -44 -21 -8 0 -223 -67 -321 -101 -19 -6 -36 -9 -38 -6 -3
3 -6 293 -7 646 l-2 640 -75 17 c-41 9 -127 31 -190 49 -63 18 -191 53 -285
79 -93 26 -192 53 -220 61 -133 39 -185 42 -185 10 0 -8 -6 -15 -12 -15 -25 0
-165 29 -209 43 -24 8 -71 23 -104 32 -33 10 -91 27 -128 38 -46 14 -72 18
-82 12 -134 -95 -257 -175 -270 -175 -14 0 -16 7 -10 43 4 23 14 51 23 62 45
56 111 118 140 132 18 9 31 21 29 27 -5 16 -127 55 -412 131 -129 34 -386 103
-540 145 -310 84 -297 80 -415 114 -223 66 -384 106 -391 98 -4 -4 -9 -16 -11
-27 -2 -13 -11 -19 -23 -18 -60 7 -156 25 -195 37 -25 8 -83 25 -130 39 -47
14 -144 44 -217 66 -72 23 -136 41 -141 41 -5 0 -49 -58 -97 -130 -47 -71 -92
-130 -100 -130 -24 0 -12 137 18 196 27 53 92 124 114 124 7 0 13 4 13 9 0 10
-85 42 -195 72 -44 12 -109 30 -145 40 -36 11 -99 28 -140 38 -41 11 -111 29
-155 40 -44 11 -91 21 -104 21 -20 0 -22 -3 -16 -22 10 -31 8 -79 -5 -92 -7
-7 -10 0 -10 21 0 17 -6 35 -12 40 -15 11 -77 25 -248 54 -69 11 -150 27 -180
36 -30 8 -86 21 -125 29 -38 8 -80 17 -93 20 -13 2 -20 9 -17 14 3 6 -4 10
-16 10 -12 0 -30 6 -38 13 -22 19 -122 58 -131 52 -5 -3 -12 -20 -15 -38 -11
-50 -66 -251 -73 -261 -7 -13 -20 22 -21 55 -1 19 -6 26 -18 25 -13 -1 -19 8
-21 29 -4 33 25 174 39 190 5 5 9 20 9 34 0 13 7 32 15 41 14 16 12 18 -27 33
-37 14 -132 41 -233 67 -16 4 -66 17 -110 29 -219 60 -302 83 -323 92 -13 5
-229 9 -500 8 -330 -1 -465 -4 -437 -11 22 -5 70 -10 107 -10 46 0 71 -4 79
-14 6 -8 22 -14 35 -14 12 0 26 -4 29 -10 3 -5 17 -10 30 -10 13 0 30 -6 37
-14 25 -24 77 -46 125 -52 33 -5 58 -15 78 -34 17 -15 55 -40 85 -56 60 -30
89 -59 90 -87 0 -10 11 -33 25 -51 13 -18 31 -48 39 -67 13 -31 13 -38 -4 -74
-11 -22 -20 -56 -20 -75 0 -38 -19 -82 -35 -84 -6 -1 -12 51 -15 129 l-5 129
-60 13 c-33 8 -80 18 -105 23 -25 5 -94 21 -155 35 -60 14 -132 30 -160 36
-27 6 -120 31 -205 56 -203 59 -220 64 -253 70 l-28 5 6 -128 c6 -118 5 -127
-9 -110 -19 24 -24 51 -30 194 -5 95 -3 114 10 119 8 3 21 20 28 38 13 30 18
33 82 42 52 8 -67 11 -463 12 l-533 1 0 -524z m354 73 c28 -5 59 -18 70 -28
12 -10 46 -24 76 -31 30 -7 64 -17 75 -23 11 -5 47 -13 80 -18 103 -13 227
-70 240 -110 4 -10 14 -19 24 -19 20 0 61 -51 61 -77 0 -10 9 -24 19 -30 33
-20 42 -75 30 -185 -5 -54 -7 -103 -4 -108 3 -6 0 -10 -8 -10 -17 0 -25 34
-33 149 -4 47 -11 91 -16 97 -5 7 -34 15 -66 19 -31 3 -147 26 -257 50 -110
24 -216 46 -235 48 -47 7 -148 32 -243 62 -43 14 -91 25 -108 25 -37 0 -45 20
-25 61 9 18 14 40 11 49 -7 22 39 65 61 56 9 -4 24 0 33 8 9 8 25 16 36 19 33
8 126 6 179 -4z m14092 -320 c16 -18 27 -20 65 -16 l46 6 17 -62 c10 -34 24
-72 32 -84 21 -32 59 -29 96 7 40 41 52 39 43 -7 -9 -51 -21 -63 -64 -63 -20
-1 -47 -7 -61 -15 -14 -8 -47 -14 -74 -15 -76 0 -115 -46 -86 -100 12 -23 -7
-36 -69 -46 -37 -6 -41 -4 -41 13 0 15 9 22 30 27 20 3 34 15 42 32 11 23 9
33 -15 75 -15 27 -27 63 -27 81 0 19 -9 41 -21 54 l-22 23 27 31 c14 17 26 39
26 49 0 37 28 41 56 10z m-12283 -124 c18 -4 43 -14 57 -23 22 -15 110 -42
236 -73 23 -6 60 -26 82 -44 22 -19 52 -39 66 -45 14 -5 26 -17 26 -27 0 -10
11 -42 25 -72 23 -48 24 -57 13 -95 -16 -57 -31 -70 -23 -21 4 22 2 52 -3 66
-9 22 -19 28 -59 33 -84 12 -529 107 -623 133 -113 31 -110 32 -111 -23 -3
-108 -27 -143 -54 -78 -14 34 -14 44 -1 95 9 35 31 79 55 113 l41 56 49 -5
c34 -3 52 0 60 9 12 14 99 14 164 1z m1459 -56 c2 -6 39 -15 82 -20 68 -9 85
-15 121 -45 40 -32 48 -35 126 -38 123 -5 146 -16 212 -92 31 -36 57 -75 57
-85 0 -11 5 -29 10 -39 6 -10 6 -21 2 -24 -10 -6 -128 11 -207 31 -108 26
-269 64 -315 73 -25 5 -78 21 -118 35 -41 14 -75 25 -77 25 -2 0 -26 -47 -54
-105 -27 -58 -55 -105 -60 -105 -16 0 -12 128 7 190 8 30 26 65 39 78 13 13
23 29 23 36 0 8 7 19 16 27 13 10 17 10 24 -1 7 -12 14 -9 38 13 15 15 33 27
40 27 7 0 12 7 12 15 0 17 17 20 22 4z m-3032 -218 c52 -11 248 -49 435 -85
187 -37 358 -71 380 -76 22 -5 90 -19 150 -30 61 -11 148 -30 195 -41 97 -24
205 -47 403 -86 l137 -28 1 -730 c1 -1000 -2 -3679 -4 -3681 -7 -7 -792 -28
-1461 -40 l-398 -7 6 2369 c4 1303 9 2387 10 2409 2 22 4 44 5 49 1 4 11 6 24
2 12 -3 65 -15 117 -25z m5291 -77 c10 -9 31 -17 46 -19 15 -1 39 -7 53 -13
14 -5 52 -16 85 -23 76 -16 143 -46 158 -71 7 -11 28 -28 48 -38 25 -13 38
-29 47 -56 17 -56 6 -63 -75 -47 -104 20 -319 72 -409 99 -44 13 -86 24 -93
24 -8 0 -60 -45 -118 -100 -57 -55 -107 -98 -112 -96 -4 3 -6 26 -5 51 4 68
38 116 164 230 28 25 80 41 80 25 0 -16 14 -12 61 20 52 35 48 34 70 14z
m7403 -228 c14 -25 26 -47 26 -49 0 -8 -178 -65 -225 -73 -22 -4 -62 -17 -90
-30 -27 -12 -68 -25 -90 -29 -22 -4 -49 -13 -60 -20 -29 -17 -134 -49 -141
-42 -11 11 7 27 31 27 25 0 98 30 103 42 2 4 16 5 32 2 18 -4 37 0 51 10 13 9
34 16 46 16 13 0 23 4 23 9 0 11 24 20 70 26 18 2 40 11 49 19 10 9 20 16 24
16 20 0 102 68 111 92 6 15 11 28 12 28 1 0 14 -20 28 -44z m-10797 -75 c76
-16 167 -34 203 -40 36 -6 214 -41 395 -77 182 -35 366 -71 410 -79 148 -27
379 -75 384 -81 9 -9 13 -4048 4 -4061 -8 -11 -710 -29 -1408 -36 l-140 -2 -3
1280 c-3 1186 6 3125 14 3125 2 0 66 -13 141 -29z m2345 -1 c2 -6 39 -17 83
-25 74 -14 152 -33 231 -54 18 -5 47 -20 65 -34 19 -13 44 -28 55 -31 14 -4
24 -17 26 -34 3 -15 7 -34 9 -42 3 -12 -6 -15 -47 -14 -49 1 -379 69 -477 98
-27 8 -54 13 -61 10 -6 -2 -42 -40 -81 -84 -38 -45 -77 -80 -87 -80 -19 0 -21
-8 27 103 9 20 22 37 30 37 8 0 15 8 15 19 0 10 14 35 30 56 17 21 30 42 30
46 0 18 22 8 27 -11 6 -24 21 -26 30 -5 3 9 22 24 42 35 42 22 48 23 53 10z
m1163 -280 c4 -6 15 -8 25 -5 11 3 31 -2 46 -11 21 -15 31 -16 56 -6 23 9 30
8 35 -4 3 -8 15 -14 28 -14 12 0 28 -7 35 -15 7 -8 23 -15 35 -15 12 0 28 -7
35 -15 7 -8 22 -15 34 -15 16 0 24 -10 34 -41 7 -23 9 -45 5 -50 -9 -8 -352
58 -442 85 -30 9 -56 16 -58 16 -2 0 -22 -17 -46 -38 -53 -49 -157 -122 -171
-122 -7 0 -19 -9 -29 -20 -9 -11 -23 -17 -32 -14 -11 5 -5 15 25 43 22 20 40
46 40 57 1 53 107 163 178 184 40 12 160 12 167 0z m-1590 -100 c114 -25 134
-36 108 -56 -10 -7 -14 -14 -10 -14 4 0 3 -9 -3 -20 -9 -17 -8 -20 8 -20 10 0
23 5 29 11 14 14 33 3 33 -20 0 -14 17 -19 108 -31 59 -7 145 -14 192 -15 47
-1 90 -4 95 -6 18 -6 55 12 55 26 0 15 -5 15 160 -13 l95 -17 5 -530 c3 -291
6 -1744 8 -3227 l2 -2698 -22 -5 c-13 -2 -72 -14 -133 -25 -60 -11 -137 -27
-170 -35 -33 -7 -125 -25 -205 -40 -80 -14 -203 -37 -275 -51 -395 -75 -535
-98 -544 -89 -7 8 -16 6939 -8 6958 5 13 145 -11 472 -83z m2982 20 c37 -12
82 -33 100 -46 17 -13 39 -24 47 -24 14 0 36 -54 36 -89 0 -18 -48 -11 -255
35 -88 20 -171 38 -185 41 -19 3 -44 -8 -95 -41 -114 -75 -174 -103 -184 -87
-8 13 0 68 13 90 11 17 147 111 161 111 7 0 20 9 31 21 17 19 26 20 140 16 90
-4 141 -11 191 -27z m-1947 -224 c85 -15 234 -51 249 -60 4 -3 23 -8 42 -11
18 -3 36 -9 39 -12 5 -5 -37 -1 -97 12 -25 5 -33 3 -33 -8 0 -18 42 -57 66
-62 11 -2 20 -4 22 -4 1 -1 4 -1 7 -1 3 0 14 -9 25 -20 12 -12 25 -18 31 -14
6 3 17 -2 24 -12 11 -15 17 -16 23 -6 11 17 70 33 77 21 4 -5 -1 -9 -9 -9 -28
0 -17 -20 14 -26 30 -6 40 -19 19 -26 -5 -2 -7 -11 -3 -22 6 -16 8 -17 16 -2
5 9 14 13 20 10 7 -4 8 -2 4 4 -5 8 1 12 18 12 13 0 26 5 28 12 8 22 25 -2 20
-28 -3 -19 -7 -22 -13 -12 -7 10 -9 10 -9 0 0 -7 -5 -10 -12 -6 -7 4 -8 3 -4
-4 4 -7 18 -12 32 -12 14 0 23 4 19 10 -3 5 12 14 34 21 34 10 42 9 56 -5 9
-9 22 -16 28 -16 8 0 8 3 -1 12 -9 9 -8 16 5 30 9 10 22 18 30 18 7 0 13 3 13
8 0 9 -49 32 -71 32 -9 0 -20 7 -23 15 -5 13 0 15 27 11 175 -29 284 -50 295
-56 11 -5 14 -190 18 -991 10 -2361 12 -3338 8 -3357 -4 -13 -14 -19 -32 -19
-15 0 -101 -8 -192 -17 -91 -9 -214 -21 -275 -26 -60 -6 -157 -15 -215 -20
-58 -6 -166 -15 -240 -19 -74 -5 -143 -12 -154 -17 -11 -4 -21 -2 -27 7 -4 7
-8 405 -8 884 -1 478 -4 1531 -8 2339 -6 1443 -6 1468 13 1462 10 -3 57 -12
104 -20z m1275 -256 c392 -76 545 -120 367 -105 -83 8 -107 -2 -54 -22 l27
-10 -30 -12 c-29 -12 -29 -13 -11 -27 19 -14 19 -14 -4 -36 -12 -12 -32 -23
-44 -24 -12 -1 -22 -3 -23 -4 -2 -2 -8 -3 -13 -4 -6 0 -15 -7 -19 -15 -5 -8
-28 -14 -52 -16 -24 -1 -43 -6 -42 -11 2 -12 -55 -16 -62 -4 -3 5 -18 2 -33
-6 -15 -7 -37 -14 -50 -14 -13 0 -21 -4 -18 -9 10 -15 -68 -10 -85 5 -15 13
-17 12 -21 -8 -3 -19 -3 -282 1 -398 2 -57 21 -14 21 48 0 41 3 52 16 52 9 0
23 -8 30 -17 7 -10 13 -13 13 -8 0 18 -27 47 -38 40 -6 -3 -11 1 -11 9 0 22 9
20 37 -6 14 -13 23 -33 23 -50 0 -17 4 -27 10 -23 6 3 10 2 10 -4 0 -5 -6 -12
-12 -14 -10 -4 -9 -8 2 -16 8 -5 11 -13 7 -17 -9 -9 13 -35 24 -28 5 3 9 -2 9
-10 0 -9 14 -22 30 -31 17 -9 30 -21 30 -29 0 -7 14 -17 32 -22 19 -6 32 -17
34 -29 2 -10 13 -27 26 -37 13 -10 19 -18 14 -18 -5 0 -3 -6 3 -14 8 -10 9
-16 1 -21 -5 -3 -10 -1 -10 6 0 7 -3 9 -7 6 -3 -4 3 -16 14 -27 12 -10 24 -16
27 -13 3 4 6 -2 7 -13 0 -11 3 -14 6 -6 3 7 -1 19 -7 27 -24 28 3 15 30 -15
21 -23 25 -37 21 -62 l-5 -33 -6 30 -6 30 -5 -26 c-4 -19 0 -30 13 -38 10 -6
16 -16 13 -21 -3 -5 -1 -12 5 -15 6 -4 10 -14 9 -23 -3 -34 1 -53 11 -47 6 3
10 0 10 -7 0 -9 3 -9 10 2 8 12 10 11 10 -7 0 -12 -5 -23 -12 -25 -7 -3 -8
-10 -4 -17 7 -11 10 -11 17 0 6 10 9 7 9 -11 0 -14 9 -31 19 -37 16 -10 18
-18 11 -50 -8 -32 -6 -41 13 -62 12 -13 15 -20 7 -16 -13 8 -13 7 0 -10 12
-15 12 -19 2 -23 -9 -3 -6 -8 10 -16 12 -6 23 -19 23 -27 0 -9 5 -23 12 -30 6
-8 13 -23 16 -34 4 -14 6 -11 5 10 0 48 1 55 13 55 6 0 9 -7 5 -15 -3 -9 0
-15 9 -15 22 0 21 -306 0 -334 -8 -11 -18 -16 -22 -13 -3 4 2 14 13 22 16 13
16 14 2 9 -17 -6 -18 4 -18 122 0 70 -2 125 -5 123 -10 -11 -7 -313 4 -317 6
-2 8 3 5 12 -4 10 -1 16 7 16 28 0 44 -19 41 -49 -3 -22 2 -33 18 -41 18 -10
19 -14 9 -27 -11 -13 -10 -18 6 -29 11 -9 14 -14 6 -14 -11 0 -11 -3 -1 -15 7
-8 9 -15 4 -15 -15 0 -10 -106 5 -120 11 -11 12 -7 6 20 -5 23 -4 30 4 26 15
-9 14 -72 -1 -99 -7 -12 -11 -34 -9 -49 1 -15 -3 -36 -9 -47 -9 -17 -8 -20 5
-15 13 5 15 -11 15 -115 0 -67 -4 -121 -9 -121 -15 0 -18 -79 -4 -84 21 -8 16
-46 -6 -46 -14 0 -17 -6 -13 -25 6 -35 37 -51 51 -28 6 10 11 14 11 8 0 -5
-14 -24 -30 -42 -22 -23 -30 -42 -30 -69 0 -31 -3 -36 -19 -31 -14 3 -18 1
-14 -9 7 -18 -5 -18 -23 1 -9 8 -12 20 -8 26 4 7 1 10 -7 7 -8 -3 -14 -10 -14
-15 0 -6 -3 -15 -7 -19 -5 -4 -8 -17 -7 -28 0 -20 1 -20 11 2 6 12 15 22 20
22 5 0 6 -5 3 -10 -4 -6 -3 -10 2 -9 23 4 21 -4 -9 -31 -38 -35 -52 -38 -45
-10 3 11 1 20 -3 20 -16 0 -21 -19 -11 -38 7 -13 7 -22 0 -29 -6 -6 -5 -14 6
-23 8 -7 15 -21 15 -31 0 -11 5 -19 10 -19 6 0 10 -6 10 -13 0 -14 -35 -47
-50 -47 -16 0 -12 40 5 46 8 4 15 10 15 15 0 5 -10 3 -23 -6 -22 -14 -29 -46
-14 -61 3 -3 0 -16 -7 -28 -7 -11 -12 -38 -11 -59 2 -31 -1 -40 -19 -47 -25
-10 -66 -47 -66 -60 0 -6 8 -10 18 -11 10 0 12 -3 5 -6 -7 -2 -13 -15 -13 -27
0 -29 -35 -75 -67 -87 -13 -5 -21 -13 -18 -19 3 -5 3 -15 0 -21 -4 -5 -8 -56
-8 -112 -2 -83 -5 -102 -17 -102 -9 0 -14 -8 -12 -19 2 -11 -1 -15 -7 -11 -7
4 -11 -4 -11 -19 0 -14 -5 -28 -10 -31 -6 -4 -7 -12 -3 -18 5 -8 2 -8 -9 1
-13 10 -15 9 -11 -12 3 -13 0 -27 -6 -30 -7 -5 -6 -14 4 -30 14 -21 13 -24
-15 -49 -16 -15 -32 -26 -35 -25 -7 5 -34 -36 -29 -44 3 -5 2 -14 -2 -20 -5
-7 -7 -27 -5 -44 1 -18 -3 -35 -8 -39 -6 -3 -8 -11 -4 -18 12 -19 9 -87 -4
-92 -7 -2 -13 -11 -13 -19 0 -11 -17 -15 -67 -18 -38 -2 -70 -2 -73 0 -3 2 -6
511 -7 1130 -2 620 -4 1596 -5 2169 l-3 1042 25 -5 c14 -2 93 -18 175 -34z
m2064 -1972 c6 -7 35 -13 64 -14 165 -1 187 -4 207 -24 15 -15 18 -25 12 -38
-16 -29 -36 -242 -25 -253 12 -12 33 39 33 79 0 14 2 23 5 21 6 -7 27 -262 25
-319 0 -25 4 -67 9 -94 6 -32 5 -57 -1 -72 -12 -27 -60 -32 -301 -36 l-149 -3
-1 375 -2 375 30 6 c50 11 80 10 94 -3z m751 -140 c19 -6 42 -17 51 -25 9 -7
20 -13 25 -11 5 2 10 0 12 -4 7 -22 -1 -25 -25 -12 -45 23 -63 18 -63 -16 0
-29 2 -30 44 -30 37 0 45 -4 49 -22 7 -24 -3 -141 -10 -134 -12 12 -21 81 -13
97 13 23 -14 47 -34 30 -14 -12 -46 -5 -46 9 0 5 -9 12 -20 15 -24 8 -26 40
-3 53 21 12 10 42 -16 42 -11 0 -26 -8 -33 -19 -10 -13 -24 -18 -53 -16 -55 3
-55 3 -55 20 0 8 -6 15 -14 15 -11 0 -12 -9 -5 -45 5 -25 7 -51 5 -57 -1 -7
-1 -10 1 -5 3 4 9 5 14 1 5 -3 19 2 31 10 12 9 38 15 58 15 29 -2 30 -3 8 -6
-14 -2 -32 -11 -38 -19 -7 -8 -18 -14 -25 -14 -11 0 -35 -41 -35 -60 0 -6 7
-10 15 -10 21 0 19 -17 -5 -47 -30 -39 -26 -88 12 -132 17 -20 41 -40 52 -45
19 -8 19 -10 -9 -15 -41 -8 -39 -35 3 -39 17 -2 32 -8 32 -14 0 -6 -16 -9 -40
-6 -22 2 -40 0 -40 -4 0 -17 -18 -7 -25 15 -7 19 -9 17 -12 -17 -5 -40 3 -59
16 -38 6 10 15 10 35 2 15 -5 42 -10 61 -10 32 0 54 -13 38 -23 -5 -3 -51 -7
-103 -8 l-95 -4 -3 38 c-3 29 -7 37 -23 37 -18 0 -19 9 -19 242 0 305 -9 289
154 281 61 -2 127 -9 146 -15z m-7041 -1953 c8 -137 6 -453 -2 -462 -20 -20
-24 19 -31 317 -2 107 -8 208 -11 223 -7 26 -5 28 15 25 22 -3 24 -8 29 -103z
m119 30 c3 -104 8 -116 40 -113 39 4 36 -25 -3 -32 -44 -8 -39 -34 8 -38 23
-2 37 -8 37 -17 0 -19 -20 -30 -47 -27 -22 3 -22 1 -25 -130 l-3 -133 -37 -3
c-26 -2 -39 1 -40 10 -4 35 -6 81 -13 305 l-7 241 29 5 c56 9 58 7 61 -68z
m-418 35 c12 -8 16 -52 20 -263 3 -140 4 -262 2 -271 -2 -9 -12 -16 -23 -16
-17 0 -19 8 -20 108 -1 59 -5 121 -9 137 -7 27 -8 25 -11 -20 -2 -27 -4 -72
-5 -100 -2 -123 -4 -137 -16 -133 -10 4 -15 66 -19 244 -4 131 -8 250 -10 264
-3 19 1 26 18 28 12 2 27 10 33 18 14 16 20 17 40 4z m4285 -610 c-5 -511 -7
-574 -14 -549 -5 14 -9 113 -10 220 -4 402 -10 534 -25 537 -11 2 -13 -7 -9
-42 7 -61 -7 -317 -17 -311 -4 3 -10 -2 -14 -10 -3 -8 -10 -15 -16 -15 -6 0
-8 6 -4 13 4 6 4 9 -1 5 -4 -4 -14 -3 -22 3 -8 8 -13 8 -13 1 0 -19 12 -42 20
-37 4 3 7 -3 6 -13 0 -9 -8 -20 -16 -24 -12 -5 -12 -7 3 -7 21 -1 22 -24 2
-41 -10 -9 -15 -9 -15 -1 0 6 5 11 10 11 6 0 10 4 10 9 0 23 -40 5 -49 -21 -6
-15 -15 -28 -22 -28 -9 0 -9 3 0 14 8 10 9 16 1 21 -5 3 -11 -2 -11 -12 -1
-10 -2 -25 -3 -33 -1 -8 2 -20 6 -26 5 -7 -1 -10 -15 -10 -16 1 -21 -4 -19
-16 2 -12 -4 -18 -15 -18 -19 0 -57 -52 -47 -63 3 -3 -4 -8 -15 -12 -11 -3
-21 -15 -23 -26 -2 -11 -7 -20 -13 -19 -14 0 -13 45 1 45 11 0 44 29 44 39 0
3 -7 6 -15 6 -8 0 -15 -7 -15 -16 0 -8 -4 -13 -9 -10 -20 13 -34 -27 -34 -99
0 -41 -4 -75 -9 -75 -5 0 -6 5 -3 10 10 16 -11 12 -25 -5 -7 -8 -28 -15 -46
-15 -32 0 -34 2 -34 35 0 19 -4 35 -9 35 -8 0 -6 -52 4 -77 5 -15 -56 -5 -68
11 -6 7 -7 4 -3 -7 4 -12 0 -20 -12 -23 -9 -3 -25 -10 -35 -15 -10 -5 -22 -7
-27 -4 -14 9 -52 -14 -44 -26 3 -6 -4 -5 -16 3 -19 12 -23 10 -41 -14 -13 -18
-26 -24 -39 -21 -21 6 -80 -17 -80 -31 0 -4 -7 -3 -15 4 -12 10 -15 10 -15 -4
0 -9 -4 -16 -9 -16 -4 0 -2 -20 7 -45 8 -25 17 -43 20 -41 2 3 16 -3 30 -14
13 -11 28 -17 33 -14 5 3 9 -61 9 -145 0 -150 0 -151 -22 -152 -93 -4 -127 11
-128 56 -1 20 -1 20 -12 1 -14 -24 -12 -160 2 -164 6 -2 17 -10 25 -18 8 -8
17 -15 20 -14 32 2 38 -2 18 -12 -13 -6 -23 -15 -23 -20 0 -7 24 -12 43 -9 5
1 7 -4 5 -11 -4 -12 -68 -25 -68 -14 0 2 4 15 9 28 6 17 4 28 -10 42 -18 18
-18 18 -9 -12 4 -18 5 -34 0 -37 -8 -5 -26 51 -22 68 1 4 -5 10 -13 13 -17 7
-20 44 -5 62 6 6 7 10 4 7 -4 -3 -13 0 -21 6 -11 9 -13 -3 -13 -68 0 -84 -3
-95 -26 -86 -18 7 -19 94 -2 111 10 10 10 15 -2 22 -11 7 -17 40 -22 127 -5
65 -9 125 -9 133 -1 8 0 55 2 104 2 62 -1 91 -9 94 -9 3 -11 -91 -10 -372 l2
-375 30 6 c17 3 33 10 34 15 2 4 19 8 38 8 22 0 34 5 34 14 0 8 7 16 15 20 9
3 15 0 15 -9 0 -20 31 -23 59 -6 14 9 42 14 71 12 26 -1 64 5 85 13 23 10 43
13 53 7 13 -7 13 -10 -4 -19 -11 -6 -37 -13 -59 -17 -67 -11 -247 -44 -295
-54 -25 -6 -60 -13 -77 -16 l-33 -7 0 831 c0 457 -1 835 -1 839 -5 33 3 52 24
52 12 0 44 0 71 0 26 0 52 -3 56 -5 5 -3 11 -1 14 4 3 5 43 12 88 15 46 4 106
9 133 12 28 2 77 6 110 9 33 2 155 11 270 19 116 9 240 16 277 16 41 0 70 5
74 12 17 27 22 -37 19 -252z m-2594 48 c0 -2 3 -134 6 -294 4 -208 2 -293 -5
-298 -11 -7 -76 -16 -252 -36 -47 -5 -123 -14 -170 -20 -47 -5 -146 -17 -220
-25 -74 -8 -169 -19 -210 -25 -41 -7 -115 -16 -165 -21 -49 -5 -130 -14 -180
-19 -159 -17 -292 -33 -465 -55 -118 -16 -405 -48 -495 -56 -55 -4 -172 -18
-260 -29 -152 -20 -226 -29 -410 -50 -44 -5 -120 -14 -170 -20 -49 -5 -165
-18 -257 -28 -156 -17 -189 -24 -176 -37 5 -5 148 8 383 35 44 5 125 14 180
20 91 9 301 34 510 60 44 6 217 26 385 45 168 19 339 39 380 44 107 14 229 28
440 51 102 11 255 29 340 40 85 11 184 22 220 25 36 3 121 13 190 21 69 9 179
22 245 29 66 8 129 15 140 17 20 3 20 -3 20 -622 l0 -625 -70 -13 c-38 -7 -90
-17 -115 -22 -25 -4 -72 -13 -105 -18 -33 -6 -118 -23 -190 -37 -71 -15 -177
-35 -235 -45 -58 -10 -175 -32 -260 -49 -155 -31 -596 -116 -785 -151 -55 -10
-183 -34 -285 -54 -102 -19 -261 -49 -355 -66 -93 -17 -237 -45 -320 -61 -179
-35 -621 -114 -687 -124 l-48 -6 0 1045 c0 575 0 1049 -1 1053 -1 4 -1 40 0
79 l1 71 87 7 c49 4 142 11 208 16 66 5 149 12 185 15 36 3 207 16 380 30 173
13 403 32 510 40 107 9 281 22 385 30 105 8 246 19 315 25 69 6 211 17 315 26
476 37 701 56 840 68 152 14 225 18 226 14z m5219 -243 c30 -4 96 -17 145 -30
50 -13 149 -36 220 -50 72 -14 177 -37 235 -50 58 -14 179 -41 270 -60 91 -20
176 -40 190 -46 14 -6 42 -38 63 -71 l38 -61 -30 -31 c-36 -37 -38 -52 -12
-83 23 -27 60 -29 103 -7 25 13 32 13 39 3 4 -7 5 -18 2 -24 -3 -5 4 0 15 12
18 18 26 20 59 12 21 -5 56 -13 78 -18 87 -19 195 -45 305 -73 63 -17 128 -30
143 -30 22 -1 27 -4 21 -17 -15 -37 -22 -87 -17 -115 5 -26 4 -28 -13 -22 -10
5 -50 15 -89 23 -38 8 -99 22 -135 33 -36 10 -92 25 -125 34 -186 50 -324 87
-350 96 -16 5 -84 23 -150 40 -66 17 -131 35 -145 40 -41 14 -130 19 -130 6 0
-18 -69 -91 -77 -82 -4 4 -1 11 7 16 22 14 4 23 -20 10 -12 -6 -29 -9 -38 -5
-13 5 -12 8 6 21 29 20 28 32 -3 30 -14 0 -25 -6 -25 -12 0 -11 -30 -29 -35
-22 -1 2 -13 20 -27 40 -14 21 -28 35 -31 32 -4 -4 -13 -1 -22 6 -10 8 -15 9
-15 1 0 -15 -40 -14 -41 2 0 9 -2 9 -6 0 -7 -19 -122 -4 -155 20 -18 13 -34
18 -52 13 -14 -3 -42 1 -66 10 -23 9 -51 13 -65 10 -37 -9 -21 -26 25 -26 25
0 42 -6 48 -16 7 -12 21 -15 61 -13 34 3 51 0 51 -7 0 -7 12 -15 27 -19 15 -3
31 -12 35 -18 5 -9 10 -9 20 1 6 6 18 12 25 12 21 0 15 -28 -7 -35 -21 -7 -87
10 -104 26 -6 5 -20 9 -33 9 -25 0 -130 27 -260 66 l-83 25 0 208 c0 114 3
210 6 213 3 4 20 0 37 -7 18 -7 57 -16 87 -20z m1705 -331 c55 -36 235 -218
235 -236 0 -12 -61 -5 -160 18 -198 46 -476 117 -483 124 -17 15 142 107 218
127 73 18 127 9 190 -33z m-1782 -127 c18 -8 57 -20 87 -26 86 -20 194 -53
204 -62 19 -17 -22 -19 -79 -4 -70 18 -87 19 -60 3 19 -11 19 -11 0 -18 -24
-9 -35 -4 -35 17 0 19 -39 55 -52 47 -5 -3 -2 -11 6 -17 14 -11 14 -15 -6 -37
-18 -20 -31 -24 -60 -22 -29 2 -38 0 -38 -13 0 -12 11 -15 53 -14 28 1 58 6
65 12 10 8 16 7 22 -3 6 -9 19 -11 46 -6 22 4 44 7 49 7 56 -4 84 -9 107 -19
15 -6 35 -9 44 -5 14 5 32 -1 85 -28 9 -4 27 -5 39 -2 11 3 31 1 43 -5 12 -5
76 -23 142 -38 127 -29 143 -35 270 -95 44 -21 100 -46 125 -54 25 -9 73 -27
107 -39 35 -12 68 -27 75 -34 7 -7 20 -12 31 -12 24 0 19 29 -8 44 -10 6 -25
17 -33 24 -7 6 -22 12 -33 12 -10 0 -19 5 -19 10 0 6 5 10 10 10 20 0 9 19
-45 75 -30 31 -55 51 -55 45 0 -7 -11 -5 -29 6 -16 9 -27 23 -24 29 4 12 -20
24 -87 45 -29 8 -74 -5 -65 -20 9 -15 -17 -12 -38 5 -18 13 -17 14 8 17 24 3
25 4 12 23 -14 18 -17 18 -43 5 -16 -8 -33 -16 -39 -19 -12 -6 11 25 47 61 28
30 44 33 80 19 13 -5 50 -17 83 -26 33 -10 64 -21 70 -26 5 -5 19 -9 31 -9 24
0 65 -9 264 -60 69 -18 141 -36 160 -40 38 -9 162 -42 335 -90 61 -17 122 -33
138 -36 15 -4 27 -10 27 -14 0 -12 -28 -20 -45 -14 -19 8 -19 -3 1 -23 13 -13
13 -18 2 -25 -9 -7 -8 -8 5 -4 12 4 27 -3 44 -20 14 -14 31 -23 38 -20 17 6 9
40 -16 62 -20 18 -25 34 -10 34 5 0 12 -9 16 -19 3 -10 15 -21 25 -24 17 -4
20 -14 20 -74 0 -63 -2 -72 -27 -94 -71 -62 -124 -99 -134 -94 -7 5 -6 11 1
21 9 10 8 24 -4 56 -8 24 -17 56 -18 73 -5 48 -35 45 -48 -5 -25 -94 -225
-259 -420 -347 -36 -16 -71 -37 -79 -46 -7 -9 -31 -22 -53 -28 -34 -9 -43 -8
-59 7 -15 14 -21 15 -34 4 -9 -7 -14 -19 -11 -27 4 -10 -1 -12 -21 -7 -19 5
-24 4 -19 -5 10 -15 -21 -51 -43 -51 -9 0 -29 -7 -45 -15 -15 -8 -34 -15 -42
-15 -8 0 -37 -14 -65 -32 -47 -28 -55 -30 -82 -20 -39 15 -44 9 -72 -69 -26
-76 -45 -88 -45 -30 0 35 -6 47 -37 74 -20 18 -49 33 -64 34 -15 0 -52 17 -82
37 -30 20 -68 39 -86 42 -47 10 -145 51 -149 63 -2 6 -14 11 -27 11 -12 0 -28
7 -35 15 -7 8 -23 15 -36 15 -27 0 -48 32 -39 61 5 14 12 18 26 14 11 -4 26
-2 33 4 9 8 28 2 72 -21 32 -18 65 -38 72 -45 7 -7 28 -13 46 -13 19 0 39 -7
46 -15 34 -40 90 -76 110 -70 25 8 21 30 -6 30 -14 0 -19 7 -19 28 1 17 -3 23
-9 17 -16 -16 -34 -12 -41 10 -4 13 -15 20 -31 20 -13 0 -24 5 -24 10 0 6 11
10 25 10 18 0 23 4 19 15 -7 18 -27 19 -53 4 -15 -10 -25 -5 -67 35 -27 26
-70 62 -96 78 -34 22 -48 38 -48 54 0 24 47 88 116 159 23 24 45 52 48 63 4
12 16 24 27 27 10 4 19 10 19 14 0 16 -30 33 -45 27 -23 -8 -55 15 -55 41 0
26 -18 31 -26 8 -6 -15 -34 -21 -34 -7 0 4 18 28 40 52 22 25 39 51 38 59 -2
8 -18 23 -37 33 -39 22 -182 60 -215 57 -11 0 -65 -1 -118 0 -97 1 -97 1 -90
24 5 12 7 55 6 95 -1 39 2 72 7 72 5 0 24 -6 42 -13z m3249 -238 c148 -35 154
-36 323 -73 452 -97 802 -173 920 -200 33 -8 98 -22 145 -31 47 -10 130 -28
185 -41 55 -14 143 -34 195 -44 124 -26 138 -33 184 -88 21 -26 55 -65 75 -87
62 -69 123 -146 119 -150 -2 -2 -24 2 -48 10 -25 7 -106 27 -180 44 -74 17
-160 38 -190 46 -92 24 -178 45 -335 81 -82 19 -163 39 -180 44 -16 5 -86 22
-155 39 -69 16 -208 50 -310 75 -286 70 -497 121 -705 171 -104 24 -224 54
-265 65 -41 10 -84 21 -94 22 -27 4 -21 14 59 84 47 43 79 63 97 63 15 1 87
-13 160 -30z m-3706 -67 c-9 -15 -24 -48 -35 -73 -37 -85 -92 -133 -107 -94
-4 8 -10 15 -14 15 -5 0 -1 -14 7 -31 15 -30 15 -35 -3 -67 -36 -67 -53 -83
-82 -76 -42 10 -96 37 -105 52 -7 11 -12 11 -27 -3 -18 -16 -21 -16 -46 4 -15
12 -34 21 -42 21 -35 0 13 27 70 39 57 12 89 33 68 46 -19 12 -10 23 43 56 28
18 61 40 72 50 24 21 197 97 208 92 4 -3 1 -16 -7 -31z m2919 -181 c22 -5 76
-19 120 -31 88 -24 230 -61 525 -139 107 -28 242 -65 300 -80 58 -16 116 -32
130 -34 14 -3 41 -10 60 -16 131 -38 584 -159 864 -231 88 -22 162 -43 165
-45 6 -7 9 -5 -104 -79 -101 -67 -124 -74 -179 -56 -25 8 -281 83 -411 120
-171 49 -271 77 -385 111 -74 21 -151 44 -170 49 -19 5 -75 21 -125 36 -49 14
-119 34 -155 43 -184 50 -372 103 -430 121 -64 20 -267 81 -345 105 -22 6 -47
14 -55 18 -8 3 -28 9 -44 14 -17 5 -31 14 -33 20 -7 20 35 21 67 1 33 -19 77
-21 73 -3 -1 6 -10 11 -20 13 -26 4 -63 24 -63 33 0 4 24 9 53 11 l52 3 -33
21 c-43 28 -24 34 48 17 30 -7 73 -17 95 -22z m-390 -306 c44 -13 118 -35 165
-50 47 -15 99 -30 115 -35 17 -4 73 -21 125 -38 52 -16 230 -71 395 -121 165
-51 363 -112 440 -136 77 -25 159 -50 182 -57 l42 -13 -1 -88 c0 -48 -4 -89
-7 -92 -4 -2 -59 13 -122 34 -62 21 -202 67 -309 101 -178 57 -501 164 -625
206 -27 9 -69 25 -93 35 -23 11 -51 19 -62 19 -10 0 -22 5 -25 10 -3 6 -17 10
-31 10 -21 0 -139 42 -246 87 -21 9 -40 25 -44 35 -7 24 3 35 18 20 17 -17 48
-15 48 3 0 9 -9 15 -21 15 -11 0 -26 6 -32 13 -15 15 -47 64 -47 72 0 7 31 0
135 -30z m-137 -201 c58 -14 145 -44 217 -74 11 -5 30 -12 43 -15 16 -5 20
-10 13 -18 -15 -18 -8 -92 10 -110 14 -13 16 -31 12 -104 -7 -108 -17 -140
-38 -123 -17 14 -20 46 -5 55 17 11 11 71 -9 89 -17 16 -20 16 -28 1 -8 -13
-14 -8 -40 27 -17 24 -33 52 -37 64 -8 25 -49 49 -70 41 -20 -8 -21 -51 -1
-67 17 -14 20 -86 5 -110 -8 -12 -10 -12 -16 3 -8 21 -24 22 -24 1 0 -9 9 -18
20 -21 11 -3 20 -12 20 -20 0 -8 11 -34 25 -57 30 -51 23 -64 -17 -31 -16 14
-34 25 -39 25 -5 0 -12 12 -15 28 -4 15 -13 36 -20 47 -7 11 -16 39 -20 61 -3
23 -10 47 -15 55 -14 22 -31 -10 -23 -46 17 -80 1 -96 -34 -35 -23 41 -42 45
-42 9 0 -20 -20 -27 -20 -6 0 6 -9 23 -20 37 -16 20 -20 22 -20 8 0 -11 -8
-18 -20 -18 -14 0 -20 -7 -20 -22 -1 -20 -5 -18 -38 19 -23 26 -49 44 -70 48
-18 4 -46 18 -63 32 -21 18 -46 28 -82 31 -35 3 -61 13 -80 28 -16 13 -36 24
-45 24 -15 -1 -15 -2 1 -11 9 -5 17 -19 17 -29 0 -21 -20 -26 -48 -11 -9 5
-25 12 -35 15 -13 4 -16 12 -12 25 4 14 0 21 -12 24 -16 4 -16 5 2 12 11 4 27
14 36 22 9 8 48 19 85 24 38 6 72 14 77 18 4 4 44 3 88 -1 67 -8 88 -6 116 7
19 9 49 19 68 22 19 3 42 14 51 24 22 24 82 25 172 3z m492 -124 c8 -5 47 -16
85 -25 39 -10 74 -21 80 -26 5 -5 19 -9 31 -9 13 0 25 -4 28 -9 3 -5 20 -11
38 -14 31 -4 159 -46 223 -71 17 -7 77 -27 135 -45 58 -18 114 -37 125 -41 11
-5 95 -32 187 -62 l166 -53 0 -115 0 -115 41 -32 c36 -28 39 -32 21 -38 -27
-8 -26 -25 1 -25 12 0 40 -8 63 -19 60 -27 152 -54 163 -48 5 3 17 -3 27 -14
17 -21 43 -21 39 0 -4 17 16 13 81 -13 55 -23 57 -25 36 -36 -19 -10 -27 -9
-51 9 -32 23 -59 27 -77 9 -9 -9 -18 -8 -39 2 -16 7 -44 16 -63 20 -44 10
-248 69 -275 80 -11 5 -47 16 -80 25 -33 9 -75 23 -93 31 -18 8 -39 14 -47 14
-21 0 -19 12 5 33 15 13 18 24 13 48 -4 23 -2 34 9 40 24 13 13 99 -12 99 -5
0 -4 -11 2 -25 10 -22 8 -30 -10 -55 -16 -22 -20 -37 -15 -61 4 -22 3 -30 -5
-25 -16 10 -26 66 -13 79 13 13 14 41 2 65 -5 9 -12 25 -15 35 -7 22 -34 32
-159 57 -119 24 -203 48 -233 67 -20 13 -26 10 -76 -40 -59 -59 -78 -93 -78
-137 0 -33 -2 -34 -28 -21 -30 16 -147 61 -157 61 -5 0 -21 10 -35 21 l-25 20
50 -6 c28 -4 57 -13 66 -21 18 -16 69 -19 69 -4 0 6 -12 16 -26 22 -20 10 -23
14 -12 23 7 5 19 23 26 39 12 26 11 28 -2 17 -27 -22 -40 -7 -41 48 -1 45 -5
56 -31 76 -24 20 -31 22 -40 10 -8 -11 -12 -10 -23 7 -10 17 -9 20 8 25 34 9
26 34 -8 27 -21 -5 -34 -1 -50 15 -23 23 -14 26 37 12 20 -6 32 -6 32 0 0 5
-11 9 -25 9 -14 0 -29 8 -35 20 -6 11 -19 20 -28 20 -10 0 -25 9 -35 20 -17
20 -16 20 10 14 16 -4 35 -10 43 -14z"/>
<path d="M1999 5041 c-68 -69 -11 -191 89 -191 21 0 42 12 71 40 35 34 41 46
41 81 0 31 -6 47 -29 70 -26 25 -37 29 -86 29 -49 0 -60 -4 -86 -29z"/>
<path d="M2530 5073 c-31 -12 -70 -58 -76 -89 -7 -37 13 -78 53 -108 23 -17
31 -18 72 -7 98 25 129 130 57 190 -17 15 -83 23 -106 14z"/>
<path d="M5093 3905 c-73 -8 -226 -21 -340 -30 -115 -9 -273 -22 -353 -30
-188 -19 -249 -24 -338 -28 -70 -4 -92 -10 -79 -23 6 -6 175 5 417 26 58 5
164 14 235 20 72 6 180 15 240 21 61 6 155 12 210 13 131 4 195 14 195 32 0
16 -8 16 -187 -1z"/>
<path d="M5124 3792 c-49 -39 -57 -65 -44 -141 6 -39 19 -76 27 -83 22 -18 96
-16 118 2 10 8 25 15 34 15 8 0 17 8 19 18 2 12 -3 17 -17 17 -24 0 -28 25 -6
34 11 4 15 20 15 56 0 43 -4 55 -27 75 -33 29 -88 32 -119 7z"/>
<path d="M5472 3827 c-30 -14 -63 -77 -55 -106 3 -12 0 -33 -7 -46 -15 -28 -7
-55 16 -55 9 0 22 -7 29 -17 8 -11 28 -16 59 -17 38 -1 51 4 66 22 10 12 25
22 34 22 19 0 22 26 4 32 -8 3 -12 18 -10 40 5 58 -15 117 -44 128 -32 13 -63
12 -92 -3z"/>
<path d="M3462 3653 c-49 -9 -85 -109 -58 -161 8 -16 13 -32 10 -35 -3 -3 0
-15 6 -27 9 -16 15 -19 23 -11 16 16 37 14 31 -4 -4 -10 0 -15 15 -15 12 0 25
8 28 17 4 9 24 34 45 56 33 35 38 45 38 87 0 42 -4 52 -31 74 -29 25 -53 29
-107 19z"/>
<path d="M945 3423 c-16 -9 -36 -23 -42 -32 -46 -60 -26 -150 39 -172 76 -25
162 10 187 77 14 39 14 57 -1 89 -24 53 -120 72 -183 38z"/>
<path d="M3457 3000 c-40 -25 -53 -48 -61 -102 -5 -36 -3 -53 10 -72 9 -14 14
-33 10 -41 -7 -18 60 -49 83 -39 9 4 32 8 51 8 24 1 35 6 35 16 0 8 -6 16 -12
16 -30 3 -33 4 -33 13 0 5 9 13 20 16 22 7 43 49 53 105 14 77 -83 127 -156
80z"/>
<path d="M942 2680 c-68 -42 -85 -107 -44 -170 9 -14 15 -30 14 -35 -1 -7 26
-9 74 -7 58 3 81 9 95 23 11 11 22 19 27 19 4 0 13 24 20 54 15 64 4 100 -39
122 -40 20 -108 18 -147 -6z"/>
<path d="M3800 2529 c-30 -4 -84 -13 -120 -19 -36 -6 -90 -13 -120 -16 -30 -4
-74 -12 -98 -20 -23 -8 -60 -14 -81 -14 -21 0 -116 -13 -212 -29 -96 -16 -196
-32 -224 -35 -27 -4 -84 -13 -125 -21 -104 -19 -255 -43 -315 -51 -48 -6 -171
-23 -415 -58 -63 -10 -137 -21 -165 -26 -27 -6 -115 -19 -195 -30 -80 -12
-176 -27 -215 -35 -69 -14 -253 -41 -370 -56 -124 -15 -215 -28 -272 -38 -58
-11 -141 -23 -302 -45 -55 -7 -86 -16 -89 -25 -3 -10 2 -12 20 -8 13 4 49 9
79 13 30 3 95 12 144 20 50 7 144 21 210 30 66 9 128 20 137 25 10 5 33 9 51
9 19 0 56 4 83 9 27 5 94 14 149 21 55 6 116 15 135 20 19 5 103 19 185 30
362 51 421 60 525 81 60 12 258 40 345 49 88 10 190 27 235 40 19 5 55 10 79
10 25 0 58 4 75 9 28 9 216 37 321 48 22 2 47 7 55 10 8 2 40 7 70 9 30 2 87
8 125 14 39 6 111 17 160 25 50 8 116 16 149 19 32 3 61 7 64 10 7 7 -6 36
-15 35 -4 -1 -33 -5 -63 -10z"/>
<path d="M3458 2398 c-16 -7 -28 -15 -28 -19 0 -14 32 -19 51 -8 11 5 34 9 52
7 l32 -4 -40 -8 c-22 -4 -51 -13 -64 -19 -31 -15 -61 -64 -61 -100 0 -16 -5
-37 -11 -49 -9 -17 -6 -25 17 -49 23 -24 25 -31 14 -44 -10 -12 -10 -18 0 -30
14 -17 75 -20 85 -5 3 6 26 15 51 21 52 14 63 25 38 44 -18 13 -18 15 0 62 26
63 25 107 -2 136 -26 28 -28 37 -5 37 16 0 16 1 1 16 -20 20 -94 27 -130 12z"/>
<path d="M949 1953 c-25 -13 -53 -37 -62 -52 -18 -32 -23 -116 -7 -126 6 -3
10 -21 10 -40 0 -19 5 -37 11 -41 7 -4 9 2 7 17 -4 32 31 40 39 9 5 -18 11
-21 35 -16 15 3 38 15 50 26 12 11 25 20 29 20 20 0 60 55 70 95 9 37 8 48 -7
74 -32 54 -108 69 -175 34z"/>
<path d="M9831 2186 c-16 -19 1 -29 34 -20 24 6 25 4 23 -27 l-3 -34 44 3 c43
3 44 2 28 -16 -25 -27 -22 -52 6 -52 13 0 32 -7 43 -15 42 -31 71 -11 37 27
-24 27 -13 30 46 12 54 -16 81 -14 81 6 0 6 -11 10 -24 8 -13 -1 -31 3 -40 11
-9 8 -29 11 -48 8 -37 -5 -78 7 -78 23 0 5 8 10 19 10 28 0 47 26 31 45 -17
20 -76 20 -88 -1 -8 -14 -12 -13 -43 5 -40 25 -52 26 -68 7z"/>
<path d="M12406 10411 c-6 -9 -52 -32 -191 -96 -44 -20 -87 -40 -95 -46 -8 -5
-22 -12 -30 -15 -85 -33 -147 -62 -161 -76 -8 -8 -36 -22 -64 -32 -27 -10 -57
-25 -66 -32 -8 -8 -27 -14 -41 -14 -14 0 -31 -7 -38 -15 -7 -8 -27 -19 -44
-23 -29 -8 -31 -12 -43 -78 -18 -103 -14 -117 10 -43 12 37 29 74 37 84 8 9
48 33 90 52 41 19 82 39 90 44 8 5 31 16 50 25 19 8 43 20 52 25 10 5 23 9 29
9 6 0 22 9 36 20 14 11 33 20 43 20 27 0 14 -59 -16 -70 -34 -13 -31 -32 3
-24 15 4 40 7 55 7 28 0 36 15 19 33 -5 5 -11 25 -13 44 -2 28 1 35 16 38 11
2 37 15 59 29 23 14 46 22 57 18 13 -4 22 1 30 15 8 15 17 19 31 15 14 -5 27
1 43 18 13 14 42 31 65 38 45 13 56 39 17 39 -14 0 -27 -4 -30 -9z"/>
<path d="M15005 8238 c-22 -5 -74 -18 -115 -28 -95 -24 -213 -51 -264 -59 -47
-7 -55 -22 -26 -49 27 -25 37 -30 220 -103 85 -34 181 -74 213 -90 l57 -29 0
185 0 185 -22 -1 c-13 -1 -41 -5 -63 -11z"/>
<path d="M13788 7665 c-5 -5 -245 -45 -318 -52 -56 -6 -68 -16 -63 -51 l4 -27
-24 29 c-24 27 -26 28 -88 20 -63 -9 -64 -10 -71 -44 -10 -50 -65 -372 -78
-455 -6 -38 -15 -83 -20 -100 -15 -52 -22 -113 -13 -118 12 -7 306 37 383 58
36 9 70 21 77 27 6 5 15 35 19 66 4 31 11 68 16 81 13 36 -8 51 -23 17 -24
-53 -96 -42 -82 13 8 32 44 80 61 80 7 1 23 -6 36 -14 24 -16 24 -16 29 27 7
65 49 351 53 366 5 17 69 15 84 -3 9 -11 9 -27 0 -72 -7 -32 -12 -85 -12 -118
0 -33 -3 -64 -8 -70 -12 -14 -21 -185 -10 -185 15 0 20 17 21 77 0 32 7 79 15
105 9 26 12 52 9 58 -4 6 0 19 8 28 17 19 37 105 37 157 0 24 5 35 15 35 18 0
19 4 3 33 -19 33 -45 47 -60 32z m-188 -185 c0 -5 -9 -10 -20 -10 -17 0 -20
-7 -20 -40 0 -22 -3 -40 -7 -41 -5 0 -19 -2 -31 -3 -25 -3 -44 -24 -35 -39 3
-5 19 -7 35 -5 47 7 46 0 -19 -139 -34 -71 -52 -85 -104 -81 -42 3 -44 4 -51
43 -5 22 -13 59 -18 83 -12 49 3 93 23 73 17 -17 52 -13 78 8 19 15 21 22 12
32 -9 9 -19 9 -44 0 -44 -15 -48 -14 -42 12 8 31 33 57 54 57 10 0 34 10 54
21 20 12 49 22 66 24 16 1 32 5 36 9 10 10 33 7 33 -4z"/>
<path d="M9611 6793 c-8 -15 -12 -16 -35 -4 -21 12 -33 12 -68 2 -24 -7 -50
-19 -58 -26 -8 -7 -24 -15 -35 -17 -12 -2 -21 -13 -23 -26 -6 -38 -27 -18 -27
26 0 47 -9 60 -30 42 -12 -10 -24 -11 -56 -1 -50 15 -73 8 -100 -30 -23 -32
-22 -35 17 -109 12 -23 18 -25 90 -25 63 0 81 4 95 18 13 14 29 18 68 16 28
-2 54 0 57 4 4 4 25 4 46 0 44 -6 108 10 151 40 35 24 34 37 -3 37 -24 0 -30
4 -30 21 0 20 -24 48 -42 49 -4 0 -11 -8 -17 -17z"/>
<path d="M11437 6513 c-3 -27 -1 -53 4 -59 7 -8 1 -18 -16 -31 l-26 -19 20
-26 c30 -38 28 -74 -5 -82 -14 -4 -34 -4 -45 -1 -26 9 -25 -21 2 -35 15 -8 24
-8 34 0 10 8 18 6 33 -10 l20 -21 15 21 c9 12 13 28 11 35 -3 6 2 18 11 25 20
16 19 37 -2 49 -15 8 -16 13 -4 33 11 21 9 30 -13 72 -17 32 -24 57 -20 72 3
13 2 24 -4 24 -5 0 -12 -21 -15 -47z"/>
<path d="M14095 6079 c-55 -4 -125 -10 -155 -13 -30 -3 -118 -10 -195 -15 -91
-6 -150 -14 -170 -24 -16 -9 -39 -19 -49 -22 -15 -4 -17 -8 -8 -17 10 -10 41
-8 135 5 172 25 276 23 311 -4 33 -26 26 -38 -8 -15 -24 15 -26 15 -50 -9 -14
-14 -33 -25 -44 -25 -10 0 -27 -6 -37 -14 -14 -10 -23 -11 -37 -3 -13 9 -21 8
-30 -1 -6 -6 -23 -12 -37 -12 -13 0 -32 -7 -41 -15 -13 -12 -26 -14 -56 -7
-49 11 -84 2 -98 -23 -6 -11 -23 -40 -38 -65 -15 -25 -26 -54 -24 -65 2 -11
-2 -31 -9 -45 -17 -32 -40 -125 -56 -220 -6 -41 -15 -93 -18 -115 -5 -29 -11
-40 -23 -39 -17 2 -34 -34 -40 -86 l-3 -25 -320 -2 c-176 -1 -402 -2 -503 -3
-193 0 -204 -3 -151 -42 20 -14 47 -18 151 -19 70 -1 131 -5 136 -8 5 -3 12
-35 16 -71 3 -35 10 -68 15 -73 14 -14 52 3 50 21 -1 9 -1 38 0 64 1 59 11 63
133 49 51 -6 387 -13 746 -16 359 -2 657 -7 663 -10 5 -3 25 -2 45 4 26 7 76
50 194 168 193 193 508 497 535 518 11 8 30 15 43 15 21 0 22 3 22 91 l0 92
-217 -7 c-120 -4 -250 -9 -288 -12 l-71 -6 -139 -134 c-77 -73 -143 -134 -147
-134 -3 0 -4 46 -2 102 3 79 7 104 19 111 10 5 13 13 7 20 -5 7 -10 43 -11 81
-2 78 -5 87 -29 84 -9 -1 -62 -5 -117 -9z"/>
<path d="M101 3359 c-18 -4 -44 -13 -58 -20 -23 -12 -24 -17 -21 -103 l3 -90
29 -7 c16 -5 33 -14 37 -21 8 -12 16 -10 92 28 16 8 34 14 41 14 7 0 21 24 31
54 16 46 16 58 6 85 -7 16 -19 35 -26 41 -19 16 -96 27 -134 19z"/>
<path d="M6285 2108 c-32 -5 -72 -19 -87 -30 -28 -19 -29 -23 -26 -91 l3 -72
65 -5 c36 -3 114 -3 175 0 l109 5 4 81 c4 95 2 98 -82 113 -67 12 -78 12 -161
-1z"/>
<path d="M6800 1970 c-12 -7 -12 -12 -2 -22 6 -6 12 -21 12 -31 0 -10 9 -21
20 -24 11 -3 20 -10 20 -17 0 -6 -9 -17 -20 -24 -20 -12 -25 -37 -15 -64 4
-11 25 -14 88 -12 87 3 106 15 69 43 -15 11 -20 23 -16 39 8 27 25 28 42 2 8
-14 23 -20 48 -20 33 0 36 2 30 24 -4 16 -1 26 9 30 11 4 14 13 9 33 -12 50
-19 53 -117 48 -50 -3 -99 -7 -108 -10 -10 -4 -27 -2 -37 4 -11 6 -24 6 -32 1z"/>
<path d="M6120 1894 c-8 -3 -37 -14 -65 -24 -27 -10 -63 -21 -78 -25 -37 -8
-30 -28 14 -37 19 -4 60 -14 93 -23 34 -10 62 -13 67 -8 5 5 10 34 12 63 2 56
-6 66 -43 54z"/>
<path d="M5840 1753 c0 -9 31 -23 120 -53 30 -10 82 -30 114 -45 62 -28 83
-24 71 14 -5 15 -15 21 -37 21 -19 0 -28 4 -25 13 2 6 14 12 27 12 13 0 25 6
28 14 4 12 -9 13 -70 8 -40 -3 -81 -1 -89 3 -22 13 -139 24 -139 13z"/>
<path d="M3875 1407 c-16 -7 -33 -15 -36 -20 -3 -4 -5 -198 -4 -430 l2 -422
61 -127 c34 -69 62 -131 62 -137 0 -6 -11 -16 -25 -21 -32 -12 -34 -59 -5 -85
11 -10 20 -24 20 -30 0 -7 7 -18 15 -25 8 -7 15 -20 15 -30 0 -10 7 -23 15
-30 8 -7 15 -21 15 -31 0 -18 16 -19 409 -19 l409 0 -18 22 c-11 13 -37 44
-59 70 -22 26 -42 57 -46 68 -3 11 -10 20 -15 20 -10 0 -89 164 -97 202 -4 18
-1 28 7 28 6 0 10 6 7 13 -2 6 -16 12 -31 12 -24 0 -30 7 -47 54 -10 30 -34
70 -51 89 -25 25 -33 42 -33 70 0 31 -4 38 -22 40 -15 2 -23 10 -23 22 0 10
-5 20 -11 22 -7 2 -13 16 -15 30 -3 29 -31 78 -45 78 -14 0 -11 -16 6 -30 8
-7 15 -19 15 -27 0 -22 -27 1 -36 30 -4 12 -19 37 -33 56 -18 24 -22 36 -13
39 14 4 17 42 3 42 -5 0 -11 -8 -13 -17 -2 -13 -13 -4 -38 32 -105 153 -140
208 -140 218 0 7 -16 37 -36 67 -40 61 -64 114 -64 141 0 12 -5 16 -14 13 -8
-3 -17 -1 -21 5 -8 13 -30 12 -70 -2z"/>
</g>
</svg>
